<svg width="606" height="213" viewBox="0 0 606 213" fill="none" xmlns="http://www.w3.org/2000/svg">
<g clip-path="url(#clip0)">
<path d="M250.022 72.1381C250.32 71.4758 250.377 70.7306 250.184 70.0308C249.99 69.3311 249.559 68.7208 248.964 68.3052C248.635 68.0815 248.218 67.8876 248.128 67.5148C248.101 67.3341 248.133 67.1496 248.219 66.9884C248.305 66.8272 248.441 66.698 248.606 66.6199C248.943 66.4694 249.311 66.4029 249.679 66.4261C253.307 66.4004 256.857 67.4713 259.866 69.4983C261.223 70.408 263.012 69.8861 264.608 70.2142C265.475 70.4389 266.305 70.7907 267.069 71.2581L269.082 72.3618C270.678 73.2268 272.691 72.8837 274.347 73.5996C274.776 73.776 275.16 74.0454 275.472 74.3885C275.784 74.7315 276.016 75.1395 276.151 75.5831C276.255 76.1243 276.218 76.683 276.043 77.2055C275.868 77.7279 275.561 78.1965 275.152 78.5659C274.35 79.2802 273.452 79.8776 272.483 80.3406C269.864 81.7964 267.768 84.0378 266.492 86.7485C265.216 89.4592 264.823 92.5023 265.369 95.4483C265.921 98.1477 266.741 100.892 266.219 103.591C265.846 105.53 264.727 107.424 265.13 109.363C265.533 111.302 267.322 112.853 269.023 114.091C269.866 114.879 270.863 115.484 271.951 115.869C273.039 116.254 274.195 116.41 275.346 116.328C277.747 116.029 279.954 114.836 282.341 114.434C285.771 113.777 289.112 112.704 292.572 112.197C295.89 111.84 299.239 111.875 302.549 112.301C305.951 112.553 309.317 113.173 312.586 114.15C313.63 114.371 314.561 114.958 315.211 115.806C315.5 116.33 315.585 116.943 315.45 117.526C315.315 118.11 314.97 118.623 314.48 118.967C314.017 119.246 313.477 119.367 312.939 119.314C312.401 119.26 311.896 119.034 311.497 118.669C307.963 116.295 303.822 114.986 299.566 114.896C295.292 114.629 291.019 115.445 287.143 117.267C285.141 118.547 283 119.592 280.76 120.384C278.717 120.936 276.584 121.011 274.526 121.488C273.481 121.66 272.482 122.047 271.594 122.625C270.706 123.202 269.947 123.958 269.366 124.843C269.217 125.059 269.12 125.305 269.081 125.563C269.042 125.822 269.063 126.086 269.142 126.335C269.241 126.536 269.388 126.709 269.57 126.839C269.752 126.969 269.964 127.052 270.186 127.08C270.63 127.134 271.08 127.103 271.513 126.991C273.219 126.545 274.946 126.187 276.688 125.917C277.686 125.809 278.696 125.874 279.671 126.111C281.162 126.499 282.177 127.453 283.743 127.602C285.741 127.811 287.725 128.035 289.708 128.288C293.625 128.758 297.503 129.511 301.311 130.54C302.22 130.745 303.085 131.114 303.861 131.629C304.246 131.893 304.56 132.247 304.776 132.661C304.992 133.074 305.103 133.534 305.099 134C305.028 134.534 304.793 135.033 304.427 135.428C304.062 135.823 303.583 136.096 303.056 136.208C302.43 136.35 301.779 136.334 301.161 136.159C300.544 135.985 299.98 135.658 299.521 135.209C298.631 134.142 297.397 133.419 296.032 133.165C294.5 133.085 292.976 132.906 291.468 132.628C290.007 132.108 288.512 131.689 286.994 131.376C284.542 131.124 282.074 131.049 279.611 131.152C276.768 131.47 273.929 131.833 271.096 132.241C267.566 132.748 264.041 133.324 260.522 133.971C258.762 134.299 257.017 134.701 255.272 135C252.394 135.492 247.577 137.058 246.458 132.942C246.345 131.937 246.166 130.94 245.921 129.959C245.594 129.324 245.098 128.791 244.487 128.42C243.877 128.049 243.176 127.854 242.461 127.856C240.444 128.002 238.469 128.507 236.63 129.347C233.931 130.198 231.076 130.438 228.273 130.051C225.469 129.664 222.787 128.66 220.419 127.11C219.447 126.265 218.259 125.707 216.988 125.5C216.248 125.564 215.532 125.791 214.89 126.165C214.248 126.539 213.696 127.05 213.275 127.662C211.783 129.437 210.456 131.331 207.921 131.48C206.341 131.453 204.768 131.273 203.223 130.943C202.045 130.738 200.837 130.804 199.688 131.137C198.51 131.525 197.824 132.539 196.706 133.135C194.961 134.135 192.589 132.897 191.023 134.344C190.361 135.14 189.969 136.128 189.905 137.162C189.348 141.367 187.855 145.393 185.535 148.944C183.183 152.033 179.891 154.273 176.154 155.327C175.866 155.443 175.556 155.492 175.246 155.471C174.936 155.45 174.635 155.361 174.365 155.208C174.098 154.975 173.899 154.675 173.786 154.34C173.673 154.005 173.652 153.645 173.723 153.299C173.891 151.357 174.681 149.521 175.975 148.064C176.257 147.748 176.608 147.502 177.002 147.346C177.396 147.191 177.821 147.13 178.242 147.169C179.063 147.304 179.913 147.915 180.629 147.512C180.907 147.315 181.128 147.047 181.27 146.737C182.448 144.679 183.775 142.695 184.954 140.622C186.132 138.549 187.593 136.238 187.683 134.015C187.714 133.634 187.641 133.251 187.473 132.908C187.305 132.564 187.048 132.272 186.728 132.062C186.263 131.888 185.758 131.847 185.27 131.945C184.783 132.042 184.332 132.274 183.969 132.613C182.64 133.753 181.533 135.128 180.703 136.67C177.034 142.636 174.022 149.227 169.294 154.462C168.596 155.308 167.747 156.016 166.789 156.55C166.309 156.811 165.776 156.959 165.231 156.982C164.685 157.005 164.142 156.903 163.642 156.684C163.152 156.445 162.763 156.039 162.547 155.538C162.331 155.037 162.301 154.476 162.464 153.955C162.851 153.016 163.955 152.553 164.79 152.076C166.575 151.037 168.08 149.578 169.175 147.826C170.263 146.155 171.65 144.664 172.769 143.172C173.737 141.669 174.406 139.993 174.738 138.236C175.245 136.088 175.513 133.881 176.229 131.793C176.869 129.649 178.181 127.766 179.972 126.424C180.425 126.095 180.951 125.882 181.505 125.804C182.059 125.726 182.623 125.786 183.149 125.977C183.954 126.335 184.76 127.14 185.58 126.797C185.785 126.695 185.96 126.544 186.091 126.356C186.221 126.168 186.302 125.951 186.326 125.723C186.369 125.268 186.333 124.809 186.221 124.366L185.61 121.234C185.52 120.742 185.476 120.116 185.893 119.847C186.311 119.579 186.758 119.847 187.146 120.056C188.046 120.615 188.983 121.113 189.95 121.547C190.215 121.69 190.526 121.722 190.815 121.637C190.961 121.551 191.077 121.421 191.146 121.266C191.216 121.111 191.235 120.939 191.202 120.772C191.13 120.438 190.999 120.12 190.815 119.832C189.939 118.2 189.577 116.341 189.777 114.499C189.976 112.657 190.728 110.919 191.933 109.512C192.858 108.423 194.513 107.245 194.155 105.575C194.01 105.183 193.9 104.778 193.827 104.367C193.841 104.079 193.929 103.8 194.083 103.556C194.237 103.313 194.453 103.114 194.707 102.98C195.225 102.718 195.786 102.552 196.363 102.488C197.421 102.309 198.465 102.488 199.509 102.189C204.685 100.847 209.323 98.6697 214.751 98.3565C220.059 98.0309 225.371 98.929 230.277 100.981C232.337 102.033 234.515 102.839 236.764 103.382C239.085 103.661 241.437 103.276 243.549 102.273C245.66 101.27 247.444 99.69 248.695 97.7152C250.432 94.9857 251.367 91.8232 251.395 88.588C251.395 87.6484 250.172 78.6256 249.59 78.8791C248.721 79.1507 247.79 79.1507 246.92 78.8791C245.002 78.4448 243.201 77.6002 241.641 76.4034C241.276 76.1374 240.936 75.8379 240.627 75.5086C239.249 73.973 238.035 72.2987 237.003 70.5124C239.788 70.1543 242.618 70.4087 245.295 71.2581C245.862 71.4371 246.428 71.6459 246.995 71.8398L249.172 72.5556C249.377 72.6179 249.595 72.6179 249.799 72.5556C249.879 72.5227 249.945 72.4631 249.985 72.3869C250.026 72.3108 250.039 72.2228 250.022 72.1381V72.1381Z" fill="#062048"/>
<path d="M242.864 52.5861C242.84 52.6841 242.84 52.7863 242.864 52.8844C243.026 53.1877 243.298 53.4172 243.624 53.5256C245.838 54.451 247.935 55.6323 249.873 57.0453C251.648 58.4684 253.093 60.2595 254.109 62.295C254.526 63.1301 254.735 64.0399 255.108 64.89C255.406 65.4954 255.656 66.1238 255.854 66.7691L256.763 70.1844C256.868 70.5721 256.987 70.9748 257.405 71.0345C257.91 71.0532 258.415 70.9825 258.896 70.8257C258.732 70.0146 258.508 69.217 258.225 68.4395C257.965 67.6552 257.965 66.8077 258.225 66.0234C258.699 65.057 259.459 64.2603 260.402 63.7416C260.573 63.6395 260.725 63.5083 260.85 63.3538C260.918 63.2759 260.962 63.1792 260.975 63.0762C260.989 62.9733 260.971 62.8687 260.925 62.7758C260.878 62.683 260.805 62.6061 260.715 62.5549C260.624 62.5038 260.521 62.4808 260.417 62.4888C260.185 62.4887 259.956 62.5396 259.746 62.638C258.792 62.9959 257.345 64.2039 256.763 62.7871C256.59 62.3359 256.59 61.8364 256.763 61.3852C257.479 59.1631 259.746 57.5076 259.746 55.0469C259.759 54.7946 259.708 54.5431 259.597 54.3161C259.541 54.2025 259.453 54.1073 259.345 54.0413C259.237 53.9753 259.112 53.9413 258.986 53.9432C258.757 53.9929 258.551 54.1191 258.404 54.3012C257.479 55.2258 256.614 56.225 255.719 57.1944C255.385 57.6229 254.95 57.9612 254.452 58.1788C254.043 58.2827 253.611 58.2584 253.217 58.109C252.822 57.9596 252.482 57.6924 252.245 57.3436C251.786 56.6316 251.581 55.7855 251.663 54.9425C251.738 54.4482 251.738 53.9454 251.663 53.4511C251.636 53.2371 251.538 53.0385 251.384 52.8875C251.23 52.7366 251.03 52.6422 250.815 52.6197C250.601 52.5972 250.385 52.648 250.203 52.7637C250.021 52.8795 249.884 53.0534 249.814 53.2572C249.647 53.6486 249.56 54.0696 249.56 54.495C249.56 54.2863 248.606 53.7643 248.427 53.6599L247.278 52.9589C246.49 52.5297 245.66 52.18 244.803 51.915C244.393 51.7656 243.944 51.7656 243.535 51.915C243.374 51.9586 243.228 52.0435 243.11 52.1612C242.992 52.2789 242.907 52.4254 242.864 52.5861V52.5861Z" fill="#062048"/>
<path d="M228.427 66.6647C228.487 66.7405 228.564 66.8016 228.651 66.8437C228.983 66.9441 229.341 66.912 229.65 66.7542C231.875 65.8547 234.197 65.2191 236.57 64.8601C238.856 64.6161 241.167 64.8757 243.341 65.6207C244.236 65.919 245.011 66.4112 245.876 66.7542C246.513 66.9728 247.132 67.2421 247.726 67.5595L250.708 69.3492C251.051 69.558 251.424 69.7519 251.767 69.4983C252.118 69.1668 252.41 68.7786 252.632 68.35C251.963 67.8861 251.26 67.4724 250.529 67.1121C249.785 66.7618 249.173 66.1814 248.784 65.4567C248.459 64.428 248.459 63.3237 248.784 62.295C248.82 62.0977 248.82 61.8957 248.784 61.6984C248.778 61.5959 248.741 61.4977 248.678 61.4162C248.616 61.3346 248.531 61.2732 248.434 61.2398C248.336 61.2064 248.232 61.2023 248.132 61.2282C248.033 61.2541 247.943 61.3087 247.875 61.3852C247.732 61.536 247.621 61.7133 247.547 61.9072C247.129 62.8318 246.95 64.711 245.474 64.1592C245.03 63.9661 244.674 63.6153 244.474 63.1749C243.416 61.0869 243.848 58.3279 242.148 56.5531C241.982 56.3648 241.772 56.2211 241.536 56.1356C241.418 56.0965 241.291 56.0912 241.17 56.1202C241.049 56.1492 240.938 56.2113 240.85 56.2996C240.72 56.4977 240.662 56.7348 240.686 56.9707C240.686 58.2831 240.686 59.5956 240.821 60.908C240.885 61.449 240.813 61.9976 240.612 62.5037C240.396 62.8657 240.074 63.1528 239.69 63.3262C239.306 63.4995 238.878 63.5508 238.464 63.4731C237.632 63.2931 236.885 62.8356 236.346 62.1756C236.053 61.7724 235.701 61.4155 235.302 61.1168C235.137 60.9557 234.919 60.8599 234.689 60.8472C234.458 60.8345 234.231 60.9057 234.049 61.0476C233.867 61.1896 233.743 61.3926 233.699 61.6192C233.655 61.8458 233.695 62.0805 233.811 62.28C233.971 62.6768 234.209 63.037 234.512 63.3389C234.378 63.1898 233.319 63.4881 233.125 63.5328L231.828 63.846C230.966 64.0958 230.132 64.4305 229.337 64.8452C228.94 65.0131 228.613 65.3135 228.412 65.6953C228.328 65.8435 228.285 66.0116 228.287 66.182C228.29 66.3525 228.338 66.5192 228.427 66.6647V66.6647Z" fill="#062048"/>
<path d="M407.631 20.3872C407.929 19.725 407.986 18.9797 407.793 18.28C407.599 17.5802 407.168 16.9699 406.573 16.5543C406.244 16.3306 405.827 16.1367 405.737 15.7639C405.71 15.5833 405.742 15.3987 405.828 15.2375C405.914 15.0763 406.049 14.9471 406.215 14.8691C406.552 14.7185 406.92 14.652 407.288 14.6752C410.916 14.6495 414.466 15.7204 417.475 17.7474C418.832 18.6572 420.621 18.1352 422.217 18.4633C423.084 18.688 423.914 19.0398 424.678 19.5073L426.691 20.6109C428.287 21.4759 430.3 21.1329 431.956 21.8487C432.399 22.0208 432.797 22.2915 433.12 22.6404C433.443 22.9892 433.682 23.407 433.82 23.8621C433.924 24.4032 433.886 24.962 433.711 25.4844C433.536 26.0069 433.23 26.4754 432.821 26.8448C432.019 27.559 431.12 28.1564 430.151 28.6196C427.499 30.0732 425.376 32.3302 424.087 35.0661C422.798 37.802 422.41 40.876 422.978 43.8466C423.53 46.5311 424.35 49.2901 423.828 51.9895C423.455 53.9283 422.336 55.8224 422.739 57.7612C423.142 59.7 424.931 61.251 426.632 62.4888C427.483 63.2538 428.482 63.8364 429.567 64.2006C430.652 64.5648 431.8 64.703 432.94 64.6066C435.341 64.3083 437.549 63.1152 439.935 62.7125C443.365 62.0563 446.706 60.9825 450.166 60.4755C453.484 60.1188 456.833 60.1539 460.143 60.5799C463.546 60.8321 466.911 61.4521 470.18 62.4292C471.224 62.6502 472.155 63.2373 472.805 64.0846C473.094 64.6091 473.179 65.2218 473.044 65.8053C472.909 66.3887 472.564 66.9019 472.074 67.2463C471.611 67.5248 471.071 67.6462 470.533 67.5925C469.996 67.5387 469.49 67.3127 469.091 66.9481C465.557 64.5742 461.416 63.2646 457.16 63.1749C452.886 62.9083 448.613 63.7239 444.737 65.5462C442.742 66.8028 440.61 67.8285 438.384 68.6035C436.34 69.1553 434.208 69.2299 432.15 69.7071C431.104 69.8795 430.106 70.2667 429.218 70.8442C428.33 71.4218 427.571 72.1772 426.99 73.0627C426.841 73.2778 426.744 73.524 426.705 73.7825C426.666 74.041 426.687 74.3049 426.766 74.5541C426.865 74.7549 427.012 74.928 427.194 75.0581C427.376 75.1882 427.588 75.2712 427.81 75.2998C428.254 75.3528 428.704 75.3225 429.137 75.2103C430.843 74.7645 432.57 74.4061 434.312 74.1365C435.31 74.0279 436.319 74.0935 437.295 74.3304C438.786 74.7182 439.8 75.6726 441.366 75.8218C443.365 76.0306 445.348 76.2543 447.332 76.5078C451.249 76.9772 455.127 77.7299 458.935 78.7598C459.844 78.9643 460.708 79.3333 461.485 79.8485C461.87 80.1122 462.184 80.4663 462.4 80.8798C462.616 81.2933 462.727 81.7534 462.723 82.2198C462.652 82.7535 462.417 83.2522 462.051 83.6473C461.686 84.0425 461.206 84.3148 460.68 84.427C460.054 84.5697 459.403 84.553 458.785 84.3784C458.167 84.2038 457.604 83.877 457.145 83.4278C456.255 82.3612 455.021 81.6386 453.655 81.3846C452.124 81.3045 450.6 81.1251 449.092 80.8477C447.631 80.3273 446.136 79.9087 444.618 79.595C442.165 79.3434 439.698 79.2687 437.235 79.3713C434.392 79.6894 431.553 80.0523 428.72 80.46C425.19 80.967 421.665 81.5437 418.146 82.19C416.386 82.5181 414.641 82.9207 412.896 83.219C410.018 83.7112 405.2 85.2771 404.082 81.1609C403.969 80.1559 403.79 79.1594 403.545 78.1782C403.218 77.5429 402.722 77.0103 402.111 76.6393C401.501 76.2682 400.8 76.073 400.085 76.0753C398.068 76.221 396.093 76.7261 394.254 77.5667C391.554 78.4168 388.7 78.6571 385.897 78.2703C383.093 77.8834 380.411 76.879 378.042 75.3296C377.071 74.484 375.883 73.9262 374.612 73.7189C373.872 73.7835 373.155 74.0108 372.514 74.3846C371.872 74.7585 371.32 75.2696 370.899 75.8814C369.407 77.6562 368.08 79.5502 365.545 79.6994C363.965 79.672 362.392 79.4922 360.847 79.1625C359.669 78.9575 358.46 79.0238 357.312 79.3563C356.134 79.7441 355.448 80.7582 354.329 81.3548C352.585 82.354 350.213 81.1162 348.647 82.5628C347.984 83.3596 347.593 84.347 347.529 85.3815C346.987 89.5366 345.53 93.5198 343.263 97.0441C340.912 100.133 337.619 102.373 333.883 103.427C333.594 103.543 333.284 103.592 332.974 103.571C332.665 103.55 332.363 103.461 332.093 103.308C331.827 103.075 331.627 102.775 331.514 102.44C331.402 102.105 331.38 101.745 331.452 101.399C331.619 99.4571 332.409 97.6212 333.704 96.1642C333.985 95.8477 334.337 95.6018 334.73 95.4464C335.124 95.291 335.549 95.2303 335.971 95.2694C336.791 95.4036 337.641 96.0151 338.357 95.6124C338.635 95.4148 338.856 95.1473 338.998 94.8369C340.176 92.7788 341.504 90.7952 342.682 88.7222C343.86 86.6492 345.322 84.3376 345.411 82.1154C345.442 81.7341 345.369 81.3515 345.201 81.0078C345.034 80.664 344.776 80.3718 344.457 80.1617C343.991 79.9877 343.486 79.9471 342.998 80.0446C342.511 80.1421 342.06 80.3738 341.697 80.7135C340.295 81.8823 339.13 83.3102 338.267 84.9192C334.599 90.8847 331.586 97.4766 326.858 102.711C326.161 103.557 325.311 104.266 324.353 104.799C323.873 105.06 323.34 105.208 322.795 105.231C322.249 105.254 321.706 105.153 321.206 104.934C320.716 104.694 320.328 104.288 320.111 103.787C319.895 103.286 319.866 102.725 320.028 102.204C320.416 101.265 321.519 100.802 322.354 100.325C324.187 99.2931 325.734 97.8224 326.858 96.0449C327.977 94.4342 329.319 92.9726 330.452 91.3769C331.408 89.8906 332.072 88.2353 332.406 86.5001C332.913 84.3525 333.182 82.1452 333.898 80.0573C334.538 77.9126 335.85 76.0305 337.641 74.6883C338.093 74.3593 338.62 74.1464 339.173 74.0684C339.727 73.9904 340.292 74.0496 340.818 74.2409C341.623 74.5988 342.428 75.4042 343.249 75.0612C343.453 74.9595 343.629 74.8077 343.759 74.62C343.89 74.4323 343.97 74.2147 343.994 73.9874C344.037 73.5323 344.002 73.0733 343.89 72.6302L343.278 69.4983C343.189 69.0062 343.144 68.3798 343.562 68.1113C343.979 67.8429 344.427 68.1113 344.814 68.3201C345.715 68.8786 346.652 69.3768 347.618 69.8115C347.884 69.9536 348.194 69.9857 348.483 69.901C348.629 69.8147 348.745 69.6851 348.815 69.5302C348.884 69.3752 348.904 69.2026 348.871 69.036C348.799 68.7023 348.667 68.3841 348.483 68.0964C347.607 66.464 347.246 64.6049 347.445 62.7631C347.645 60.9214 348.397 59.183 349.602 57.7761C350.526 56.6874 352.182 55.5092 351.824 53.8388C351.679 53.4467 351.569 53.0424 351.496 52.6308C351.509 52.343 351.597 52.0637 351.752 51.8205C351.906 51.5772 352.121 51.3785 352.376 51.2438C352.894 50.9823 353.454 50.8156 354.031 50.7517C355.09 50.5727 356.134 50.7517 357.178 50.4534C362.353 49.1112 366.991 46.9337 372.42 46.6205C377.745 46.2763 383.078 47.1643 388.005 49.2156C390.066 50.2677 392.243 51.0736 394.492 51.6167C396.813 51.8949 399.166 51.5103 401.277 50.5074C403.388 49.5045 405.173 47.9242 406.423 45.9494C408.153 43.2023 409.073 40.0235 409.078 36.7774C409.078 35.8379 407.855 26.815 407.273 27.0686C406.404 27.3402 405.473 27.3402 404.604 27.0686C402.686 26.6338 400.885 25.7892 399.324 24.5929C398.959 24.3269 398.62 24.0273 398.31 23.698C396.933 22.1625 395.718 20.4881 394.686 18.7019C397.472 18.3437 400.302 18.5982 402.978 19.4476C403.545 19.6266 404.112 19.8354 404.678 20.0292L406.856 20.7451C407.06 20.8074 407.278 20.8074 407.482 20.7451C407.538 20.7049 407.581 20.6502 407.607 20.587C407.633 20.5239 407.642 20.4548 407.631 20.3872V20.3872Z" fill="#062048"/>
<path d="M400.473 0.835188C400.449 0.933232 400.449 1.03542 400.473 1.13346C400.635 1.43677 400.907 1.66631 401.233 1.77476C403.446 2.70012 405.544 3.88137 407.482 5.29441C409.257 6.71753 410.702 8.50857 411.718 10.5441C412.135 11.3792 412.344 12.289 412.717 13.1391C413.015 13.7445 413.265 14.3729 413.463 15.0182L414.357 18.4335C414.462 18.8212 414.581 19.2239 414.999 19.2836C415.504 19.3023 416.009 19.2316 416.49 19.0748C416.326 18.2637 416.102 17.4661 415.819 16.6886C415.558 15.9043 415.558 15.0568 415.819 14.2725C416.239 13.3073 416.941 12.4913 417.832 11.9311C418.003 11.829 418.154 11.6977 418.28 11.5433C418.348 11.4653 418.392 11.3687 418.405 11.2657C418.419 11.1627 418.401 11.0581 418.355 10.9653C418.308 10.8724 418.235 10.7955 418.145 10.7444C418.054 10.6933 417.951 10.6703 417.847 10.6783C417.642 10.6838 417.439 10.7294 417.251 10.8125C416.296 11.1705 414.85 12.3785 414.268 10.9617C414.094 10.5104 414.094 10.011 414.268 9.55976C414.984 7.3376 417.251 5.68217 417.251 3.2214C417.264 2.9691 417.212 2.71765 417.102 2.49062C417.045 2.37708 416.958 2.2818 416.85 2.21582C416.742 2.14983 416.617 2.11584 416.49 2.11777C416.261 2.16739 416.056 2.29366 415.908 2.47571C414.984 3.40036 414.119 4.39959 413.224 5.36898C412.89 5.79742 412.454 6.13573 411.956 6.35329C411.547 6.45726 411.116 6.4329 410.721 6.2835C410.326 6.1341 409.987 5.8669 409.749 5.51812C409.29 4.80616 409.085 3.96005 409.167 3.117C409.242 2.62269 409.242 2.11993 409.167 1.62562C409.125 1.42001 409.023 1.23133 408.875 1.08289C408.727 0.934454 408.538 0.832782 408.332 0.790447C408.125 0.803668 407.925 0.876957 407.758 1.0014C407.592 1.12584 407.465 1.29608 407.393 1.4914C407.226 1.88275 407.139 2.30377 407.139 2.72924C407.139 2.52045 406.185 1.99846 406.006 1.89407L404.857 1.19312C404.069 0.763922 403.239 0.414213 402.382 0.149153C401.972 -0.000197949 401.523 -0.000197949 401.114 0.149153C400.957 0.19853 400.815 0.287644 400.703 0.407847C400.591 0.52805 400.511 0.67526 400.473 0.835188V0.835188Z" fill="#062048"/>
<path d="M386.096 14.9138C386.156 14.9896 386.233 15.0508 386.32 15.0928C386.652 15.1932 387.01 15.1612 387.319 15.0033C389.544 14.104 391.866 13.4683 394.239 13.1092C396.499 12.8714 398.783 13.1258 400.935 13.8549C401.83 14.1532 402.605 14.6454 403.47 14.9884C404.107 15.2069 404.726 15.4762 405.32 15.7937L408.303 17.5834C408.646 17.7773 409.018 17.9861 409.361 17.7325C409.712 17.4011 410.005 17.0128 410.226 16.5842C409.537 16.1228 408.814 15.714 408.064 15.3612C407.32 15.0109 406.708 14.4305 406.319 13.7058C405.993 12.6771 405.993 11.5728 406.319 10.5441C406.354 10.3468 406.354 10.1448 406.319 9.94751C406.312 9.84503 406.275 9.74685 406.213 9.66527C406.15 9.58369 406.065 9.52234 405.968 9.48891C405.871 9.45547 405.766 9.45143 405.667 9.4773C405.567 9.50317 405.478 9.55779 405.409 9.63432C405.267 9.7851 405.155 9.96247 405.081 10.1563C404.664 11.081 404.485 12.9601 403.008 12.4083C402.565 12.2152 402.209 11.8645 402.009 11.424C400.95 9.33605 401.383 6.577 399.682 4.80225C399.517 4.61387 399.307 4.47025 399.071 4.38467C398.953 4.34564 398.826 4.34032 398.705 4.36929C398.583 4.39827 398.473 4.46039 398.385 4.54872C398.255 4.74684 398.197 4.98391 398.221 5.21984C398.221 6.53225 398.221 7.84467 398.355 9.15708C398.42 9.6981 398.348 10.2467 398.146 10.7529C397.931 11.1149 397.609 11.4019 397.225 11.5753C396.841 11.7487 396.413 11.8 395.999 11.7223C395.201 11.5279 394.488 11.0774 393.97 10.4397C393.677 10.0365 393.325 9.67953 392.926 9.38079C392.751 9.26595 392.547 9.20477 392.337 9.20477C392.128 9.20477 391.923 9.26595 391.748 9.38079C391.593 9.52636 391.485 9.7146 391.437 9.92168C391.39 10.1288 391.404 10.3454 391.48 10.5441C391.639 10.9408 391.878 11.301 392.181 11.6029C392.047 11.4538 390.988 11.7521 390.794 11.7968L389.496 12.11C388.635 12.3597 387.801 12.6944 387.006 13.1092C386.608 13.276 386.281 13.5768 386.081 13.9593C385.999 14.1057 385.958 14.271 385.961 14.4386C385.963 14.6061 386.01 14.77 386.096 14.9138V14.9138Z" fill="#062048"/>
<path d="M540.483 44.5774C540.781 43.9151 540.838 43.1699 540.645 42.4702C540.451 41.7704 540.02 41.1601 539.425 40.7445C539.096 40.5208 538.679 40.3269 538.589 39.9541C538.562 39.7734 538.594 39.5889 538.68 39.4277C538.766 39.2665 538.902 39.1373 539.067 39.0593C539.404 38.9087 539.772 38.8422 540.14 38.8654C543.768 38.8397 547.318 39.9106 550.327 41.9376C551.684 42.8474 553.473 42.3254 555.069 42.6535C555.936 42.8782 556.766 43.23 557.53 43.6974L559.513 44.7414C561.109 45.6064 563.123 45.2634 564.778 45.9793C565.218 46.1483 565.614 46.4145 565.937 46.7579C566.26 47.1013 566.501 47.5132 566.642 47.9628C566.746 48.5039 566.709 49.0627 566.534 49.5851C566.359 50.1076 566.052 50.5761 565.643 50.9455C564.841 51.6598 563.942 52.2573 562.973 52.7203C560.321 54.1739 558.198 56.4309 556.91 59.1668C555.621 61.9027 555.232 64.9767 555.8 67.9473C556.352 70.6318 557.172 73.3908 556.65 76.0902C556.277 78.029 555.159 79.9231 555.561 81.8619C555.964 83.8007 557.798 85.3368 559.513 86.5001C560.365 87.2651 561.364 87.8476 562.449 88.2118C563.534 88.5761 564.682 88.7142 565.822 88.6178C568.223 88.3195 570.43 87.1264 572.817 86.7238C576.247 86.0676 579.587 84.9938 583.047 84.4867C586.366 84.1302 589.715 84.1652 593.025 84.5911C596.42 84.8649 599.775 85.5049 603.032 86.5001C604.076 86.721 605.007 87.3082 605.657 88.1555C605.946 88.68 606.031 89.2927 605.896 89.8761C605.761 90.4596 605.416 90.9727 604.926 91.3172C604.463 91.5957 603.923 91.7171 603.385 91.6633C602.848 91.6096 602.342 91.3835 601.943 91.0189C598.409 88.645 594.268 87.3354 590.012 87.2457C585.738 86.9792 581.465 87.7948 577.589 89.617C575.592 90.8953 573.455 91.9411 571.221 92.734C569.178 93.2858 567.045 93.3604 564.987 93.8376C563.942 94.01 562.943 94.3972 562.055 94.9748C561.167 95.5523 560.408 96.3077 559.827 97.1932C559.678 97.4084 559.581 97.6545 559.542 97.913C559.503 98.1715 559.524 98.4354 559.603 98.6846C559.702 98.8854 559.849 99.0585 560.031 99.1886C560.213 99.3187 560.425 99.4017 560.647 99.4303C561.091 99.4833 561.541 99.453 561.974 99.3408C563.68 98.8949 565.407 98.5365 567.149 98.267C568.147 98.1584 569.157 98.224 570.132 98.4609C571.623 98.8487 572.638 99.8032 574.204 99.9523C576.202 100.161 578.186 100.385 580.169 100.638C584.112 101.109 588.014 101.867 591.847 102.905C592.756 103.11 593.62 103.479 594.397 103.994C594.782 104.258 595.096 104.612 595.311 105.025C595.527 105.439 595.638 105.899 595.635 106.365C595.563 106.899 595.329 107.398 594.963 107.793C594.597 108.188 594.118 108.46 593.592 108.572C592.966 108.715 592.314 108.698 591.697 108.524C591.079 108.349 590.515 108.022 590.057 107.573C589.167 106.507 587.933 105.784 586.567 105.53C585.036 105.45 583.511 105.271 582.003 104.993C580.543 104.473 579.048 104.054 577.529 103.74C575.077 103.489 572.61 103.414 570.147 103.517C567.303 103.835 564.465 104.198 561.631 104.605C558.102 105.112 554.577 105.689 551.057 106.335C549.298 106.664 547.553 107.066 545.808 107.364C542.929 107.857 538.112 109.423 536.994 105.306C536.881 104.301 536.701 103.305 536.457 102.324C536.13 101.688 535.634 101.156 535.023 100.785C534.412 100.414 533.711 100.218 532.997 100.221C530.98 100.366 529.005 100.872 527.165 101.712C524.466 102.562 521.612 102.803 518.808 102.416C516.005 102.029 513.322 101.024 510.954 99.4751C509.983 98.6294 508.795 98.0716 507.524 97.8644C506.8 97.923 506.098 98.1372 505.465 98.4924C504.831 98.8476 504.282 99.3354 503.855 99.9225C502.364 101.697 501.036 103.591 498.501 103.74C496.922 103.713 495.348 103.533 493.803 103.204C492.626 102.999 491.417 103.065 490.269 103.397C489.091 103.785 488.404 104.799 487.286 105.396C485.541 106.395 483.17 105.157 481.604 106.604C480.927 107.411 480.529 108.415 480.47 109.467C479.914 113.672 478.421 117.698 476.101 121.249C473.749 124.338 470.456 126.578 466.72 127.632C466.432 127.748 466.121 127.797 465.811 127.776C465.502 127.756 465.201 127.666 464.93 127.513C464.664 127.28 464.464 126.981 464.351 126.645C464.239 126.31 464.217 125.951 464.289 125.604C464.456 123.662 465.246 121.826 466.541 120.369C466.822 120.053 467.174 119.807 467.568 119.651C467.961 119.496 468.386 119.435 468.808 119.474C469.628 119.609 470.478 120.22 471.194 119.817C471.472 119.62 471.693 119.352 471.835 119.042C473.013 116.984 474.341 115 475.519 112.927C476.697 110.854 478.159 108.543 478.248 106.32C478.279 105.939 478.207 105.557 478.039 105.213C477.871 104.869 477.613 104.577 477.294 104.367C476.828 104.193 476.323 104.152 475.836 104.25C475.348 104.347 474.898 104.579 474.535 104.919C473.132 106.087 471.967 107.515 471.104 109.124C467.436 115.09 464.423 121.682 459.695 126.916C458.998 127.762 458.148 128.471 457.19 129.004C456.71 129.265 456.177 129.413 455.632 129.436C455.087 129.459 454.543 129.358 454.043 129.139C453.553 128.9 453.165 128.493 452.949 127.992C452.732 127.492 452.703 126.93 452.865 126.409C453.253 125.47 454.356 125.007 455.191 124.53C456.987 123.48 458.498 122.005 459.591 120.235C460.71 118.624 462.052 117.163 463.185 115.567C464.164 114.081 464.848 112.42 465.199 110.675C465.706 108.528 465.974 106.32 466.69 104.233C467.33 102.088 468.642 100.206 470.433 98.8636C470.886 98.5346 471.412 98.3217 471.966 98.2437C472.52 98.1657 473.084 98.2249 473.61 98.4162C474.415 98.7741 475.221 99.5795 476.041 99.2364C476.246 99.1347 476.421 98.983 476.552 98.7952C476.682 98.6075 476.763 98.3899 476.787 98.1626C476.83 97.7076 476.794 97.2486 476.682 96.8055L476.071 93.6736C475.981 93.1814 475.937 92.5551 476.354 92.2866C476.772 92.0182 477.219 92.2866 477.607 92.4954C478.528 93.0461 479.484 93.5344 480.47 93.9569C480.736 94.099 481.046 94.1312 481.335 94.0464C481.482 93.9601 481.597 93.8305 481.667 93.6756C481.736 93.5207 481.756 93.348 481.723 93.1814C481.651 92.8477 481.519 92.5296 481.335 92.2419C480.459 90.6094 480.098 88.7503 480.297 86.9086C480.497 85.0668 481.249 83.3284 482.454 81.9215C483.379 80.8328 485.034 79.6546 484.676 77.9843C484.531 77.5922 484.421 77.1879 484.348 76.7763C484.361 76.4885 484.449 76.2092 484.604 75.9659C484.758 75.7227 484.973 75.5239 485.228 75.3893C485.746 75.1277 486.307 74.9611 486.883 74.8971C487.942 74.7182 488.986 74.8971 490.03 74.5988C495.205 73.2566 499.843 71.0941 505.272 70.766C510.58 70.4404 515.891 71.3385 520.797 73.3908C522.858 74.443 525.036 75.2489 527.285 75.7919C529.606 76.0702 531.958 75.6856 534.069 74.6827C536.181 73.6798 537.965 72.0995 539.216 70.1247C540.945 67.3776 541.865 64.1988 541.87 60.9527C541.87 60.0131 540.648 50.9903 540.066 51.2438C539.197 51.5155 538.265 51.5155 537.396 51.2438C535.479 50.8091 533.677 49.9645 532.117 48.7681C531.752 48.5022 531.412 48.2026 531.103 47.8733C529.725 46.3377 528.511 44.6634 527.479 42.8772C530.264 42.519 533.094 42.7735 535.771 43.6229C536.337 43.8018 536.904 44.0106 537.471 44.2045L539.648 44.9204C539.852 44.9826 540.071 44.9826 540.275 44.9204C540.339 44.8891 540.392 44.8402 540.429 44.7794C540.466 44.7186 540.485 44.6485 540.483 44.5774Z" fill="#062048"/>
<path d="M533.325 25.0254C533.302 25.1234 533.302 25.2256 533.325 25.3236C533.487 25.627 533.759 25.8565 534.086 25.9649C536.299 26.8902 538.396 28.0714 540.334 29.4846C542.12 30.9046 543.575 32.6958 544.6 34.7343C545.017 35.5694 545.226 36.4792 545.599 37.3293C545.898 37.9347 546.147 38.5631 546.345 39.2084L547.24 42.6237C547.344 43.0114 547.463 43.4141 547.881 43.4737C548.386 43.4925 548.891 43.4218 549.372 43.265C549.208 42.4539 548.984 41.6563 548.701 40.8787C548.441 40.0945 548.441 39.247 548.701 38.4627C549.175 37.4963 549.935 36.6996 550.879 36.1809C551.049 36.0788 551.201 35.9476 551.326 35.7931C551.394 35.7152 551.438 35.6185 551.452 35.5155C551.465 35.4126 551.447 35.308 551.401 35.2151C551.354 35.1223 551.281 35.0453 551.191 34.9942C551.101 34.9431 550.997 34.9201 550.893 34.9281C550.688 34.9336 550.485 34.9792 550.297 35.0624C549.342 35.4203 547.896 36.6283 547.314 35.2115C547.141 34.7603 547.141 34.2608 547.314 33.8096C548.03 31.5874 550.297 29.932 550.297 27.4712C550.31 27.2189 550.259 26.9675 550.148 26.7405C550.091 26.6269 550.004 26.5316 549.896 26.4657C549.788 26.3997 549.663 26.3657 549.536 26.3676C549.307 26.4172 549.102 26.5435 548.955 26.7255C548.03 27.6502 547.165 28.6494 546.27 29.6188C545.936 30.0473 545.5 30.3856 545.002 30.6031C544.593 30.7071 544.162 30.6827 543.767 30.5333C543.372 30.3839 543.033 30.1167 542.795 29.768C542.336 29.056 542.131 28.2099 542.214 27.3668C542.288 26.8725 542.288 26.3698 542.214 25.8755C542.187 25.6615 542.089 25.4629 541.935 25.3119C541.781 25.1609 541.58 25.0665 541.366 25.0441C541.152 25.0216 540.936 25.0724 540.754 25.1881C540.572 25.3039 540.435 25.4778 540.364 25.6816C540.197 26.0729 540.111 26.494 540.111 26.9194C540.111 26.7106 539.156 26.1887 538.977 26.0843L537.829 25.3833C537.04 24.9541 536.211 24.6044 535.353 24.3393C534.944 24.19 534.495 24.19 534.086 24.3393C533.907 24.3696 533.74 24.4502 533.605 24.5717C533.471 24.6932 533.373 24.8506 533.325 25.0254V25.0254Z" fill="#062048"/>
<path d="M518.948 39.0891C519.008 39.1648 519.085 39.226 519.172 39.268C519.504 39.3685 519.862 39.3364 520.171 39.1786C522.401 38.278 524.728 37.6423 527.106 37.2845C529.366 37.0466 531.65 37.301 533.802 38.0302C534.697 38.3285 535.488 38.8206 536.338 39.1636C536.975 39.3822 537.593 39.6516 538.187 39.969L541.17 41.7586C541.513 41.9525 541.886 42.1613 542.229 41.9078C542.579 41.5761 542.872 41.1879 543.094 40.7594C542.404 40.2981 541.682 39.8893 540.931 39.5365C540.187 39.1862 539.575 38.6058 539.186 37.8811C538.86 36.8523 538.86 35.748 539.186 34.7193C539.221 34.522 539.221 34.3201 539.186 34.1228C539.179 34.0203 539.142 33.9221 539.08 33.8405C539.018 33.759 538.932 33.6976 538.835 33.6642C538.738 33.6307 538.633 33.6267 538.534 33.6526C538.434 33.6784 538.345 33.7331 538.276 33.8096C538.134 33.9604 538.022 34.1377 537.948 34.3316C537.531 35.2562 537.352 37.1354 535.875 36.5836C535.432 36.3904 535.076 36.0397 534.876 35.5992C533.817 33.5113 534.25 30.7523 532.55 28.9775C532.384 28.7891 532.174 28.6455 531.938 28.5599C531.82 28.5209 531.693 28.5156 531.572 28.5446C531.451 28.5735 531.34 28.6357 531.252 28.724C531.122 28.9221 531.064 29.1592 531.088 29.3951C531.088 30.7075 531.088 32.0199 531.222 33.3323C531.287 33.8734 531.215 34.4219 531.013 34.9281C530.798 35.2901 530.476 35.5772 530.092 35.7506C529.708 35.9239 529.28 35.9752 528.866 35.8975C528.033 35.7175 527.287 35.26 526.748 34.6C526.455 34.1968 526.103 33.8399 525.704 33.5411C525.539 33.3801 525.321 33.2843 525.09 33.2716C524.86 33.2589 524.633 33.3301 524.451 33.472C524.269 33.6139 524.144 33.817 524.101 34.0436C524.057 34.2701 524.097 34.5049 524.213 34.7044C524.372 35.1011 524.611 35.4614 524.914 35.7633C524.779 35.6142 523.721 35.9124 523.527 35.9572L522.229 36.2704C521.368 36.5202 520.534 36.8549 519.739 37.2696C519.341 37.4364 519.013 37.7371 518.814 38.1197C518.747 38.2783 518.724 38.4522 518.747 38.6229C518.771 38.7936 518.84 38.9546 518.948 39.0891V39.0891Z" fill="#062048"/>
<path d="M118.214 125.649L116.574 123.263C128.505 115.015 140.958 106.485 154.171 99.7137C169.219 92.0032 183.119 87.7826 196.676 86.5746C215.348 85.0087 233.543 89.2591 255.108 96.1194L254.228 98.8785C232.991 92.1226 215.109 87.9914 196.914 89.4828C183.686 90.5715 170.263 94.7623 155.499 102.294C142.434 108.975 130.13 117.461 118.214 125.649Z" fill="#062048"/>
<path d="M117.543 122.293L115.082 118.669C118.527 116.298 122.077 113.718 125.522 111.212C134.306 104.844 143.418 98.267 152.889 93.3902C168.026 85.635 182.015 81.3249 195.662 80.1766C214.05 78.6852 232.066 84.427 249.5 90.0495L254.243 91.5409L252.931 95.672L248.173 94.1806C231.156 88.7073 213.558 83.04 195.975 84.5016C182.91 85.6052 169.443 89.7662 154.813 97.2529C145.596 101.966 136.663 108.453 127.968 114.717C124.612 117.252 121.048 119.847 117.543 122.293Z" fill="#062048"/>
<path d="M260.328 99.8181L259.836 96.9397C268.262 95.4484 276.852 89.6916 286.099 79.2221C290.214 74.4015 294.067 69.3634 297.642 64.1294C300.163 60.5501 302.773 56.8365 305.546 53.3318C313.242 43.5334 321.788 36.6731 331.675 32.363C341.131 28.2319 352.048 28.038 365.038 31.7813C369.109 32.9595 374.717 34.9281 380.637 37.0012C391.897 40.9533 404.664 45.4424 412.344 46.4714L411.971 49.2156C403.993 48.1418 391.092 43.608 379.683 39.6111C373.792 37.5381 368.229 35.5844 364.232 34.436C351.914 30.8865 341.638 31.0356 332.824 34.8834C322.925 39.3686 314.322 46.2843 307.813 54.9872C305.099 58.4472 302.504 62.116 299.999 65.6655C296.368 71.014 292.449 76.1618 288.261 81.0864C278.567 92.1524 269.44 98.2522 260.328 99.8181Z" fill="#062048"/>
<path d="M260.417 95.3738L259.746 91.0786C265.177 90.2528 270.201 87.7072 274.078 83.8156C277.046 80.5577 279.601 76.9461 281.684 73.0627C282.355 71.9293 283.027 70.8107 283.713 69.6922C286.961 64.5548 290.986 59.9515 295.644 56.0461C304.435 48.4245 315.094 43.2774 326.53 41.1323C341.772 38.418 364.143 38.4925 383.978 38.582C394.507 38.582 404.455 38.6566 412.747 38.2986L412.941 42.6386C404.559 43.0114 394.552 42.9667 383.963 42.9219C364.381 42.8474 342.204 42.7579 327.291 45.4722C316.643 47.47 306.716 52.256 298.522 59.342C294.204 62.9566 290.471 67.2177 287.456 71.974C286.785 73.0627 286.129 74.1663 285.472 75.27C283.208 79.4642 280.433 83.3616 277.21 86.8729C272.667 91.4316 266.781 94.4115 260.417 95.3738V95.3738Z" fill="#062048"/>
<path d="M536.024 68.2754C520.574 67.5595 508.687 61.1317 498.74 55.7329C494.085 53.0052 489.193 50.7041 484.124 48.8576C458.114 40.6103 440.874 35.8975 415.834 42.5789L414.715 38.3881C440.934 31.319 458.681 36.2256 485.437 44.7414C490.772 46.6654 495.919 49.0767 500.813 51.9448C513.34 58.7306 527.523 66.4261 547.851 63.3389L548.507 67.6341C544.377 68.258 540.196 68.4728 536.024 68.2754V68.2754Z" fill="#062048"/>
<path d="M544.137 63.3091C534.175 62.8468 526.137 58.7455 518.933 55.0469C516.547 53.8239 514.28 52.6606 512.058 51.7062C495.295 44.3984 476.086 46.0538 459.412 48.1865C456.579 48.5444 453.984 48.9173 451.568 49.2603C438.786 51.05 430.345 52.2431 415.252 48.8427L415.894 46.024C430.465 49.305 438.264 48.2163 451.165 46.3969C453.596 46.0538 456.206 45.6959 459.054 45.3231C476.116 43.1456 495.787 41.4604 513.221 49.0515C515.518 50.0507 517.815 51.2289 520.26 52.4817C528.254 56.5681 537.322 61.2063 548.746 60.3562L548.955 63.2495C547.352 63.3658 545.743 63.3857 544.137 63.3091V63.3091Z" fill="#062048"/>
</g>
<path d="M17.3611 197.921C16.1083 197.921 15.0793 197.25 14.2739 195.908C13.4686 194.565 13.0659 193.089 13.0659 191.478V191.076C13.5133 189.286 13.737 187.675 13.737 186.244C13.737 184.633 13.6028 182.441 13.3343 179.667C12.9764 177.072 12.7974 174.879 12.7974 173.09V170.137C12.8869 169.331 12.9317 168.392 12.9317 167.318C12.9317 166.334 12.8422 164.947 12.6632 163.157L9.17339 163.56C7.38373 163.828 6.08623 163.962 5.28089 163.962C3.58071 163.962 1.8358 163.246 0.0461426 161.815C0.0461426 159.936 0.269849 158.191 0.717263 156.58C0.269849 154.343 0.0461426 151.837 0.0461426 149.063C0.0461426 146.468 0.404073 141.86 1.11994 135.238C1.74632 129.511 2.05951 124.993 2.05951 121.682V96.8502C2.05951 95.6869 2.37269 94.9711 2.99907 94.7026C3.44649 94.4342 3.98339 94.2999 4.60977 94.2999C5.77304 94.2999 6.71261 94.6131 7.42847 95.2395C8.23382 95.7764 8.63649 96.537 8.63649 97.5213C8.63649 99.4899 8.54701 101.235 8.36804 102.756L8.09959 107.991V109.199C8.01011 109.557 7.96537 109.959 7.96537 110.407C7.96537 111.123 8.05485 111.928 8.23382 112.823V113.36C8.50227 115.597 8.63649 117.968 8.63649 120.474C8.63649 124.858 8.3233 130.54 7.69692 137.52C7.07054 144.5 6.75735 150.182 6.75735 154.567C6.75735 155.193 6.84683 156.222 7.0258 157.654C9.0839 157.475 10.6946 157.206 11.8579 156.848C11.8579 153.627 12.0816 147.319 12.529 137.923C12.8869 130.406 13.0659 124.232 13.0659 119.4C13.0659 118.505 13.4238 117.789 14.1397 117.252C14.945 116.626 15.7504 116.313 16.5557 116.313L18.7033 118.729V125.172C18.7033 136.804 18.6138 147.184 18.4349 156.312C18.5243 156.312 18.6586 156.312 18.8375 156.312C19.106 156.222 19.5087 156.177 20.0455 156.177C20.6719 156.088 21.4325 156.043 22.3274 156.043C25.0118 156.043 26.3541 156.983 26.3541 158.862C26.3541 161.009 24.5644 162.083 20.9851 162.083C19.4639 162.083 18.7033 162.486 18.7033 163.291C18.7033 167.049 18.8375 171.434 19.106 176.445C19.3744 181.367 19.7324 184.275 20.1798 185.17C20.0008 185.886 19.9113 186.736 19.9113 187.72C19.9113 188.883 20.0903 189.778 20.4482 190.404V192.821C20.4482 194.252 20.1798 195.46 19.6429 196.445C19.1955 197.429 18.4349 197.921 17.3611 197.921Z" fill="#062048"/>
<path d="M53.0291 194.968C42.2016 194.968 36.7879 169.823 36.7879 119.534V115.239C36.7879 108.528 37.5485 103.293 39.0697 99.5347C39.7856 97.3871 40.9041 95.7764 42.4253 94.7026C44.036 93.5393 45.9599 92.9577 48.197 92.9577C60.993 92.9577 67.391 115.731 67.391 161.278C67.391 183.738 62.6037 194.968 53.0291 194.968ZM54.2371 188.794C55.6688 188.794 56.8321 187.452 57.7269 184.767C59.2481 180.83 60.3219 174.253 60.9483 165.036C61.1272 163.067 61.2167 160.786 61.2167 158.191C61.2167 152.195 60.9483 144.231 60.4114 134.299C59.785 124.903 58.398 116.402 56.2504 108.796C55.2661 104.948 53.9239 101.906 52.2237 99.6689C50.613 97.4318 48.7786 96.1791 46.7205 95.9106C45.3783 96.9844 44.4387 98.103 43.9018 99.2662C43.4544 100.43 43.2307 101.995 43.2307 103.964C43.2307 108.886 43.3202 113.27 43.4991 117.118L43.7676 130.54C43.7676 131.704 43.9913 133.851 44.4387 136.983C44.8861 140.294 45.1098 142.486 45.1098 143.56C45.1098 145.708 45.244 150.629 45.5125 158.325C45.8704 165.662 46.7205 172.418 48.0628 178.593C48.6891 181.725 49.5392 184.23 50.613 186.109C51.6868 187.899 52.8948 188.794 54.2371 188.794Z" fill="#062048"/>
<path d="M101.12 197.921C99.8674 197.921 98.8383 197.25 98.033 195.908C97.2276 194.565 96.8249 193.089 96.8249 191.478V191.076C97.2724 189.286 97.4961 187.675 97.4961 186.244C97.4961 184.633 97.3618 182.441 97.0934 179.667C96.7355 177.072 96.5565 174.879 96.5565 173.09V170.137C96.646 169.331 96.6907 168.392 96.6907 167.318C96.6907 166.334 96.6012 164.947 96.4223 163.157L92.9324 163.56C91.1428 163.828 89.8453 163.962 89.0399 163.962C87.3398 163.962 85.5948 163.246 83.8052 161.815C83.8052 159.936 84.0289 158.191 84.4763 156.58C84.0289 154.343 83.8052 151.837 83.8052 149.063C83.8052 146.468 84.1631 141.86 84.879 135.238C85.5054 129.511 85.8185 124.993 85.8185 121.682V96.8502C85.8185 95.6869 86.1317 94.9711 86.7581 94.7026C87.2055 94.4342 87.7424 94.2999 88.3688 94.2999C89.5321 94.2999 90.4717 94.6131 91.1875 95.2395C91.9929 95.7764 92.3955 96.537 92.3955 97.5213C92.3955 99.4899 92.3061 101.235 92.1271 102.756L91.8586 107.991V109.199C91.7692 109.557 91.7244 109.959 91.7244 110.407C91.7244 111.123 91.8139 111.928 91.9929 112.823V113.36C92.2613 115.597 92.3955 117.968 92.3955 120.474C92.3955 124.858 92.0824 130.54 91.456 137.52C90.8296 144.5 90.5164 150.182 90.5164 154.567C90.5164 155.193 90.6059 156.222 90.7848 157.654C92.843 157.475 94.4536 157.206 95.6169 156.848C95.6169 153.627 95.8406 147.319 96.288 137.923C96.646 130.406 96.8249 124.232 96.8249 119.4C96.8249 118.505 97.1829 117.789 97.8987 117.252C98.7041 116.626 99.5094 116.313 100.315 116.313L102.462 118.729V125.172C102.462 136.804 102.373 147.184 102.194 156.312C102.283 156.312 102.418 156.312 102.597 156.312C102.865 156.222 103.268 156.177 103.805 156.177C104.431 156.088 105.192 156.043 106.086 156.043C108.771 156.043 110.113 156.983 110.113 158.862C110.113 161.009 108.323 162.083 104.744 162.083C103.223 162.083 102.462 162.486 102.462 163.291C102.462 167.049 102.597 171.434 102.865 176.445C103.133 181.367 103.491 184.275 103.939 185.17C103.76 185.886 103.67 186.736 103.67 187.72C103.67 188.883 103.849 189.778 104.207 190.404V192.821C104.207 194.252 103.939 195.46 103.402 196.445C102.955 197.429 102.194 197.921 101.12 197.921Z" fill="#062048"/>
<path d="M194.036 205.197C193.234 205.197 192.495 204.935 191.817 204.411C191.139 203.918 190.584 203.24 190.152 202.377C189.258 200.497 188.704 198.447 188.488 196.228C188.21 194.132 188.072 192.114 188.072 190.172C188.072 189.802 188.087 189.494 188.118 189.247V188.415C188.118 188.261 188.103 188.184 188.072 188.184V187.352L188.118 184.115C188.149 183.129 188.272 181.557 188.488 179.4C188.642 177.92 188.996 176.487 189.551 175.1C189.767 174.483 190.044 174.021 190.383 173.713C190.722 173.374 191.108 173.204 191.539 173.204C192.772 173.204 193.882 173.436 194.868 173.898C195.854 174.329 196.686 174.946 197.365 175.747C197.981 176.518 198.505 177.473 198.936 178.614C199.368 179.723 199.676 180.91 199.861 182.174C200.046 183.468 200.139 184.84 200.139 186.288V186.658C200.139 187.614 200.154 188.477 200.185 189.247L200.231 191.882C200.231 200.759 198.166 205.197 194.036 205.197ZM193.851 203.256C194.406 203.256 194.914 203.04 195.377 202.608C195.839 202.146 196.193 201.53 196.44 200.759C197.026 199.187 197.38 197.492 197.503 195.673C197.657 194.102 197.734 192.745 197.734 191.605C197.734 190.218 197.627 188.4 197.411 186.15C197.226 183.776 197.133 182.004 197.133 180.833V180.001C197.072 178.829 196.671 177.812 195.931 176.949C195.222 176.086 194.344 175.655 193.296 175.655C192.248 175.655 191.555 176.256 191.216 177.458C190.907 178.413 190.753 179.646 190.753 181.156C190.753 181.742 190.769 182.235 190.8 182.636V183.884L190.707 186.011C190.645 186.658 190.615 187.367 190.615 188.138C190.615 189.802 190.661 191.451 190.753 193.084C190.877 195.396 191.185 197.646 191.678 199.834C192.171 202.115 192.895 203.256 193.851 203.256Z" fill="#FF0000"/>
<path d="M210.696 205.197C209.894 205.197 209.155 204.935 208.477 204.411C207.799 203.918 207.244 203.24 206.812 202.377C205.918 200.497 205.364 198.447 205.148 196.228C204.871 194.132 204.732 192.114 204.732 190.172C204.732 189.802 204.747 189.494 204.778 189.247V188.415C204.778 188.261 204.763 188.184 204.732 188.184V187.352L204.778 184.115C204.809 183.129 204.932 181.557 205.148 179.4C205.302 177.92 205.656 176.487 206.211 175.1C206.427 174.483 206.704 174.021 207.043 173.713C207.383 173.374 207.768 173.204 208.199 173.204C209.432 173.204 210.542 173.436 211.528 173.898C212.514 174.329 213.347 174.946 214.025 175.747C214.641 176.518 215.165 177.473 215.597 178.614C216.028 179.723 216.336 180.91 216.521 182.174C216.706 183.468 216.799 184.84 216.799 186.288V186.658C216.799 187.614 216.814 188.477 216.845 189.247L216.891 191.882C216.891 200.759 214.826 205.197 210.696 205.197ZM210.511 203.256C211.066 203.256 211.574 203.04 212.037 202.608C212.499 202.146 212.853 201.53 213.1 200.759C213.686 199.187 214.04 197.492 214.163 195.673C214.317 194.102 214.394 192.745 214.394 191.605C214.394 190.218 214.287 188.4 214.071 186.15C213.886 183.776 213.793 182.004 213.793 180.833V180.001C213.732 178.829 213.331 177.812 212.591 176.949C211.883 176.086 211.004 175.655 209.956 175.655C208.908 175.655 208.215 176.256 207.876 177.458C207.567 178.413 207.413 179.646 207.413 181.156C207.413 181.742 207.429 182.235 207.46 182.636V183.884L207.367 186.011C207.305 186.658 207.275 187.367 207.275 188.138C207.275 189.802 207.321 191.451 207.413 193.084C207.537 195.396 207.845 197.646 208.338 199.834C208.831 202.115 209.555 203.256 210.511 203.256Z" fill="#FF0000"/>
<path d="M226.894 205.013C226.154 205.013 225.491 204.843 224.906 204.504C224.32 204.196 223.842 203.733 223.472 203.117C222.733 201.822 222.255 200.358 222.039 198.725C221.823 197.307 221.716 195.612 221.716 193.639C221.623 190.31 221.577 186.242 221.577 181.434L221.531 177.874C221.5 177.689 221.484 177.381 221.484 176.949C221.423 175.778 221.392 175.069 221.392 174.823C221.669 174.175 221.993 173.852 222.363 173.852C222.733 173.852 223.056 174.129 223.334 174.684C223.642 175.239 223.796 175.84 223.796 176.487V189.062C223.796 190.295 223.904 191.929 224.12 193.963C224.335 196.49 224.443 198.124 224.443 198.864C224.443 201.144 225.414 202.285 227.356 202.285C229.575 202.285 230.685 193.994 230.685 177.412V174.823V174.406C230.654 174.314 230.638 174.191 230.638 174.037C230.638 173.667 230.715 173.405 230.87 173.251C231.055 173.066 231.394 172.973 231.887 172.973C232.287 172.973 232.596 173.096 232.811 173.343C233.058 173.559 233.212 173.821 233.274 174.129C233.305 174.314 233.32 174.668 233.32 175.192C233.32 175.686 233.274 176.471 233.181 177.55C233.058 178.444 232.996 179.215 232.996 179.862C232.996 180.571 232.965 181.203 232.904 181.757L232.811 183.699V184.069C232.842 184.192 232.858 184.331 232.858 184.485C232.858 198.17 230.87 205.013 226.894 205.013Z" fill="#FF0000"/>
<path d="M239.669 204.643C239.268 203.009 239.068 200.744 239.068 197.846L239.16 193.732C239.222 192.499 239.253 191.127 239.253 189.617C239.068 189.185 238.976 188.8 238.976 188.461V188.322C239.284 187.737 239.438 186.412 239.438 184.346L239.484 182.22C239.515 181.542 239.53 180.787 239.53 179.954C239.53 178.136 239.407 176.703 239.16 175.655C239.253 175.223 239.407 174.853 239.623 174.545C239.839 174.206 240.101 174.037 240.409 174.037H242.443C243.306 174.037 244.061 174.237 244.708 174.638C245.356 175.007 245.849 175.547 246.188 176.256C246.804 177.519 247.112 179.014 247.112 180.74C247.112 181.973 247.097 182.944 247.066 183.653C247.005 184.547 246.85 185.364 246.604 186.103C246.511 186.504 246.373 186.843 246.188 187.12C246.034 187.367 245.803 187.675 245.494 188.045C245.063 188.569 244.354 189.062 243.368 189.525C242.967 189.74 242.443 189.941 241.796 190.126V195.072L241.888 198.031L241.981 199.465C242.104 201.191 242.166 202.655 242.166 203.857C242.166 204.227 242.011 204.535 241.703 204.781C241.395 205.059 241.041 205.197 240.64 205.197L239.669 204.643ZM241.842 188.23C243.66 187.953 244.57 185.348 244.57 180.417C244.57 179.523 244.523 178.829 244.431 178.336C244.339 177.966 244.215 177.674 244.061 177.458C243.907 177.211 243.676 177.011 243.368 176.857C243.029 176.672 242.659 176.579 242.258 176.579C242.258 176.549 242.089 176.533 241.749 176.533V179.168C241.749 180.987 241.765 182.605 241.796 184.023C241.796 185.626 241.811 186.674 241.842 187.167V188.138V188.23Z" fill="#FF0000"/>
<path d="M252.487 204.966C251.932 204.874 251.455 204.673 251.054 204.365C250.684 204.057 250.468 203.656 250.407 203.163L250.915 202.377C251.1 202.377 251.393 202.439 251.794 202.562C252.256 202.655 252.61 202.701 252.857 202.701C253.412 202.701 253.905 202.454 254.336 201.961C254.799 201.468 255.138 200.821 255.353 200.019C255.754 198.54 255.955 197.215 255.955 196.043C255.955 194.009 255.307 191.867 254.013 189.617L253.504 188.739C252.919 187.721 252.425 186.812 252.025 186.011C251.624 185.209 251.285 184.346 251.008 183.422C250.638 182.22 250.453 181.018 250.453 179.816C250.453 178.459 250.761 177.042 251.377 175.562C251.686 174.853 252.117 174.283 252.672 173.852C253.258 173.389 253.905 173.158 254.614 173.158C255.169 173.158 255.677 173.343 256.139 173.713C256.633 174.052 256.879 174.468 256.879 174.961C256.879 175.239 256.771 175.454 256.556 175.608C256.34 175.763 256.078 175.84 255.77 175.84C255.431 175.84 255.107 175.747 254.799 175.562C254.121 175.593 253.581 176.194 253.181 177.365C252.841 178.444 252.672 179.338 252.672 180.047C252.672 180.941 252.811 181.85 253.088 182.775C253.365 183.668 253.72 184.485 254.151 185.225L255.169 187.074L256.787 190.126C257.218 190.989 257.557 191.99 257.804 193.131C258.081 194.271 258.22 195.427 258.22 196.598C258.22 198.478 257.788 200.266 256.925 201.961C256.494 202.824 255.877 203.518 255.076 204.042C254.306 204.566 253.443 204.828 252.487 204.828V204.966Z" fill="#FF0000"/>
<path d="M265.343 197.43C265.035 197.43 264.742 197.045 264.465 196.275C264.187 195.473 264.048 194.287 264.048 192.715C264.048 192.16 264.079 191.112 264.141 189.571C264.203 188.43 264.233 187.167 264.233 185.78L264.141 178.198L264.048 170.615C264.048 170.122 264.249 169.706 264.65 169.367C265.05 168.997 265.497 168.812 265.99 168.812C266.298 168.812 266.56 168.92 266.776 169.136C266.992 169.352 267.1 169.629 267.1 169.968C267.1 172.68 266.946 176.364 266.638 181.018C266.298 186.165 266.129 189.848 266.129 192.067C266.129 193.701 266.098 194.888 266.036 195.627C266.006 196.336 265.929 196.814 265.805 197.06C265.713 197.307 265.559 197.43 265.343 197.43ZM264.511 205.336C264.141 205.336 263.787 205.167 263.447 204.828C263.139 204.489 262.985 204.072 262.985 203.579C262.985 203.025 263.17 202.547 263.54 202.146C263.91 201.715 264.357 201.499 264.881 201.499C265.435 201.499 265.882 201.715 266.221 202.146C266.591 202.547 266.776 203.071 266.776 203.718C266.776 204.797 266.021 205.336 264.511 205.336Z" fill="#FF0000"/>
<path d="M285.669 204.966C284.529 204.966 283.959 203.795 283.959 201.453C283.959 199.973 283.311 194.687 282.017 185.595C280.753 176.471 279.952 171.494 279.613 170.662C280.013 169.922 280.553 169.552 281.231 169.552C281.94 169.552 282.602 171.155 283.219 174.36C283.804 177.751 284.298 181.634 284.698 186.011L285.022 189.756C285.207 191.852 285.315 192.915 285.346 192.946L285.808 189.062L286.085 186.658C286.486 183.144 286.748 180.663 286.871 179.215C287.025 177.304 287.102 175.994 287.102 175.285V174.406C287.102 174.067 287.226 173.744 287.472 173.436C287.719 173.127 287.996 172.973 288.304 172.973C289.414 172.973 289.969 173.436 289.969 174.36V175.054C289.969 176.811 290.138 178.706 290.477 180.74C290.847 182.744 291.371 185.148 292.049 187.953C292.481 189.586 292.912 191.574 293.344 193.917C293.436 192.9 293.729 190.434 294.222 186.519C294.715 182.944 295.07 179.908 295.286 177.412C295.532 174.884 295.655 172.526 295.655 170.338C295.655 169.629 295.763 169.136 295.979 168.858C296.226 168.55 296.673 168.396 297.32 168.396C297.69 168.396 298.013 168.519 298.291 168.766C298.599 168.982 298.753 169.275 298.753 169.644C298.753 169.983 298.599 170.338 298.291 170.708C298.291 172.927 298.121 175.531 297.782 178.521C297.443 181.48 297.027 184.3 296.534 186.982C296.041 189.602 295.625 192.422 295.286 195.442C294.947 198.432 294.777 201.067 294.777 203.348C294.777 203.841 294.654 204.227 294.407 204.504C294.191 204.812 293.852 204.966 293.39 204.966C293.051 204.966 292.65 204.334 292.188 203.071C291.602 201.314 290.878 197.816 290.015 192.576L289.183 187.167L288.767 184.162C288.366 186.966 288.058 189.232 287.842 190.958C287.657 192.653 287.472 194.672 287.287 197.014C287.072 199.264 286.964 201.483 286.964 203.672C286.964 203.98 286.825 204.273 286.548 204.55C286.301 204.828 286.008 204.966 285.669 204.966Z" fill="#FF0000"/>
<path d="M306.064 204.92C305.664 204.92 305.294 204.781 304.955 204.504C304.647 204.227 304.477 203.888 304.446 203.487V202.285V201.36C304.415 201.083 304.4 200.759 304.4 200.389C304.4 199.742 304.354 198.756 304.261 197.43L304.169 194.471C304.169 192.961 304.215 190.711 304.307 187.721C304.431 185.04 304.492 182.79 304.492 180.971C304.492 180.54 304.446 179.893 304.354 179.03C304.261 178.136 304.215 177.489 304.215 177.088C304.215 174.9 304.862 173.805 306.157 173.805C307.174 173.805 308.345 174.006 309.67 174.406C311.027 174.807 311.705 175.285 311.705 175.84C311.705 176.148 311.566 176.441 311.289 176.718C311.042 176.965 310.734 177.165 310.364 177.319C309.069 176.857 307.898 176.549 306.85 176.394C306.881 176.857 306.897 177.519 306.897 178.382C306.897 179.615 306.881 180.725 306.85 181.711C306.758 183.191 306.712 184.3 306.712 185.04L306.85 185.78L307.59 185.733C307.837 185.703 308.145 185.687 308.515 185.687C309.994 185.687 310.734 186.119 310.734 186.982C310.734 187.321 310.595 187.614 310.318 187.86C310.04 188.076 309.686 188.184 309.254 188.184C308.7 188.184 308.268 188.153 307.96 188.091H306.804C306.866 188.893 306.897 190.064 306.897 191.605C306.897 193.146 306.881 194.533 306.85 195.766C306.758 197.646 306.712 199.048 306.712 199.973C306.712 201.699 306.742 202.562 306.804 202.562L308.33 202.516C308.854 202.485 309.486 202.47 310.225 202.47C311.397 202.47 311.982 202.84 311.982 203.579C311.982 204.011 311.782 204.334 311.381 204.55C311.011 204.797 310.549 204.92 309.994 204.92H306.064Z" fill="#FF0000"/>
<path d="M333.656 204.319C332.608 204.319 332.084 201.776 332.084 196.691L332.13 194.055L332.176 191.929V191.79V191.328C332.207 191.081 332.223 190.788 332.223 190.449C332.223 190.388 332.176 190.31 332.084 190.218C331.992 190.126 331.945 190.049 331.945 189.987V189.941C331.791 190.002 331.514 190.033 331.113 190.033C330.712 190.033 330.219 189.971 329.634 189.848C329.449 189.817 328.956 189.74 328.154 189.617V194.934C328.154 195.735 328.2 196.999 328.293 198.725C328.385 200.42 328.432 201.684 328.432 202.516C328.432 202.978 328.308 203.379 328.062 203.718C327.815 204.057 327.492 204.227 327.091 204.227C326.505 204.227 326.089 203.656 325.843 202.516C325.596 201.345 325.473 199.819 325.473 197.939L325.565 194.194C325.596 193.146 325.611 192.037 325.611 190.865V190.079V189.432C325.611 188.939 325.596 188.615 325.565 188.461V188.23L325.704 185.549C325.704 184.377 325.658 182.636 325.565 180.324C325.473 178.013 325.426 176.271 325.426 175.1C325.426 174.73 325.55 174.406 325.796 174.129C326.043 173.852 326.351 173.713 326.721 173.713C327.707 173.713 328.2 174.638 328.2 176.487L328.108 182.22C328.046 183.946 328.016 185.872 328.016 187.999C328.478 188.153 329.31 188.23 330.512 188.23H332.223C332.284 188.045 332.315 187.86 332.315 187.675C332.315 186.196 332.223 184.007 332.038 181.11C331.822 178.398 331.714 176.194 331.714 174.499C331.714 174.16 331.837 173.882 332.084 173.667C332.361 173.42 332.685 173.297 333.055 173.297C333.271 173.297 333.579 173.374 333.98 173.528L334.396 173.713C334.396 178.09 334.55 183.93 334.858 191.235L335.274 202.932C335.274 203.364 335.105 203.703 334.766 203.949C334.457 204.196 334.087 204.319 333.656 204.319Z" fill="#FF0000"/>
<path d="M349.932 204.735C349.223 204.735 348.7 204.627 348.36 204.411C348.021 204.196 347.852 203.795 347.852 203.209C347.852 202.285 347.698 200.713 347.39 198.494L347.205 197.523L342.628 196.829C342.443 197.538 342.181 198.971 341.842 201.129C341.657 202.639 341.364 203.641 340.963 204.134C340.747 204.411 340.439 204.55 340.039 204.55C339.669 204.55 339.33 204.442 339.021 204.227C338.713 203.98 338.559 203.687 338.559 203.348L338.652 203.117L338.698 202.932C340.732 195.011 342.273 187.197 343.321 179.492C343.321 179.369 343.337 179.168 343.367 178.891C343.398 178.583 343.429 178.151 343.46 177.596C343.552 176.456 343.645 175.547 343.737 174.869C343.86 174.191 344.045 173.682 344.292 173.343H345.864C346.295 173.343 346.665 173.451 346.973 173.667C347.282 173.852 347.436 174.129 347.436 174.499C347.436 176.841 347.759 180.324 348.407 184.947C349.023 189.694 349.331 193.023 349.331 194.934C349.331 195.119 349.408 195.596 349.563 196.367C349.717 197.076 349.794 197.538 349.794 197.754C349.794 197.97 349.948 198.894 350.256 200.528C350.533 202.007 350.672 202.963 350.672 203.394V203.441C350.672 204.119 350.426 204.55 349.932 204.735ZM346.881 195.858C346.789 195.396 346.742 194.826 346.742 194.148C346.742 191.374 346.496 187.829 346.003 183.514L345.54 178.706C344.215 185.949 343.306 191.42 342.813 195.119C343.275 195.427 344.631 195.673 346.881 195.858Z" fill="#FF0000"/>
<path d="M358.2 204.18C358.2 200.636 357.861 196.968 357.183 193.177C356.536 189.386 355.503 184.747 354.085 179.261C354.024 178.953 353.885 178.475 353.669 177.828C353.114 176.102 352.837 175.007 352.837 174.545C352.837 174.268 352.945 174.021 353.161 173.805C353.407 173.59 353.669 173.482 353.947 173.482C354.409 173.482 354.841 173.867 355.241 174.638C355.642 175.377 356.012 176.379 356.351 177.643C356.69 178.876 357.06 180.417 357.46 182.266C357.83 184.023 358.277 186.72 358.801 190.357L359.079 192.16L359.633 196.275C359.757 197.415 359.864 198.232 359.957 198.725C360.604 195.334 361.436 190.434 362.454 184.023C363.286 178.537 363.871 174.792 364.21 172.788H365.227C365.505 172.788 365.751 172.896 365.967 173.112C366.183 173.297 366.291 173.528 366.291 173.805C366.291 174.915 366.152 176.117 365.875 177.412C365.628 178.675 365.243 180.201 364.719 181.989C364.287 183.53 363.995 184.686 363.84 185.456C363.717 186.227 363.594 187.444 363.471 189.108C363.224 192.838 362.839 196.182 362.315 199.141C361.976 200.929 361.529 202.331 360.974 203.348C360.419 204.365 359.787 204.874 359.079 204.874L358.2 204.18Z" fill="#FF0000"/>
<path d="M373.021 204.92C372.62 204.92 372.25 204.781 371.911 204.504C371.603 204.227 371.433 203.888 371.402 203.487V202.285V201.36C371.372 201.083 371.356 200.759 371.356 200.389C371.356 199.742 371.31 198.756 371.218 197.43L371.125 194.471C371.125 192.961 371.171 190.711 371.264 187.721C371.387 185.04 371.449 182.79 371.449 180.971C371.449 180.54 371.402 179.893 371.31 179.03C371.218 178.136 371.171 177.489 371.171 177.088C371.171 174.9 371.819 173.805 373.113 173.805C374.13 173.805 375.301 174.006 376.627 174.406C377.983 174.807 378.661 175.285 378.661 175.84C378.661 176.148 378.522 176.441 378.245 176.718C377.998 176.965 377.69 177.165 377.32 177.319C376.026 176.857 374.855 176.549 373.807 176.394C373.837 176.857 373.853 177.519 373.853 178.382C373.853 179.615 373.837 180.725 373.807 181.711C373.714 183.191 373.668 184.3 373.668 185.04L373.807 185.78L374.546 185.733C374.793 185.703 375.101 185.687 375.471 185.687C376.95 185.687 377.69 186.119 377.69 186.982C377.69 187.321 377.551 187.614 377.274 187.86C376.997 188.076 376.642 188.184 376.211 188.184C375.656 188.184 375.224 188.153 374.916 188.091H373.76C373.822 188.893 373.853 190.064 373.853 191.605C373.853 193.146 373.837 194.533 373.807 195.766C373.714 197.646 373.668 199.048 373.668 199.973C373.668 201.699 373.699 202.562 373.76 202.562L375.286 202.516C375.81 202.485 376.442 202.47 377.182 202.47C378.353 202.47 378.938 202.84 378.938 203.579C378.938 204.011 378.738 204.334 378.337 204.55C377.968 204.797 377.505 204.92 376.95 204.92H373.021Z" fill="#FF0000"/>
<path d="M411.107 206.723C410.152 206.723 409.674 205.768 409.674 203.857V200.898V197.939C409.674 196.398 409.566 194.379 409.35 191.882C409.104 189.078 408.98 187.151 408.98 186.103L409.073 183.237C409.134 182.405 409.165 181.465 409.165 180.417C409.042 180.817 408.533 182.944 407.64 186.797C406.746 190.526 405.821 193.978 404.866 197.153C403.941 200.204 403.186 201.73 402.6 201.73C402.015 201.73 401.537 201.56 401.167 201.221C400.828 200.852 400.658 200.358 400.658 199.742C400.658 198.386 400.104 195.504 398.994 191.096C397.915 186.689 396.929 183.083 396.035 180.278L395.758 185.502C395.511 189.91 395.342 193.578 395.249 196.506C395.188 199.341 395.157 201.283 395.157 202.331C395.157 202.578 395.172 202.809 395.203 203.025V203.672C395.203 204.196 395.095 204.581 394.879 204.828C394.664 205.105 394.263 205.244 393.677 205.244C393.369 205.244 393.076 205.12 392.799 204.874C392.521 204.658 392.383 204.411 392.383 204.134C392.383 200.99 392.614 196.275 393.076 189.987C393.539 183.699 393.77 178.983 393.77 175.84C393.585 175.562 393.492 175.269 393.492 174.961C393.492 174.591 393.662 174.314 394.001 174.129C394.371 173.913 394.802 173.805 395.295 173.805C395.696 173.805 396.436 175.254 397.515 178.151C398.593 181.049 399.672 184.331 400.751 187.999C401.83 191.667 402.523 194.317 402.831 195.951C403.078 195.119 403.278 194.348 403.432 193.639L403.71 192.53C404.696 188.215 405.682 184.316 406.669 180.833C407.254 178.706 407.825 177.042 408.379 175.84C408.934 174.545 409.443 173.898 409.905 173.898C410.336 173.898 410.722 174.021 411.061 174.268C411.431 174.483 411.616 174.776 411.616 175.146C411.616 177.365 411.708 180.694 411.893 185.132C412.109 189.263 412.217 192.468 412.217 194.749L412.17 197.199L412.078 199.65C412.078 200.019 412.124 200.574 412.217 201.314L412.355 202.932C412.386 203.209 412.402 203.425 412.402 203.579C412.432 203.733 412.448 203.826 412.448 203.857C412.602 204.257 412.679 204.55 412.679 204.735C412.679 205.259 412.525 205.721 412.217 206.122C411.908 206.523 411.539 206.723 411.107 206.723Z" fill="#FF0000"/>
<path d="M420.702 204.273C418.021 204.273 416.68 203.81 416.68 202.886C416.68 202.146 417.158 201.776 418.113 201.776H418.622L419.084 201.822C419.331 201.822 419.5 201.745 419.593 201.591C419.685 201.437 419.732 201.16 419.732 200.759C419.732 200.235 419.701 199.418 419.639 198.309C419.547 197.569 419.439 196.244 419.316 194.333C419.038 189.617 418.899 186.057 418.899 183.653C418.899 182.79 418.915 182.004 418.946 181.295L418.992 178.937C418.992 177.92 418.946 177.073 418.853 176.394C418.36 176.518 418.006 176.579 417.79 176.579C417.05 176.579 416.68 176.209 416.68 175.47C416.68 175.1 416.911 174.776 417.374 174.499C417.836 174.221 418.422 174.021 419.131 173.898C420.363 173.651 421.458 173.528 422.413 173.528C422.783 173.528 423.091 173.667 423.338 173.944C423.615 174.191 423.754 174.483 423.754 174.823C423.754 175.162 423.646 175.454 423.43 175.701C423.245 175.948 422.999 176.071 422.69 176.071C422.506 176.071 422.351 176.055 422.228 176.025H421.858C421.55 176.025 421.319 176.102 421.165 176.256C421.042 176.379 420.98 176.626 420.98 176.995C420.98 179.985 421.165 184.485 421.535 190.495C421.596 191.605 421.72 193.239 421.905 195.396C422.059 196.814 422.136 198.263 422.136 199.742V201.499C422.321 201.468 422.629 201.453 423.06 201.453C424.355 201.453 425.002 201.992 425.002 203.071V203.348L423.846 204.134C423.815 204.134 423.708 204.15 423.523 204.18C423.369 204.18 423.06 204.18 422.598 204.18C421.612 204.242 420.98 204.273 420.702 204.273Z" fill="#FF0000"/>
<path d="M429.653 204.966C429.098 204.874 428.62 204.673 428.219 204.365C427.849 204.057 427.634 203.656 427.572 203.163L428.081 202.377C428.266 202.377 428.558 202.439 428.959 202.562C429.421 202.655 429.776 202.701 430.022 202.701C430.577 202.701 431.07 202.454 431.502 201.961C431.964 201.468 432.303 200.821 432.519 200.019C432.92 198.54 433.12 197.215 433.12 196.043C433.12 194.009 432.473 191.867 431.178 189.617L430.67 188.739C430.084 187.721 429.591 186.812 429.19 186.011C428.79 185.209 428.45 184.346 428.173 183.422C427.803 182.22 427.618 181.018 427.618 179.816C427.618 178.459 427.926 177.042 428.543 175.562C428.851 174.853 429.283 174.283 429.837 173.852C430.423 173.389 431.07 173.158 431.779 173.158C432.334 173.158 432.843 173.343 433.305 173.713C433.798 174.052 434.045 174.468 434.045 174.961C434.045 175.239 433.937 175.454 433.721 175.608C433.505 175.763 433.243 175.84 432.935 175.84C432.596 175.84 432.272 175.747 431.964 175.562C431.286 175.593 430.747 176.194 430.346 177.365C430.007 178.444 429.837 179.338 429.837 180.047C429.837 180.941 429.976 181.85 430.254 182.775C430.531 183.668 430.885 184.485 431.317 185.225L432.334 187.074L433.952 190.126C434.384 190.989 434.723 191.99 434.969 193.131C435.247 194.271 435.385 195.427 435.385 196.598C435.385 198.478 434.954 200.266 434.091 201.961C433.659 202.824 433.043 203.518 432.242 204.042C431.471 204.566 430.608 204.828 429.653 204.828V204.966Z" fill="#FF0000"/>
<path d="M441.075 204.966C440.52 204.874 440.043 204.673 439.642 204.365C439.272 204.057 439.056 203.656 438.995 203.163L439.503 202.377C439.688 202.377 439.981 202.439 440.382 202.562C440.844 202.655 441.199 202.701 441.445 202.701C442 202.701 442.493 202.454 442.925 201.961C443.387 201.468 443.726 200.821 443.942 200.019C444.342 198.54 444.543 197.215 444.543 196.043C444.543 194.009 443.895 191.867 442.601 189.617L442.092 188.739C441.507 187.721 441.014 186.812 440.613 186.011C440.212 185.209 439.873 184.346 439.596 183.422C439.226 182.22 439.041 181.018 439.041 179.816C439.041 178.459 439.349 177.042 439.966 175.562C440.274 174.853 440.705 174.283 441.26 173.852C441.846 173.389 442.493 173.158 443.202 173.158C443.757 173.158 444.265 173.343 444.728 173.713C445.221 174.052 445.467 174.468 445.467 174.961C445.467 175.239 445.359 175.454 445.144 175.608C444.928 175.763 444.666 175.84 444.358 175.84C444.019 175.84 443.695 175.747 443.387 175.562C442.709 175.593 442.169 176.194 441.769 177.365C441.43 178.444 441.26 179.338 441.26 180.047C441.26 180.941 441.399 181.85 441.676 182.775C441.954 183.668 442.308 184.485 442.74 185.225L443.757 187.074L445.375 190.126C445.806 190.989 446.145 191.99 446.392 193.131C446.669 194.271 446.808 195.427 446.808 196.598C446.808 198.478 446.377 200.266 445.514 201.961C445.082 202.824 444.466 203.518 443.664 204.042C442.894 204.566 442.031 204.828 441.075 204.828V204.966Z" fill="#FF0000"/>
<path d="M453.793 204.92C453.392 204.92 453.022 204.781 452.683 204.504C452.375 204.227 452.205 203.888 452.174 203.487V202.285V201.36C452.144 201.083 452.128 200.759 452.128 200.389C452.128 199.742 452.082 198.756 451.989 197.43L451.897 194.471C451.897 192.961 451.943 190.711 452.036 187.721C452.159 185.04 452.221 182.79 452.221 180.971C452.221 180.54 452.174 179.893 452.082 179.03C451.989 178.136 451.943 177.489 451.943 177.088C451.943 174.9 452.59 173.805 453.885 173.805C454.902 173.805 456.073 174.006 457.399 174.406C458.755 174.807 459.433 175.285 459.433 175.84C459.433 176.148 459.294 176.441 459.017 176.718C458.77 176.965 458.462 177.165 458.092 177.319C456.798 176.857 455.626 176.549 454.578 176.394C454.609 176.857 454.625 177.519 454.625 178.382C454.625 179.615 454.609 180.725 454.578 181.711C454.486 183.191 454.44 184.3 454.44 185.04L454.578 185.78L455.318 185.733C455.565 185.703 455.873 185.687 456.243 185.687C457.722 185.687 458.462 186.119 458.462 186.982C458.462 187.321 458.323 187.614 458.046 187.86C457.769 188.076 457.414 188.184 456.983 188.184C456.428 188.184 455.996 188.153 455.688 188.091H454.532C454.594 188.893 454.625 190.064 454.625 191.605C454.625 193.146 454.609 194.533 454.578 195.766C454.486 197.646 454.44 199.048 454.44 199.973C454.44 201.699 454.471 202.562 454.532 202.562L456.058 202.516C456.582 202.485 457.214 202.47 457.953 202.47C459.125 202.47 459.71 202.84 459.71 203.579C459.71 204.011 459.51 204.334 459.109 204.55C458.739 204.797 458.277 204.92 457.722 204.92H453.793Z" fill="#FF0000"/>
<path d="M466.284 204.596C465.482 204.596 465.082 202.578 465.082 198.54L465.174 191.235C465.205 189.078 465.22 186.658 465.22 183.977C465.22 182.99 465.128 181.465 464.943 179.4C464.789 177.15 464.712 175.778 464.712 175.285C464.712 174.884 464.881 174.53 465.22 174.221C465.559 173.913 465.929 173.759 466.33 173.759C467.409 173.759 468.441 174.006 469.427 174.499C470.445 174.961 471.338 175.624 472.109 176.487C473.743 178.367 474.821 180.432 475.345 182.682C475.623 183.822 475.761 184.947 475.761 186.057C475.761 186.458 475.746 186.828 475.715 187.167L475.669 188.415V190.958C475.669 192.93 475.607 194.487 475.484 195.627C475.299 197.168 474.945 198.54 474.421 199.742C473.804 201.037 472.91 202.192 471.739 203.209C471.184 203.672 470.475 204.134 469.612 204.596H466.284ZM468.318 202.239C468.934 202.239 469.505 202.084 470.029 201.776C470.552 201.437 470.999 200.99 471.369 200.435C471.677 199.942 471.955 199.326 472.201 198.586C472.479 197.816 472.679 197.076 472.802 196.367C473.08 194.98 473.249 193.562 473.311 192.114C473.342 191.744 473.357 191.204 473.357 190.495C473.357 181.187 471.554 176.333 467.948 175.932C467.732 177.319 467.624 178.922 467.624 180.74C467.624 182.682 467.748 186.072 467.994 190.912C468.21 195.196 468.318 198.602 468.318 201.129V202.239Z" fill="#FF0000"/>
<path d="M490.062 204.966C489.507 204.874 489.03 204.673 488.629 204.365C488.259 204.057 488.043 203.656 487.982 203.163L488.49 202.377C488.675 202.377 488.968 202.439 489.369 202.562C489.831 202.655 490.185 202.701 490.432 202.701C490.987 202.701 491.48 202.454 491.911 201.961C492.374 201.468 492.713 200.821 492.929 200.019C493.329 198.54 493.53 197.215 493.53 196.043C493.53 194.009 492.882 191.867 491.588 189.617L491.079 188.739C490.494 187.721 490 186.812 489.6 186.011C489.199 185.209 488.86 184.346 488.583 183.422C488.213 182.22 488.028 181.018 488.028 179.816C488.028 178.459 488.336 177.042 488.953 175.562C489.261 174.853 489.692 174.283 490.247 173.852C490.833 173.389 491.48 173.158 492.189 173.158C492.744 173.158 493.252 173.343 493.715 173.713C494.208 174.052 494.454 174.468 494.454 174.961C494.454 175.239 494.346 175.454 494.131 175.608C493.915 175.763 493.653 175.84 493.345 175.84C493.006 175.84 492.682 175.747 492.374 175.562C491.696 175.593 491.156 176.194 490.756 177.365C490.417 178.444 490.247 179.338 490.247 180.047C490.247 180.941 490.386 181.85 490.663 182.775C490.941 183.668 491.295 184.485 491.727 185.225L492.744 187.074L494.362 190.126C494.793 190.989 495.132 191.99 495.379 193.131C495.656 194.271 495.795 195.427 495.795 196.598C495.795 198.478 495.363 200.266 494.5 201.961C494.069 202.824 493.453 203.518 492.651 204.042C491.881 204.566 491.018 204.828 490.062 204.828V204.966Z" fill="#FF0000"/>
<path d="M509.761 204.735C509.052 204.735 508.528 204.627 508.189 204.411C507.85 204.196 507.68 203.795 507.68 203.209C507.68 202.285 507.526 200.713 507.218 198.494L507.033 197.523L502.456 196.829C502.271 197.538 502.009 198.971 501.67 201.129C501.485 202.639 501.192 203.641 500.791 204.134C500.576 204.411 500.267 204.55 499.867 204.55C499.497 204.55 499.158 204.442 498.85 204.227C498.541 203.98 498.387 203.687 498.387 203.348L498.48 203.117L498.526 202.932C500.56 195.011 502.101 187.197 503.149 179.492C503.149 179.369 503.165 179.168 503.195 178.891C503.226 178.583 503.257 178.151 503.288 177.596C503.38 176.456 503.473 175.547 503.565 174.869C503.689 174.191 503.874 173.682 504.12 173.343H505.692C506.124 173.343 506.493 173.451 506.802 173.667C507.11 173.852 507.264 174.129 507.264 174.499C507.264 176.841 507.588 180.324 508.235 184.947C508.851 189.694 509.16 193.023 509.16 194.934C509.16 195.119 509.237 195.596 509.391 196.367C509.545 197.076 509.622 197.538 509.622 197.754C509.622 197.97 509.776 198.894 510.084 200.528C510.362 202.007 510.5 202.963 510.5 203.394V203.441C510.5 204.119 510.254 204.55 509.761 204.735ZM506.709 195.858C506.617 195.396 506.57 194.826 506.57 194.148C506.57 191.374 506.324 187.829 505.831 183.514L505.368 178.706C504.043 185.949 503.134 191.42 502.641 195.119C503.103 195.427 504.459 195.673 506.709 195.858Z" fill="#FF0000"/>
<path d="M527.09 204.458C526.72 204.458 526.443 204.365 526.258 204.18C526.073 203.965 525.934 203.61 525.842 203.117L525.564 202.239V202.146V202.007C525.564 200.99 524.501 197.523 522.374 191.605C520.278 185.687 518.629 181.311 517.427 178.475V201.73L517.612 202.054C517.643 202.115 517.705 202.223 517.797 202.377C517.89 202.531 517.936 202.685 517.936 202.84C517.936 203.24 517.797 203.579 517.52 203.857C517.242 204.134 516.903 204.273 516.503 204.273C515.516 204.273 515.023 203.333 515.023 201.453L514.977 193.547C514.946 191.174 514.931 188.523 514.931 185.595C514.931 184.608 514.977 183.175 515.069 181.295C515.162 179.353 515.208 177.92 515.208 176.995C515.208 175.547 515.763 174.406 516.872 173.574V173.852C517.057 173.79 517.181 173.759 517.242 173.759C517.951 173.759 518.845 174.992 519.924 177.458C520.787 179.43 521.557 181.511 522.235 183.699C522.944 185.888 523.869 189.001 525.009 193.038L525.472 194.703C526.181 197.199 526.72 198.987 527.09 200.066C527.706 193.439 528.015 185.61 528.015 176.579V175.978C527.984 175.793 527.968 175.593 527.968 175.377C527.968 174.453 528.338 173.99 529.078 173.99C529.509 173.99 529.833 174.16 530.049 174.499C530.295 174.838 530.419 175.269 530.419 175.793V179.261C530.357 184.007 530.172 189.155 529.864 194.703C529.556 200.251 529.186 203.379 528.754 204.088C527.86 204.334 527.306 204.458 527.09 204.458Z" fill="#FF0000"/>
<path d="M539.18 203.579L539.134 201.776C539.103 201.252 539.088 200.667 539.088 200.019L539.134 198.447C539.042 198.108 538.811 194.733 538.441 188.322C538.071 181.912 537.855 177.797 537.794 175.978C536.006 175.917 534.865 175.732 534.372 175.424C534.033 175.177 533.864 174.9 533.864 174.591C533.864 174.345 534.018 174.129 534.326 173.944C534.665 173.728 535.004 173.62 535.343 173.62C536.206 173.62 537.254 173.682 538.487 173.805C539.658 173.96 540.706 174.037 541.631 174.037H542.001H542.371C543.326 174.037 543.804 174.406 543.804 175.146C543.804 175.516 543.65 175.824 543.341 176.071C543.033 176.287 542.679 176.394 542.278 176.394C542.001 176.394 541.6 176.348 541.076 176.256L540.151 176.071L540.105 176.302L540.059 176.533C540.059 179.276 540.321 183.653 540.845 189.663C541.338 195.304 541.585 199.68 541.585 202.793C541.585 203.163 541.415 203.487 541.076 203.764C540.768 204.042 540.413 204.18 540.013 204.18L539.18 203.579Z" fill="#FF0000"/>
<path d="M557.528 204.735C556.819 204.735 556.296 204.627 555.956 204.411C555.617 204.196 555.448 203.795 555.448 203.209C555.448 202.285 555.294 200.713 554.986 198.494L554.801 197.523L550.224 196.829C550.039 197.538 549.777 198.971 549.438 201.129C549.253 202.639 548.96 203.641 548.559 204.134C548.343 204.411 548.035 204.55 547.635 204.55C547.265 204.55 546.926 204.442 546.617 204.227C546.309 203.98 546.155 203.687 546.155 203.348L546.248 203.117L546.294 202.932C548.328 195.011 549.869 187.197 550.917 179.492C550.917 179.369 550.933 179.168 550.963 178.891C550.994 178.583 551.025 178.151 551.056 177.596C551.148 176.456 551.241 175.547 551.333 174.869C551.456 174.191 551.641 173.682 551.888 173.343H553.46C553.891 173.343 554.261 173.451 554.57 173.667C554.878 173.852 555.032 174.129 555.032 174.499C555.032 176.841 555.355 180.324 556.003 184.947C556.619 189.694 556.927 193.023 556.927 194.934C556.927 195.119 557.004 195.596 557.159 196.367C557.313 197.076 557.39 197.538 557.39 197.754C557.39 197.97 557.544 198.894 557.852 200.528C558.129 202.007 558.268 202.963 558.268 203.394V203.441C558.268 204.119 558.022 204.55 557.528 204.735ZM554.477 195.858C554.385 195.396 554.338 194.826 554.338 194.148C554.338 191.374 554.092 187.829 553.599 183.514L553.136 178.706C551.811 185.949 550.902 191.42 550.409 195.119C550.871 195.427 552.227 195.673 554.477 195.858Z" fill="#FF0000"/>
<path d="M574.47 182.867C574.069 182.867 573.715 182.697 573.407 182.358C573.099 182.019 572.944 181.634 572.944 181.203C572.944 180.74 573.114 180.324 573.453 179.954C573.792 179.584 574.193 179.4 574.655 179.4C575.087 179.4 575.472 179.584 575.811 179.954C576.15 180.324 576.319 180.725 576.319 181.156C576.319 181.65 576.135 182.066 575.765 182.405C575.426 182.713 574.994 182.867 574.47 182.867ZM574.008 200.343C573.607 200.343 573.253 200.173 572.944 199.834C572.636 199.495 572.482 199.11 572.482 198.679C572.482 198.216 572.652 197.8 572.991 197.43C573.33 197.06 573.73 196.876 574.193 196.876C574.624 196.876 574.994 197.06 575.302 197.43C575.641 197.769 575.811 198.17 575.811 198.632C575.811 199.126 575.641 199.542 575.302 199.881C574.963 200.189 574.532 200.343 574.008 200.343Z" fill="#FF0000"/>
<path d="M591.579 212.456C590.747 212.456 589.961 211.624 589.221 209.959C588.05 207.185 587.018 202.547 586.124 196.043C585.785 193.485 585.523 191.174 585.338 189.108C585.184 187.013 585.107 185.456 585.107 184.439C585.107 183.576 585.214 182.235 585.43 180.417C585.677 178.598 586 176.703 586.401 174.73C586.74 172.788 587.264 171.001 587.973 169.367C588.651 167.826 589.36 167.055 590.1 167.055H590.285L591.117 167.703C591.117 168.596 590.778 169.675 590.1 170.939L589.452 172.372C588.805 174.006 588.297 175.901 587.927 178.059C587.588 180.216 587.418 182.358 587.418 184.485C587.418 188.924 587.696 193.192 588.25 197.292C588.836 201.36 589.714 204.673 590.886 207.232C591.04 207.602 591.271 208.048 591.579 208.572C592.257 209.836 592.689 210.822 592.874 211.531L592.827 211.485C592.55 212.132 592.134 212.456 591.579 212.456Z" fill="#FF0000"/>
<defs>
<clipPath id="clip0">
<rect width="490.888" height="156.983" fill="white" transform="translate(115.082)"/>
</clipPath>
</defs>
</svg>
