<svg width="2057" height="2308" viewBox="0 0 2057 2308" fill="none" xmlns="http://www.w3.org/2000/svg">
<path d="M117.868 2018.74C131.149 2018 143.323 2013.21 154.391 2004.35H151.624C138.712 2004.35 127.46 2009.15 117.868 2018.74ZM223.009 2084.59C224.854 2077.95 226.883 2071.49 229.096 2065.22C234.63 2051.57 237.397 2037.19 237.397 2022.06L236.843 2010.44C226.883 2029.25 221.902 2048.99 221.902 2069.65C221.902 2074.45 222.271 2079.43 223.009 2084.59ZM258.978 1905.85C266.725 1890.73 270.599 1875.05 270.599 1858.82V1856.6C262.852 1871.36 258.978 1887.04 258.978 1903.64V1905.85ZM356.372 1713.83C365.963 1713.83 372.973 1711.25 377.4 1706.08H373.526C366.517 1706.08 360.061 1708.67 354.158 1713.83H356.372ZM388.467 1706.64C391.05 1706.64 393.816 1705.72 396.768 1703.87C394.923 1703.13 393.079 1702.76 391.234 1702.76C390.865 1702.76 389.943 1702.95 388.467 1703.32C386.992 1703.32 385.331 1703.69 383.487 1704.42C382.011 1705.16 380.72 1705.72 379.613 1706.08L388.467 1706.64ZM614.243 1693.36C614.612 1693.36 615.719 1692.43 617.563 1690.59C617.194 1690.59 616.825 1690.41 616.456 1690.04C616.088 1689.3 615.719 1688.93 615.35 1688.93C614.981 1688.56 614.612 1688.19 614.243 1687.82C611.292 1687.82 609.816 1688.56 609.816 1690.04C609.816 1692.25 611.292 1693.36 614.243 1693.36ZM250.124 2300.96C248.649 2300.96 246.804 2300.04 244.59 2298.19L229.096 2287.68C218.398 2280.67 207.515 2274.03 196.447 2267.76C168.778 2251.52 153.469 2227.55 150.517 2195.82C148.673 2179.96 147.75 2164.09 147.75 2148.23C147.75 2119.45 150.333 2092.89 155.498 2068.54C157.711 2056 158.818 2047.51 158.818 2043.09C158.818 2032.76 154.575 2027.59 146.09 2027.59C138.343 2027.59 123.218 2032.21 100.714 2041.43L76.3653 2050.84C71.2005 2054.16 66.4046 2055.82 61.9777 2055.82C54.2305 2055.82 42.0563 2047.51 25.4551 2030.91C23.2416 2028.7 21.2126 2026.67 19.368 2024.83C17.5234 2022.98 16.6012 2021.14 16.6012 2019.29C16.6012 2014.13 23.795 2009.15 38.1827 2004.35C52.2014 1998.45 66.0357 1992.36 79.6856 1986.09C106.247 1973.92 133.178 1963.03 160.478 1953.44C171.914 1950.12 179.293 1942.37 182.613 1930.2C191.098 1892.94 200.321 1855.86 210.281 1818.97C211.388 1814.91 212.31 1810.67 213.048 1806.24C213.048 1804.77 213.233 1803.48 213.602 1802.37C214.339 1799.42 214.708 1796.47 214.708 1793.52C214.339 1790.93 212.864 1788.72 210.281 1786.88C207.699 1784.66 205.117 1783.56 202.534 1783.56C198.845 1783.56 178.37 1793.15 141.11 1812.33L128.936 1818.42C124.509 1821 120.266 1822.29 116.208 1822.29C113.626 1822.29 110.859 1821.92 107.908 1821.19C124.878 1806.8 142.954 1795.36 162.138 1786.88C179.477 1779.5 195.34 1769.91 209.728 1758.1C173.574 1768.06 139.819 1783.19 108.461 1803.48C94.8111 1811.23 80.9768 1818.79 66.958 1826.17C69.1715 1830.96 72.3073 1833.36 76.3653 1833.36C77.841 1833.36 79.5011 1833.18 81.3457 1832.81C82.8214 1832.07 84.4815 1831.52 86.326 1831.15C88.1706 1831.15 90.0152 1831.7 91.8598 1832.81C84.4815 1843.51 75.0741 1851.81 63.6378 1857.71C56.6284 1861.77 51.0947 1863.8 47.0366 1863.8C41.8718 1863.8 35.4158 1860.11 27.6686 1852.73L19.9214 1846.64C6.64046 1837.42 0 1829.67 0 1823.4V1820.08C0 1816.39 30.4355 1797.02 91.3064 1761.97C158.449 1718.44 235.552 1687.09 322.616 1667.9C399.35 1651.3 467.415 1643 526.81 1643C542.305 1643 557.799 1643.55 573.293 1644.66C610.185 1645.77 638.038 1662 656.853 1693.36C659.804 1698.89 663.493 1704.06 667.92 1708.85L675.114 1718.81C675.483 1718.81 675.667 1719 675.667 1719.37C682.308 1727.85 685.628 1734.86 685.628 1740.39C685.628 1744.08 684.521 1748.14 682.308 1752.57L678.988 1750.91C661.28 1744.64 646.339 1734.12 634.164 1719.37C628.262 1711.25 621.252 1706.27 613.136 1704.42C608.34 1703.69 603.36 1703.32 598.195 1703.32C590.817 1703.32 586.205 1703.5 584.361 1703.87C582.516 1704.24 580.672 1704.42 578.827 1704.42C575.138 1704.42 571.08 1704.24 566.653 1703.87C562.226 1703.5 557.43 1701.29 552.265 1697.23C554.479 1694.28 558.721 1692.43 564.993 1691.7C571.264 1691.7 576.06 1690.04 579.381 1686.72H578.274C553.188 1683.77 528.47 1682.29 504.122 1682.29C479.774 1682.29 454.687 1686.53 428.863 1695.02C435.873 1697.6 442.513 1698.89 448.785 1698.89C452.474 1698.89 455.979 1698.52 459.299 1697.78C464.464 1697.05 469.628 1696.68 474.793 1696.68C479.589 1697.05 484.385 1699.08 489.181 1702.76C480.696 1707.56 471.473 1710.33 461.512 1711.06C418.718 1718.44 377.4 1728.03 337.557 1739.84C330.179 1742.05 324.645 1744.08 320.956 1745.93C317.636 1747.77 315.422 1750.72 314.315 1754.78C313.209 1758.47 312.286 1764.19 311.548 1771.94C308.597 1802.19 303.986 1832.25 297.714 1862.14C294.763 1875.05 293.287 1886.3 293.287 1895.89C293.287 1903.64 296.423 1907.51 302.695 1907.51C308.597 1907.51 327.412 1904.19 359.138 1897.55C363.565 1896.81 367.439 1896.44 370.759 1896.44C388.467 1896.44 397.321 1906.96 397.321 1927.99C397.321 1929.83 397.137 1931.31 396.768 1932.41C396.399 1933.52 396.214 1934.44 396.214 1935.18C396.214 1937.39 397.321 1938.87 399.535 1939.61C405.437 1941.82 408.389 1944.03 408.389 1946.25C408.389 1947.35 407.466 1948.65 405.622 1950.12C396.768 1957.13 384.594 1961.19 369.099 1962.3C344.013 1965.98 319.48 1971.7 295.501 1979.45C282.589 1982.77 274.657 1990.89 271.706 2003.8C250.309 2078.32 239.61 2154.32 239.61 2231.79V2237.87C239.61 2255.58 244.406 2272 253.998 2287.13C255.473 2289.71 256.211 2292.11 256.211 2294.32C256.211 2296.16 255.473 2297.64 253.998 2298.75C252.522 2300.22 251.231 2300.96 250.124 2300.96Z" fill="#EC703C"/>
<path d="M656.853 2043.64C652.795 2043.64 650.397 2038.48 649.659 2028.15L650.212 2023.72C650.212 2019.29 649.474 2015.79 647.999 2013.21L645.232 2008.78L639.698 2017.63C635.64 2026.86 632.135 2032.57 629.184 2034.79C627.339 2035.89 625.126 2036.45 622.544 2036.45C620.33 2036.45 617.932 2036.08 615.35 2035.34C600.593 2031.65 593.215 2023.72 593.215 2011.55C593.584 2006.75 594.322 2001.22 595.428 1994.94C595.797 1994.58 595.982 1994.02 595.982 1993.28C598.933 1978.9 603.176 1971.7 608.709 1971.7C612.767 1971.7 619.223 1975.39 628.077 1982.77C639.883 1991.62 649.105 1997.34 655.746 1999.92C662.755 2002.14 666.26 2005.64 666.26 2010.44C666.26 2025.56 664.046 2036.08 659.62 2041.98C658.513 2043.09 657.59 2043.64 656.853 2043.64ZM797.409 2025.38L796.856 2024.27V2025.38H797.409ZM573.847 2148.78C577.167 2148.78 581.594 2147.68 587.128 2145.46L589.341 2144.91C591.555 2144.17 593.768 2143.06 595.982 2141.59C650.581 2110.97 691.715 2067.81 719.384 2012.1C728.607 1993.65 733.218 1975.95 733.218 1958.98C733.218 1944.96 729.713 1930.75 722.704 1916.37L720.49 1912.49C716.063 1903.27 710.714 1895.34 704.443 1888.7C699.278 1883.53 692.084 1880.95 682.861 1880.95L675.114 1881.5C673.269 1881.5 669.949 1880.4 665.153 1878.18C655.561 1873.76 648.368 1871.54 643.572 1871.54C642.465 1871.54 640.436 1871.91 637.485 1872.65C634.902 1873.39 630.475 1878.37 624.204 1887.59C594.691 1927.43 575.138 1971.7 565.546 2020.4L564.993 2022.61C559.828 2043.64 557.246 2065.04 557.246 2086.8L558.352 2100.64C559.09 2110.97 560.197 2121.67 561.673 2132.73C563.148 2143.43 567.206 2148.78 573.847 2148.78ZM527.917 2082.93C529.762 2078.5 530.868 2073.89 531.237 2069.1C534.557 2015.6 547.469 1964.69 569.973 1916.37L576.614 1901.42C569.604 1905.48 564.44 1911.2 561.119 1918.58C543.411 1953.63 531.422 1990.33 525.15 2028.7C524.043 2035.71 523.49 2042.72 523.49 2049.73C523.49 2060.8 524.966 2071.86 527.917 2082.93ZM577.167 1901.42L577.72 1900.32H577.167C577.167 1901.06 576.983 1901.42 576.614 1901.42H577.167ZM578.274 1899.76C589.341 1890.17 595.797 1880.03 597.642 1869.33C584.361 1877.08 577.72 1886.85 577.72 1898.66L578.274 1899.76ZM707.763 2151.55C708.87 2150.81 710.161 2150.26 711.636 2149.89C713.112 2149.52 714.403 2148.97 715.51 2148.23C750.188 2119.82 776.197 2085.14 793.536 2044.19C795.011 2040.14 795.933 2035.71 796.302 2030.91C796.302 2029.07 796.487 2027.41 796.856 2025.93L794.642 2027.04C792.06 2027.78 790.4 2029.07 789.662 2030.91C772.692 2070.39 748.159 2104.14 716.063 2132.18C710.161 2137.35 707.21 2142.14 707.21 2146.57L707.763 2151.55ZM796.856 2024.27C802.39 2018.37 805.156 2011.18 805.156 2002.69C805.156 1997.53 804.05 1991.62 801.836 1984.98C797.778 1995.68 795.749 2005.27 795.749 2013.76C795.749 2017.45 796.118 2020.95 796.856 2024.27ZM635.271 2198.03C613.505 2198.03 593.03 2196.93 573.847 2194.71C573.109 2193.24 568.682 2190.47 560.566 2186.41C541.382 2176.82 529.577 2171.1 525.15 2169.26C483.463 2152.29 461.881 2120.56 460.406 2074.08L459.852 2053.05C459.852 1969.67 488.628 1896.08 546.178 1832.25C551.343 1827.09 557.061 1822.29 563.333 1817.87C577.72 1806.43 589.71 1800.53 599.302 1800.16C608.894 1800.16 621.621 1804.95 637.485 1814.55C652.241 1822.66 666.629 1831.52 680.648 1841.11C700.2 1855.13 721.044 1867.48 743.179 1878.18C768.634 1889.99 790.769 1906.96 809.583 1929.09C826.922 1949.75 835.592 1973.18 835.592 1999.37C835.592 2042.17 821.389 2078.69 792.982 2108.94L794.089 2106.17C794.089 2105.43 793.904 2104.7 793.536 2103.96C793.167 2103.22 792.613 2102.85 791.875 2102.85C788.186 2103.59 785.419 2105.43 783.575 2108.39C781.73 2110.97 779.701 2116.13 777.488 2123.88L786.342 2118.35C776.381 2131.63 765.498 2143.99 753.693 2155.42C744.101 2165.01 739.305 2170.18 739.305 2170.92C720.49 2188.99 685.812 2198.03 635.271 2198.03Z" fill="#EC703C"/>
<path d="M1062.47 1939.05C1066.53 1936.84 1069.67 1933.52 1071.88 1929.09C1078.52 1918.39 1086.82 1908.8 1096.78 1900.32C1110.06 1888.14 1122.79 1875.6 1134.97 1862.69C1163.37 1832.07 1185.88 1809.38 1202.48 1794.62C1221.29 1778.02 1238.82 1760.5 1255.05 1742.05C1256.15 1740.95 1256.89 1739.66 1257.26 1738.18C1257.26 1734.86 1255.05 1733.2 1250.62 1733.2C1241.4 1735.78 1230.88 1743.53 1219.08 1756.44C1202.11 1771.94 1189.2 1785.22 1180.34 1796.28C1144.19 1840.55 1117.63 1869.51 1100.66 1883.16C1098.07 1885.01 1095.68 1887.22 1093.46 1889.8C1070.96 1916 1058.79 1931.31 1056.94 1935.73C1056.94 1936.47 1057.13 1937.21 1057.49 1937.95C1058.23 1938.32 1058.6 1938.69 1058.6 1939.05H1062.47ZM1086.82 1950.12C1087.56 1949.38 1087.93 1948.83 1087.93 1948.46C1087.93 1948.09 1087.75 1947.91 1087.38 1947.91L1086.27 1949.01L1086.82 1950.12ZM1067.45 2053.05L1071.33 2051.39C1070.59 2049.91 1069.85 2048.25 1069.11 2046.41C1068.75 2044.19 1067.82 2041.98 1066.35 2039.77C1064.87 2037.55 1062.11 2035.89 1058.05 2034.79C1058.79 2035.89 1059.34 2037.55 1059.71 2039.77C1060.45 2041.61 1061.18 2043.46 1061.92 2045.3C1063.03 2047.15 1064.13 2048.81 1065.24 2050.28C1066.35 2051.39 1067.09 2052.31 1067.45 2053.05ZM1085.72 2079.61V2078.5C1085.35 2077.4 1084.98 2076.47 1084.61 2075.74C1084.61 2074.63 1084.42 2073.89 1084.06 2073.52C1083.32 2073.52 1082.76 2073.89 1082.4 2074.63V2076.29L1085.72 2079.61ZM1170.94 2195.82L1163.19 2185.86C1156.92 2179.59 1152.31 2172.39 1149.35 2164.28C1148.25 2161.69 1147.14 2160.22 1146.03 2159.85C1134.6 2149.52 1123.16 2134.58 1111.72 2115.03C1103.61 2101.01 1095.12 2089.57 1086.27 2080.72C1098.07 2108.75 1112.09 2132.92 1128.33 2153.21C1133.49 2159.85 1138.29 2166.67 1142.71 2173.68C1148.98 2182.91 1158.39 2190.28 1170.94 2195.82ZM978.915 1888.7C979.284 1888.7 979.653 1888.51 980.022 1888.14C980.76 1887.77 981.682 1887.59 982.789 1887.59V1882.06L958.994 1827.83C958.256 1827.46 957.703 1826.9 957.334 1826.17C956.965 1825.43 956.411 1824.87 955.674 1824.51C952.353 1824.51 950.693 1826.54 950.693 1830.59L958.44 1847.75C962.867 1860.66 968.401 1872.83 975.042 1884.27C976.148 1886.11 977.44 1887.59 978.915 1888.7ZM872.114 2236.21C874.328 2236.21 876.357 2232.89 878.201 2226.25C880.784 2217.77 884.657 2206.7 889.822 2193.05C893.511 2183.83 898.123 2177.56 903.657 2174.24C911.404 2168.33 917.491 2160.96 921.918 2152.1C925.607 2146.57 927.452 2141.77 927.452 2137.71C927.452 2135.5 927.083 2133.47 926.345 2131.63C925.607 2129.41 925.238 2127.57 925.238 2126.09C925.238 2123.14 926.529 2120.74 929.112 2118.9C939.81 2113 946.266 2103.77 948.48 2091.23C949.586 2086.8 952.538 2082.01 957.334 2076.84C965.45 2066.15 969.508 2056.92 969.508 2049.18C969.508 2046.22 967.663 2044.56 963.974 2044.19C960.654 2045.67 957.703 2047.88 955.12 2050.84C937.043 2077.77 919.151 2101.93 901.443 2123.33C899.967 2132.55 897.016 2141.22 892.589 2149.34C882.997 2168.15 875.435 2187.89 869.901 2208.55C868.056 2214.45 867.134 2220.54 867.134 2226.81C867.134 2233.08 868.794 2236.21 872.114 2236.21ZM898.676 2195.27V2194.16L897.57 2194.71L898.676 2195.27ZM894.249 2126.09C896.463 2125.72 898.123 2125.17 899.23 2124.43C900.336 2123.7 901.074 2123.33 901.443 2123.33C899.599 2121.48 897.938 2120.56 896.463 2120.56C893.143 2120.56 891.482 2121.67 891.482 2123.88C891.482 2125.36 892.405 2126.09 894.249 2126.09ZM903.103 2107.83L904.763 2105.07C903.288 2105.07 902.365 2104.88 901.996 2104.51C901.628 2104.51 901.443 2104.7 901.443 2105.07C901.443 2105.07 901.259 2105.25 900.89 2105.62C900.89 2105.62 900.89 2105.8 900.89 2106.17L903.103 2107.83ZM899.23 2277.72C898.123 2277.72 897.016 2277.35 895.909 2276.61C884.473 2268.49 872.299 2261.85 859.387 2256.69C849.795 2252.26 840.388 2247.47 831.165 2242.3C827.476 2239.72 823.602 2237.32 819.544 2235.11C806.632 2227.36 800.176 2216.11 800.176 2201.35C800.176 2189.92 802.943 2177.56 808.477 2164.28C830.611 2107.83 868.61 2044.93 922.471 1975.58C928.374 1969.31 931.325 1963.59 931.325 1958.42C931.325 1953.26 927.821 1944.59 920.811 1932.41C903.841 1898.1 888.716 1862.14 875.435 1824.51C872.114 1816.76 870.454 1809.2 870.454 1801.82C870.454 1789.64 877.833 1783.56 892.589 1783.56C899.23 1783.56 905.686 1784.48 911.957 1786.32C919.704 1789.27 927.452 1790.75 935.199 1790.75L954.013 1788.54C961.023 1788.54 966.557 1792.41 970.615 1800.16L971.168 1802.37C975.226 1810.49 979.837 1815.65 985.002 1817.87C986.847 1819.34 988.507 1821.74 989.983 1825.06C1002.16 1853.47 1010.64 1867.67 1015.44 1867.67C1018.76 1867.67 1028.72 1859 1045.32 1841.66C1051.22 1836.13 1063.77 1823.58 1082.95 1804.03C1131.65 1755.33 1173.52 1716.05 1208.56 1686.16C1221.11 1676.94 1231.62 1672.33 1240.11 1672.33C1248.22 1672.7 1257.26 1677.49 1267.22 1686.72C1275.71 1695.2 1286.04 1701.66 1298.21 1706.08C1306.33 1708.3 1310.39 1712.72 1310.39 1719.37C1310.39 1725.64 1302.64 1735.41 1287.14 1748.69C1285.67 1749.8 1284.19 1751.09 1282.72 1752.57C1281.61 1753.67 1280.32 1754.23 1278.84 1754.23C1277.37 1754.23 1275.89 1753.49 1274.42 1752.01C1267.78 1754.23 1262.06 1758.29 1257.26 1764.19C1256.89 1764.19 1256.34 1764.56 1255.6 1765.3C1255.23 1766.03 1254.68 1766.77 1253.94 1767.51C1253.57 1768.25 1253.39 1768.98 1253.39 1769.72L1253.94 1775.26C1253.94 1781.53 1249.7 1784.66 1241.21 1784.66C1236.42 1784.66 1227.38 1792.78 1214.1 1809.01L1212.99 1809.56C1206.35 1816.21 1203.03 1822.11 1203.03 1827.27L1203.58 1832.81C1203.58 1836.5 1200.45 1840.55 1194.18 1844.98C1193.07 1845.72 1191.78 1846.64 1190.3 1847.75C1189.2 1848.85 1187.91 1849.41 1186.43 1849.41C1185.32 1849.41 1184.03 1849.04 1182.56 1848.3C1174.81 1850.88 1169.64 1856.05 1167.06 1863.8C1157.84 1867.12 1150.64 1873.02 1145.48 1881.5C1144.74 1882.98 1144.37 1884.45 1144.37 1885.93C1144.37 1888.14 1145.48 1890.17 1147.69 1892.02C1131.83 1911.57 1115.41 1930.38 1098.44 1948.46C1082.58 1965.43 1074.65 1977.05 1074.65 1983.32C1074.65 1987.75 1078.34 1996.24 1085.72 2008.78C1103.79 2039.03 1128.14 2078.87 1158.76 2128.31C1187.17 2176.27 1212.81 2203.2 1235.68 2209.1C1241.21 2210.21 1243.98 2213.16 1243.98 2217.95C1243.98 2226.07 1238.63 2230.13 1227.93 2230.13L1215.76 2229.57C1205.8 2229.57 1195.65 2230.31 1185.32 2231.79C1184.95 2232.16 1184.4 2232.34 1183.66 2232.34C1158.95 2235.29 1142.53 2236.77 1134.41 2236.77C1114.12 2236.77 1091.25 2219.8 1065.79 2185.86C1049.93 2166.67 1035.73 2146.2 1023.18 2124.43C1007.69 2098.61 998.099 2085.51 994.41 2085.14C991.458 2085.14 987.769 2087.73 983.342 2092.89C981.129 2097.32 978.546 2099.9 975.595 2100.64C975.595 2098.43 976.517 2095.47 978.362 2091.78C980.944 2089.2 982.235 2086.8 982.235 2084.59C982.235 2082.75 981.313 2081.82 979.469 2081.82C978.731 2081.82 977.44 2082.75 975.595 2084.59C975.595 2084.96 975.411 2085.14 975.042 2085.14C953.645 2112.81 933.539 2146.02 914.724 2184.75C902.181 2212.79 895.909 2231.42 895.909 2240.64C895.909 2245.81 897.385 2250.05 900.336 2253.37C903.288 2256.32 905.132 2260.19 905.87 2264.99C906.608 2266.1 906.977 2267.57 906.977 2269.42C906.977 2270.16 906.608 2271.08 905.87 2272.18C905.132 2273.66 904.21 2274.95 903.103 2276.06C901.996 2277.16 900.705 2277.72 899.23 2277.72Z" fill="#EC703C"/>
<path d="M1565.49 2017.63C1553.68 2017.63 1541.88 2017.08 1530.07 2015.97C1511.63 2014.5 1481.56 2013.76 1439.87 2013.76L1373.47 2014.31C1354.29 2014.31 1335.1 2014.13 1315.92 2013.76H1312.6C1301.53 2013.76 1291.57 2008.96 1282.72 1999.37C1276.81 1992.36 1270.36 1986.09 1263.35 1980.56L1252.83 1971.15C1248.04 1966.72 1245.64 1962.66 1245.64 1958.98C1245.64 1952.7 1247.85 1949.57 1252.28 1949.57L1256.15 1950.12L1291.02 1948.46C1309.46 1947.72 1327.91 1946.8 1346.35 1945.69C1366.64 1944.22 1386.93 1943.11 1407.23 1942.37C1437.85 1941.27 1468.47 1939.05 1499.08 1935.73L1514.03 1935.18C1516.61 1935.18 1519.19 1935.36 1521.77 1935.73C1524.72 1935.73 1529.7 1935.73 1536.71 1935.73C1544.09 1935.73 1549.81 1935.73 1553.87 1935.73H1566.6C1579.51 1935.73 1589.47 1942.93 1596.48 1957.32L1599.8 1963.4C1604.96 1975.58 1611.97 1985.35 1620.83 1992.73C1624.88 1994.94 1626.91 1998.63 1626.91 2003.8L1626.36 2008.78C1625.25 2014.68 1604.96 2017.63 1565.49 2017.63Z" fill="#EC703C"/>
<path d="M1750.87 2092.89V2074.08C1750.87 2018.37 1752.34 1962.66 1755.3 1906.96C1745.7 1950.12 1740.91 1987.57 1740.91 2019.29C1740.91 2044.01 1744.23 2068.54 1750.87 2092.89ZM2006.53 2260.01L2003.76 2206.89C2003.76 2123.14 2010.77 2047.15 2024.79 1978.9C2026.63 1969.31 2027.56 1959.53 2027.56 1949.57C2027.56 1941.82 2027 1933.89 2025.9 1925.77C2016.67 1948.65 2009.29 1983.51 2003.76 2030.36C1998.23 2077.21 1995.46 2122.96 1995.46 2167.6C1995.46 2212.24 1999.15 2243.04 2006.53 2260.01ZM1918.54 2023.17C1926.66 2017.26 1930.72 2010.99 1930.72 2004.35V2000.48L1928.5 2003.25C1921.86 2009.15 1918.54 2015.79 1918.54 2023.17ZM1852.69 2137.71C1867.82 2124.43 1879.99 2109.12 1889.21 2091.78C1898.8 2074.08 1903.6 2057.84 1903.6 2043.09V2041.43C1885.15 2063.93 1868.18 2096.03 1852.69 2137.71ZM1822.25 2176.45C1836.64 2167.97 1846.23 2155.98 1851.03 2140.48L1847.16 2143.8C1833.88 2154.5 1825.57 2165.38 1822.25 2176.45ZM2032.54 2305.94C2029.95 2305.94 2027.92 2305.57 2026.45 2304.83C2025.34 2304.46 2024.42 2304.28 2023.68 2304.28L2017.04 2301.51C2011.51 2299.67 2005.97 2298.19 2000.44 2297.09C1982.36 2293.4 1969.08 2285.65 1960.6 2273.84C1945.1 2252.45 1937.36 2216.11 1937.36 2164.83C1937.36 2154.13 1938.09 2138.08 1939.57 2116.69C1939.94 2104.51 1940.12 2097.5 1940.12 2095.66C1940.49 2093.44 1940.68 2091.42 1940.68 2089.57C1940.68 2082.93 1939.2 2077.21 1936.25 2072.42L1925.73 2084.04C1913.93 2095.84 1905.26 2109.86 1899.73 2126.09C1890.13 2154.13 1872.98 2176.82 1848.26 2194.16C1839.41 2201.17 1830 2204.67 1820.04 2204.67C1815.24 2204.67 1810.26 2203.75 1805.1 2201.91C1787.02 2194.9 1768.58 2188.26 1749.76 2181.98L1728.73 2174.79C1715.82 2169.63 1706.6 2160.4 1701.07 2147.12C1688.89 2118.72 1682.25 2089.02 1681.14 2058.03C1679.67 2041.43 1678.93 2024.64 1678.93 2007.67C1678.93 1952.7 1686.49 1898.1 1701.62 1843.87C1706.78 1824.32 1715.82 1814.55 1728.73 1814.55C1736.11 1814.55 1744.97 1817.68 1755.3 1823.95C1763.78 1829.12 1771.9 1832.99 1779.64 1835.57C1791.45 1840 1797.35 1845.53 1797.35 1852.17C1797.35 1855.13 1796.61 1859.18 1795.14 1864.35C1794.03 1869.14 1793.11 1874.31 1792.37 1879.84C1790.9 1892.76 1786.47 1905.11 1779.09 1916.92C1775.03 1923.56 1773 1931.86 1773 1941.82C1773 1945.88 1773.37 1949.75 1774.11 1953.44C1775.59 1966.35 1776.32 1979.08 1776.32 1991.62C1776.32 1997.9 1775.96 2004.54 1775.22 2011.55C1774.85 2018.19 1774.66 2025.01 1774.66 2032.02C1774.66 2060.43 1775.77 2078.87 1777.98 2087.36C1779.09 2093.26 1782.78 2096.21 1789.05 2096.21C1794.22 2096.21 1799.57 2089.94 1805.1 2077.4C1806.94 2073.34 1846.42 2003.06 1923.52 1866.56C1930.9 1853.28 1939.2 1840.37 1948.42 1827.83C1958.38 1813.81 1969.82 1806.8 1982.73 1806.8C1990.85 1806.8 1999.52 1809.56 2008.74 1815.1C2024.24 1823.95 2034.01 1828.38 2038.07 1828.38C2050.24 1833.91 2056.33 1843.32 2056.33 1856.6V1861.03C2052.64 1893.49 2049.32 1925.96 2046.37 1958.42C2041.21 2018.19 2034.56 2077.95 2026.45 2137.71C2023.13 2157.27 2021.47 2177.19 2021.47 2197.48C2021.47 2203.01 2021.65 2213.71 2022.02 2229.57C2022.76 2245.07 2027.56 2265.17 2036.41 2289.89C2038.25 2293.58 2039.18 2296.35 2039.18 2298.19C2039.55 2300.41 2038.62 2302.62 2036.41 2304.83C2034.93 2305.57 2033.64 2305.94 2032.54 2305.94Z" fill="#EC703C"/>
<path opacity="0.8" fill-rule="evenodd" clip-rule="evenodd" d="M149.534 2190.83C149.75 2192.99 149.984 2195.14 150.235 2197.3C153.186 2229.03 168.496 2253.01 196.165 2269.24C207.232 2275.51 218.115 2282.15 228.814 2289.16L244.308 2299.67C246.522 2301.52 248.366 2302.44 249.842 2302.44C250.949 2302.44 252.24 2301.7 253.715 2300.23C255.191 2299.12 255.929 2297.65 255.929 2295.8C255.929 2293.59 255.191 2291.19 253.715 2288.61C244.124 2273.48 239.328 2257.07 239.328 2239.36V2233.27C239.328 2215.81 239.871 2198.42 240.959 2181.1L149.534 2190.83ZM495.772 2153.99C504.036 2160.62 513.735 2166.21 524.868 2170.74C529.295 2172.58 541.1 2178.3 560.284 2187.89C568.4 2191.95 572.827 2194.72 573.565 2196.19C592.748 2198.41 613.223 2199.51 634.989 2199.51C685.53 2199.51 720.208 2190.48 739.023 2172.4C739.023 2171.66 743.819 2166.5 753.41 2156.9C764.156 2146.49 774.138 2135.32 783.355 2123.38L779.762 2123.76L777.205 2125.36C777.338 2124.9 777.471 2124.44 777.602 2123.99L738.741 2128.13C731.405 2135.69 723.567 2142.88 715.228 2149.71C714.121 2150.45 712.83 2151 711.354 2151.37C709.879 2151.74 708.587 2152.29 707.481 2153.03L706.927 2148.05C706.927 2143.62 709.879 2138.83 715.781 2133.66C717.109 2132.5 718.424 2131.33 719.726 2130.15L595.185 2143.41C593.143 2144.72 591.101 2145.71 589.059 2146.39L586.845 2146.94C581.312 2149.16 576.885 2150.26 573.565 2150.26C570.365 2150.26 567.764 2149.02 565.764 2146.54L495.772 2153.99ZM829.683 2118.45C821.355 2134.7 814.192 2150.46 808.194 2165.76C802.661 2179.04 799.894 2191.4 799.894 2202.83C799.894 2217.59 806.35 2228.84 819.262 2236.59C823.32 2238.8 827.193 2241.2 830.883 2243.78C840.105 2248.95 849.513 2253.75 859.104 2258.17C872.017 2263.34 884.191 2269.98 895.627 2278.09C896.734 2278.83 897.841 2279.2 898.947 2279.2C900.423 2279.2 901.714 2278.65 902.821 2277.54C903.928 2276.43 904.85 2275.14 905.588 2273.67C906.326 2272.56 906.695 2271.64 906.695 2270.9C906.695 2269.05 906.326 2267.58 905.588 2266.47C904.85 2261.68 903.005 2257.8 900.054 2254.85C897.103 2251.53 895.627 2247.29 895.627 2242.12C895.627 2232.9 901.899 2214.27 914.442 2186.23C929.387 2155.46 945.146 2128.19 961.721 2104.4L943.403 2106.35C940.042 2112.2 935.184 2116.88 928.829 2120.38C926.247 2122.23 924.956 2124.62 924.956 2127.58C924.956 2129.05 925.325 2130.9 926.063 2133.11C926.8 2134.95 927.169 2136.98 927.169 2139.2C927.169 2143.26 925.325 2148.05 921.636 2153.58C917.209 2162.44 911.121 2169.82 903.374 2175.72C897.841 2179.04 893.229 2185.31 889.54 2194.53C884.375 2208.18 880.502 2219.25 877.919 2227.74C876.075 2234.38 874.046 2237.7 871.832 2237.7C868.512 2237.7 866.852 2234.56 866.852 2228.29C866.852 2222.02 867.774 2215.93 869.619 2210.03C875.152 2189.37 882.715 2169.63 892.307 2150.82C896.734 2142.7 899.685 2134.03 901.161 2124.81C905.252 2119.87 909.353 2114.78 913.463 2109.54L829.683 2118.45ZM901.161 2124.81C900.792 2124.81 900.054 2125.18 898.947 2125.92C897.841 2126.65 896.18 2127.21 893.967 2127.58C892.122 2127.58 891.2 2126.84 891.2 2125.36C891.2 2123.15 892.86 2122.04 896.18 2122.04C897.656 2122.04 899.316 2122.96 901.161 2124.81ZM1006.19 2099.67C1010.67 2106.07 1016.24 2114.81 1022.9 2125.92C1035.45 2147.68 1049.65 2168.16 1065.51 2187.34C1090.97 2221.28 1113.84 2238.25 1134.13 2238.25C1142.25 2238.25 1158.66 2236.77 1183.38 2233.82C1184.12 2233.82 1184.67 2233.64 1185.04 2233.27C1195.37 2231.79 1205.52 2231.06 1215.48 2231.06L1227.65 2231.61C1238.35 2231.61 1243.7 2227.55 1243.7 2219.44C1243.7 2214.64 1240.93 2211.69 1235.4 2210.58C1212.52 2204.68 1186.89 2177.75 1158.48 2129.79C1148.92 2114.37 1139.98 2099.87 1131.65 2086.32L1093.45 2090.38C1099.64 2097.77 1105.63 2106.48 1111.44 2116.51C1122.88 2136.06 1134.31 2151 1145.75 2161.33C1146.86 2161.7 1147.96 2163.18 1149.07 2165.76C1152.02 2173.88 1156.63 2181.07 1162.91 2187.34L1170.65 2197.3C1158.11 2191.77 1148.7 2184.39 1142.43 2175.17C1138 2168.16 1133.21 2161.33 1128.04 2154.69C1113.49 2136.5 1100.72 2115.2 1089.72 2090.78L1006.19 2099.67ZM1678.96 2028.07C1679.3 2038.63 1679.94 2049.1 1680.86 2059.51C1681.97 2090.5 1688.61 2120.2 1700.78 2148.6C1706.32 2161.89 1715.54 2171.11 1728.45 2176.27L1749.48 2183.47C1768.29 2189.74 1786.74 2196.38 1804.82 2203.39C1809.98 2205.23 1814.96 2206.16 1819.76 2206.16C1829.72 2206.16 1839.13 2202.65 1847.98 2195.64C1872.7 2178.3 1889.85 2155.61 1899.44 2127.58C1904.98 2111.34 1913.65 2097.33 1925.45 2085.52L1935.97 2073.9C1938.92 2078.7 1940.39 2084.41 1940.39 2091.05C1940.39 2092.9 1940.21 2094.93 1939.84 2097.14C1939.84 2098.99 1939.66 2105.99 1939.29 2118.17C1937.81 2139.57 1937.07 2155.61 1937.07 2166.31C1937.07 2217.59 1944.82 2253.93 1960.31 2275.33C1968.8 2287.13 1982.08 2294.88 2000.16 2298.57C2005.69 2299.67 2011.23 2301.15 2016.76 2303L2023.4 2305.76C2024.14 2305.76 2025.06 2305.95 2026.17 2306.32C2027.64 2307.05 2029.67 2307.42 2032.25 2307.42C2033.36 2307.42 2034.65 2307.05 2036.13 2306.32C2038.34 2304.1 2039.26 2301.89 2038.89 2299.67C2038.89 2297.83 2037.97 2295.06 2036.13 2291.37C2027.27 2266.66 2022.48 2246.55 2021.74 2231.06C2021.37 2215.19 2021.19 2204.49 2021.19 2198.96C2021.19 2178.67 2022.85 2158.75 2026.17 2139.2C2032.95 2089.23 2038.71 2039.26 2043.43 1989.29L2022.29 1991.54C2009.75 2056.88 2003.48 2129.16 2003.48 2208.37L2006.24 2261.49C1998.87 2244.52 1995.18 2213.72 1995.18 2169.08C1995.18 2124.44 1997.94 2078.7 2003.48 2031.84C2005.14 2017.8 2006.96 2004.84 2008.95 1992.96L1842.83 2010.63C1818.51 2053.87 1805.84 2076.62 1804.82 2078.88C1799.28 2091.42 1793.93 2097.69 1788.77 2097.69C1782.5 2097.69 1778.81 2094.74 1777.7 2088.84C1775.49 2080.36 1774.38 2061.91 1774.38 2033.5C1774.38 2028.19 1774.49 2022.99 1774.7 2017.88L1751.07 2020.4C1750.75 2038.79 1750.59 2057.17 1750.59 2075.56V2094.37C1744.01 2070.27 1740.69 2045.98 1740.63 2021.51L1678.96 2028.07ZM897.287 2196.19L898.394 2195.64V2196.75L897.287 2196.19ZM1930.43 2005.83C1930.43 2012.47 1926.37 2018.75 1918.26 2024.65C1918.26 2017.27 1921.58 2010.63 1928.22 2004.73L1930.43 2001.96V2005.83ZM1888.93 2093.27C1879.71 2110.61 1867.53 2125.92 1852.41 2139.2C1867.9 2097.51 1884.87 2065.41 1903.32 2042.91V2044.57C1903.32 2059.33 1898.52 2075.56 1888.93 2093.27ZM1850.75 2141.96C1845.95 2157.46 1836.36 2169.45 1821.97 2177.93C1825.29 2166.87 1833.59 2155.98 1846.87 2145.28L1850.75 2141.96Z" fill="#C75E3C"/>
<g clip-path="url(#clip0)">
<path d="M548.606 686.105C573.727 706.652 616.181 762.915 659.138 916.996C665.034 937.23 665.833 958.607 661.462 979.223C654.617 1009.39 634.248 1045.05 577.076 1054.55C473.284 1071.83 438.701 950.809 438.701 950.809C438.701 950.809 374.705 694.997 508.265 675.371C515.366 674.275 522.618 674.663 529.561 676.511C536.505 678.358 542.989 681.625 548.606 686.105V686.105Z" fill="#EC703C"/>
<path d="M1507.81 686.105C1482.69 706.651 1440.24 762.915 1397.28 916.996C1391.35 937.221 1390.52 958.598 1394.85 979.223C1401.7 1009.39 1422.07 1045.05 1479.24 1054.55C1583.03 1071.83 1617.61 950.809 1617.61 950.809C1617.61 950.809 1681.61 694.997 1548.05 675.371C1540.96 674.29 1533.73 674.685 1526.81 676.532C1519.88 678.38 1513.42 681.639 1507.81 686.105V686.105Z" fill="#EC703C"/>
<path d="M1065.2 594.731C1067.92 631.368 1075.92 667.587 1090.87 700.939C1119.36 764.568 1179.56 837.298 1301.4 795.305C1502.1 726.152 1401.74 466.805 1401.74 466.805C1401.74 466.805 1267.97 86.4559 1117.43 155.608C1117.43 155.608 1033.8 190.195 1050.44 397.652L1065.2 594.731Z" fill="#EC703C"/>
<path d="M992.663 594.731C989.941 631.368 981.945 667.587 966.998 700.939C938.506 764.568 878.299 837.298 756.441 795.305C555.744 726.152 656.082 466.805 656.082 466.805C656.082 466.805 789.873 86.435 940.411 155.587C940.411 155.587 1024.04 190.174 1007.4 397.631L992.663 594.731Z" fill="#EC703C"/>
<path d="M923.036 0C910.372 3.15324 898.558 9.05379 888.431 17.2829C864.273 37.495 844.239 89.0089 888.431 103.739C911.585 111.46 927.892 91.6452 931.179 67.332C935.282 37.1393 923.036 0 923.036 0Z" fill="#EC703C"/>
<path d="M515.864 572.239C507.758 574.258 500.196 578.037 493.716 583.307C478.245 596.238 465.434 629.214 493.716 638.629C508.537 643.567 518.963 630.887 521.077 615.32C523.694 596.008 515.864 572.239 515.864 572.239Z" fill="#EC703C"/>
<path d="M1135.16 0C1147.83 3.15324 1159.64 9.05379 1169.77 17.2829C1193.92 37.495 1213.96 89.0089 1169.77 103.739C1146.61 111.46 1130.31 91.6452 1127.02 67.332C1122.94 37.1393 1135.16 0 1135.16 0Z" fill="#EC703C"/>
<path d="M1507.75 572.239C1515.85 574.261 1523.4 578.04 1529.88 583.307C1545.35 596.238 1558.16 629.193 1529.88 638.629C1515.06 643.567 1504.63 630.887 1502.52 615.32C1499.94 596.008 1507.75 572.239 1507.75 572.239Z" fill="#EC703C"/>
<path d="M685.181 1237.65C695.145 1178.79 728.2 1071.29 837.833 1004.9C938.318 944.218 1070.2 933.254 1169.22 996.045C1234.41 1037.35 1320.89 1123.78 1338.2 1244.83C1342.39 1274.12 1338.2 1313.98 1269.02 1313.98C1248.35 1313.98 1173.49 1288.87 1130.64 1279.39C974.953 1244.81 957.661 1262.11 819.264 1296.68C786.858 1304.77 751.898 1314.38 732.764 1313.96C695.857 1313.2 679.005 1274.04 685.181 1237.65Z" fill="#EC703C"/>
<g opacity="0.7">
<mask id="mask0" mask-type="alpha" maskUnits="userSpaceOnUse" x="499" y="348" width="2121" height="1933">
<rect x="499" y="1474.04" width="1896" height="1002" transform="rotate(-36.4345 499 1474.04)" fill="white"/>
</mask>
<g mask="url(#mask0)">
<path d="M548.606 686.105C573.727 706.652 616.181 762.915 659.138 916.996C665.034 937.23 665.833 958.607 661.462 979.223C654.617 1009.39 634.248 1045.05 577.076 1054.55C473.284 1071.83 438.701 950.809 438.701 950.809C438.701 950.809 374.705 694.997 508.265 675.371C515.366 674.275 522.618 674.663 529.561 676.511C536.505 678.358 542.99 681.625 548.606 686.105V686.105Z" fill="#C75E3C"/>
<path d="M1507.81 686.105C1482.69 706.651 1440.24 762.915 1397.28 916.996C1391.35 937.221 1390.52 958.598 1394.85 979.223C1401.7 1009.39 1422.07 1045.05 1479.24 1054.55C1583.03 1071.83 1617.61 950.809 1617.61 950.809C1617.61 950.809 1681.61 694.997 1548.05 675.371C1540.96 674.29 1533.73 674.685 1526.81 676.532C1519.88 678.38 1513.42 681.639 1507.81 686.105V686.105Z" fill="#C75E3C"/>
<path d="M1065.2 594.732C1067.92 631.369 1075.92 667.588 1090.87 700.94C1119.36 764.568 1179.56 837.299 1301.4 795.305C1502.1 726.153 1401.74 466.805 1401.74 466.805C1401.74 466.805 1267.97 86.4564 1117.43 155.609C1117.43 155.609 1033.8 190.195 1050.44 397.653L1065.2 594.732Z" fill="#C75E3C"/>
<path d="M992.663 594.732C989.942 631.369 981.945 667.588 966.998 700.94C938.506 764.568 878.299 837.299 756.441 795.305C555.744 726.153 656.082 466.805 656.082 466.805C656.082 466.805 789.873 86.4355 940.411 155.588C940.411 155.588 1024.04 190.175 1007.4 397.632L992.663 594.732Z" fill="#C75E3C"/>
<path d="M515.864 572.239C507.758 574.258 500.196 578.037 493.716 583.307C478.245 596.238 465.434 629.214 493.716 638.629C508.537 643.567 518.963 630.887 521.077 615.32C523.694 596.008 515.864 572.239 515.864 572.239Z" fill="#C75E3C"/>
<path d="M1507.75 572.239C1515.85 574.261 1523.4 578.04 1529.88 583.307C1545.35 596.238 1558.16 629.193 1529.88 638.629C1515.06 643.567 1504.63 630.887 1502.52 615.32C1499.94 596.008 1507.75 572.239 1507.75 572.239Z" fill="#C75E3C"/>
<path d="M685.181 1237.65C695.145 1178.79 728.2 1071.29 837.833 1004.9C938.318 944.218 1070.2 933.254 1169.22 996.045C1234.41 1037.35 1320.89 1123.78 1338.2 1244.83C1342.39 1274.12 1338.2 1313.98 1269.02 1313.98C1248.35 1313.98 1173.49 1288.87 1130.64 1279.39C974.953 1244.81 957.661 1262.11 819.264 1296.68C786.858 1304.77 751.898 1314.38 732.764 1313.96C695.857 1313.2 679.005 1274.04 685.181 1237.65Z" fill="#C75E3C"/>
</g>
</g>
</g>
<defs>
<clipPath id="clip0">
<rect width="1210" height="1314" fill="white" transform="translate(423)"/>
</clipPath>
</defs>
</svg>
