<svg width="190" height="181" viewBox="0 0 190 181" fill="none" xmlns="http://www.w3.org/2000/svg">
<path d="M102.728 65.8934C115.383 57.6519 101.178 41.8696 90.3762 49.3995C79.3188 57.3077 90.9603 73.6112 102.728 65.8934Z" fill="#FF0000"/>
<path d="M112.832 44.7946C125.492 36.5618 111.288 20.7795 100.48 28.3007C89.4144 36.2139 101.065 52.5124 112.832 44.7946Z" fill="#FF0000"/>
<path d="M87.7902 46.6202C100.45 38.3874 86.2457 22.6051 75.4384 30.1264C64.3811 38.0345 76.0225 54.3381 87.7902 46.6202Z" fill="#FF0000"/>
<path d="M102.579 71.3951C113.092 74.3438 127.28 67.8382 132.996 58.799L130.447 58.8042C133.272 63.4777 135.065 68.1235 140.432 70.279C143.392 71.4342 146.581 71.883 149.745 71.5896C152.91 71.2963 155.962 70.2688 158.659 68.589L156.499 67.6882C158.963 77.6746 163.844 87.1304 175.362 87.259L173.947 85.4085C172.318 95.1476 171.915 104.549 179.171 112.137L180.212 109.62C175.977 110.125 171.304 110.051 167.325 111.76C162.835 113.682 159.556 117.723 156.296 121.176L158.363 121.137C150.86 112.64 141.173 112.783 131.002 115.745L132.773 116.813C128.775 105.888 119.627 103.064 108.873 101.998L110.332 103.465C110.472 91.9065 114.011 77.4964 103.997 68.8907C102.575 67.6679 100.5 69.7547 101.936 70.9812C111.13 78.9059 107.515 92.8053 107.388 103.444C107.398 103.829 107.555 104.195 107.826 104.467C108.098 104.74 108.462 104.899 108.847 104.912C118.082 105.827 126.41 107.993 129.917 117.526C130.019 117.898 130.26 118.215 130.589 118.414C130.919 118.613 131.312 118.677 131.688 118.594C140.912 115.89 149.439 115.459 156.293 123.21C156.574 123.475 156.948 123.619 157.334 123.612C157.721 123.604 158.089 123.446 158.36 123.171C161.06 120.308 163.754 116.893 167.283 115.006C171.22 112.906 175.855 113.013 180.165 112.499C180.45 112.49 180.726 112.4 180.961 112.239C181.195 112.078 181.379 111.853 181.49 111.591C181.601 111.329 181.635 111.04 181.587 110.76C181.54 110.479 181.412 110.218 181.221 110.007C174.72 103.207 175.325 94.7745 176.777 86.1301C176.831 85.913 176.836 85.6865 176.79 85.4673C176.745 85.2482 176.651 85.0421 176.515 84.8643C176.379 84.6866 176.205 84.5417 176.005 84.4405C175.806 84.3392 175.586 84.2843 175.362 84.2796C165.225 84.1623 161.447 75.478 159.329 66.9091C159.27 66.691 159.162 66.4893 159.013 66.3195C158.864 66.1497 158.678 66.0162 158.47 65.9292C158.261 65.8423 158.036 65.8042 157.81 65.8179C157.585 65.8316 157.365 65.8967 157.169 66.0083C152.142 69.1415 144.838 69.8711 139.612 66.6186C136.331 64.5754 134.906 60.4675 132.973 57.2995C132.84 57.0806 132.652 56.8998 132.429 56.7744C132.205 56.6491 131.953 56.5835 131.697 56.584C131.441 56.5845 131.189 56.6511 130.966 56.7774C130.743 56.9036 130.556 57.0853 130.424 57.3047C125.428 65.2119 112.508 71.1128 103.32 68.5191C101.497 68.0013 100.736 70.8427 102.559 71.3605L102.579 71.3951Z" fill="#252A3F"/>
<path d="M164.401 101.474C142.312 94.7353 123.72 81.0129 104.181 69.2694C102.559 68.3004 101.099 70.8521 102.721 71.8211C122.541 83.6911 141.3 97.5021 163.645 104.324C165.457 104.883 166.213 102.033 164.406 101.482L164.401 101.474Z" fill="#252A3F"/>
<path d="M153.769 109.079C152.881 105.042 151.25 101.296 149.894 97.3671C149.384 95.8835 147.01 96.4919 147.525 97.9842C148.85 101.838 150.512 105.659 151.4 109.696C151.739 111.243 154.112 110.613 153.769 109.079Z" fill="#252A3F"/>
<path d="M136.141 107.166C134.717 101.06 133.84 94.8004 132.623 88.6326C132.314 87.0785 129.942 87.7093 130.254 89.2497C131.522 95.4458 132.325 101.656 133.772 107.784C133.878 108.07 134.086 108.306 134.357 108.447C134.627 108.589 134.941 108.624 135.236 108.547C135.531 108.47 135.787 108.286 135.954 108.031C136.122 107.776 136.188 107.468 136.141 107.166Z" fill="#252A3F"/>
<path d="M162.521 87.3173C156.005 88.9315 149.687 91.0893 143.075 92.5167C141.531 92.8423 142.153 95.2198 143.692 94.8855C150.261 93.4832 156.631 91.2953 163.138 89.6861C163.424 89.5803 163.661 89.3719 163.802 89.1014C163.943 88.831 163.978 88.5177 163.902 88.2224C163.825 87.9272 163.641 87.671 163.386 87.5038C163.13 87.3365 162.822 87.27 162.521 87.3173Z" fill="#252A3F"/>
<path d="M149.151 75.5798C140.766 77.1414 132.528 79.4029 124.521 82.3403C123.047 82.8678 123.656 85.2416 125.138 84.7091C133.145 81.7717 141.384 79.5103 149.768 77.9487C151.328 77.6713 150.697 75.2988 149.151 75.5798Z" fill="#252A3F"/>
<path d="M94.3495 70.9616C86.7135 77.5757 69.9383 75.7601 61.9341 70.7165C61.7101 70.595 61.4587 70.533 61.2039 70.5364C60.9491 70.5398 60.6995 70.6085 60.4789 70.7359C60.2582 70.8633 60.0739 71.0452 59.9436 71.2641C59.8132 71.483 59.7412 71.7318 59.7344 71.9865C59.3313 76.1683 59.8075 80.593 57.1018 84.1066C53.5475 88.7105 47.2114 90.856 41.5946 90.2075C41.3698 90.2082 41.1481 90.26 40.9463 90.3592C40.7446 90.4583 40.568 90.6021 40.4301 90.7797C40.2923 90.9572 40.1966 91.1639 40.1505 91.3839C40.1044 91.604 40.109 91.8316 40.164 92.0496C41.9715 100.74 42.2117 110.116 33.1125 114.596C32.7769 114.793 32.5322 115.114 32.4315 115.49C32.3308 115.865 32.3822 116.266 32.5744 116.604C37.6922 123.868 42.0096 131.306 39.0335 140.391C38.9693 140.64 38.9709 140.901 39.0381 141.148C39.1052 141.396 39.2356 141.622 39.4164 141.804C39.5972 141.986 39.8222 142.118 40.0694 142.187C40.3166 142.256 40.5775 142.259 40.8264 142.197C45.0013 140.768 49.3612 138.539 53.8747 138.797C57.9069 139.021 61.7653 140.904 65.4704 142.322C65.847 142.417 66.2461 142.362 66.5826 142.168C66.9191 141.974 67.1664 141.656 67.2717 141.282C70.1656 131.274 78.0242 128.145 87.4948 126.569C87.8087 126.487 88.0866 126.303 88.2851 126.046C88.4837 125.79 88.5917 125.474 88.5924 125.15C87.5913 114.816 94.065 109.289 102.185 104.312C102.514 104.11 102.754 103.789 102.854 103.416C102.954 103.042 102.907 102.644 102.723 102.304C98.2484 93.0747 91.9218 83.1366 96.6285 72.7289C97.4085 71.0199 94.8605 69.5465 94.0768 71.2692C88.8221 82.8478 95.1403 93.3912 100.15 103.789L100.689 101.781C91.6806 107.259 84.528 113.79 85.6217 125.145L86.7193 123.726C76.0911 125.497 67.5645 129.589 64.3994 140.527L66.2008 139.487C62.2112 137.956 58.1855 136.124 53.8555 135.864C49.0564 135.552 44.466 137.821 40.0249 139.369L41.8179 141.174C45.0339 131.385 40.621 123.101 35.0686 115.164L34.5305 117.172C44.8425 112.073 45.023 101.346 42.9429 91.3228L41.5123 93.1649C44.7938 93.5207 48.1125 93.071 51.181 91.8548C54.2495 90.6386 56.975 88.6925 59.1216 86.1851C62.5217 82.0743 62.1174 77.0539 62.6035 72.0158L60.4037 73.2859C69.6368 79.098 87.6943 80.5544 96.3694 73.0401C97.8002 71.7984 95.701 69.7425 94.2788 70.9793L94.3495 70.9616Z" fill="#252A3F"/>
<path d="M92.684 72.3967C80.5644 92.165 65.0039 109.393 49.2734 126.327C47.9895 127.704 50.1023 129.763 51.3638 128.388C67.2735 111.305 82.9955 93.8559 95.2457 73.8738C96.2333 72.2643 93.6816 70.8046 92.694 72.414L92.684 72.3967Z" fill="#252A3F"/>
<path d="M65.1892 129.574C63.651 125.001 62.8362 120.216 62.7743 115.392C62.7202 113.818 60.2729 113.799 60.3184 115.378C60.3726 120.418 61.2108 125.419 62.8031 130.202C63.3306 131.675 65.7044 131.067 65.1719 129.584L65.1892 129.574Z" fill="#252A3F"/>
<path d="M49.9314 111.987C55.8587 110.794 61.8254 109.808 67.7491 108.628C69.3031 108.32 68.6724 105.947 67.132 106.259C61.2047 107.453 55.238 108.438 49.3143 109.618C47.7653 109.935 48.391 112.299 49.9314 111.987Z" fill="#252A3F"/>
<path d="M81.8171 116.695C79.9326 110.769 78.4516 104.723 77.3842 98.5968C77.0672 97.0477 74.7033 97.6735 75.0153 99.2139C76.0827 105.34 77.5638 111.386 79.4483 117.312C79.9585 118.796 82.3323 118.187 81.8171 116.695Z" fill="#252A3F"/>
<path d="M55.8423 96.7849C64.5395 94.7889 73.3852 92.7302 82.2873 91.9092C83.8421 91.7621 83.8696 89.3098 82.3012 89.4532C73.1908 90.3136 64.1442 92.3844 55.2438 94.4284C53.7061 94.7851 54.3232 97.1539 55.8609 96.7973L55.8423 96.7849Z" fill="#252A3F"/>
</svg>
