<svg width="25" height="41" viewBox="0 0 25 41" fill="none" xmlns="http://www.w3.org/2000/svg">
<path d="M12.4884 7.79778C12.2277 7.58788 11.967 7.38476 11.7097 7.21211C11.869 5.30132 12.314 3.42523 13.03 1.64651C14.4839 2.40802 15.7971 3.41211 16.9131 4.61551C15.4777 5.70899 14.022 6.80247 12.4884 7.79778Z" fill="#DF1351"/>
<path d="M18.5821 6.67722C18.9429 7.20325 19.2719 7.75041 19.5673 8.31575C21.1686 11.0241 17.5361 13.0858 16.0059 11.3423C15.5082 10.7735 14.9902 10.2048 14.4892 9.66652C15.8738 8.71861 17.228 7.69283 18.5821 6.67722Z" fill="#DF1351"/>
<path d="M9.17067 6.27776H9.07248C7.56936 4.72386 6.13735 3.10903 4.70872 1.48742C6.48796 0.507954 8.57234 0.23939 10.5417 0.735862C9.83421 2.51202 9.37291 4.37659 9.17067 6.27776Z" fill="#DF1351"/>
<path d="M2.67071 3.16656C4.10273 4.78817 5.53136 6.40978 7.02771 7.97044C6.98344 8.39036 7.02256 8.81489 7.14282 9.21965C5.26731 9.31783 3.3918 9.40585 1.51629 9.52772C0.96109 7.19518 1.10665 4.96421 2.67071 3.16656Z" fill="#DF1351"/>
<path d="M4.32286 16.0175C3.98432 15.4183 3.64578 14.7988 3.30724 14.1522C2.9687 13.5056 2.65724 12.798 2.37626 12.121C4.37364 12.0025 6.37103 11.9077 8.36841 11.7993C9.2757 13.2618 10.4233 14.7209 11.1478 15.8144L11.1715 15.8517C8.89554 16.0708 6.60677 16.1263 4.32286 16.0175Z" fill="#DF1351"/>
<path d="M8.44623 22.3347C7.62697 21.1193 6.79077 19.9243 5.96812 18.6751C8.25449 18.7539 10.5433 18.6259 12.8066 18.2925C13.5683 19.4198 14.3436 20.5675 14.9496 21.4985C12.7762 21.6948 10.6129 22.0232 8.44623 22.3347Z" fill="#DF1351"/>
<path d="M11.9061 27.8698C11.1443 26.5766 10.4876 25.4696 10.0339 24.7688C12.1972 24.4573 14.3605 24.1662 16.5373 24.0308C17.0214 24.7823 17.7256 25.8927 18.5211 27.1995C16.3138 27.362 14.1133 27.6464 11.9061 27.8698Z" fill="#DF1351"/>
<path d="M15.1358 33.344C14.5535 32.3724 13.9577 31.3635 13.3788 30.375C15.5962 30.1312 17.8136 29.8672 20.0446 29.7656C20.6235 30.7812 21.2092 31.8273 21.7644 32.8836C19.5571 33.0765 17.3465 33.2526 15.1358 33.344Z" fill="#DF1351"/>
<path d="M23.0745 35.4328C24.1849 37.8669 23.6534 38.4796 21.8761 39.2752C20.5422 40.0234 19.5909 40.3111 17.2922 36.8174C17.1094 36.5398 16.9165 36.2351 16.7167 35.9237C18.8394 35.7984 20.9519 35.6156 23.0745 35.4328Z" fill="#DF1351"/>
<path d="M19.1407 8.56629C16.9571 4.53429 12.7694 0.597066 7.84026 1.02024C5.5822 1.21659 3.27335 2.57752 2.2645 4.65616C1.07284 7.11396 2.00044 10.0356 3.02283 12.3816C4.90511 16.7048 7.86395 20.4118 10.3691 24.3727C12.1329 27.1589 13.7376 30.0432 15.4303 32.8701C16.3352 34.4815 17.3274 36.0422 18.4027 37.5453C18.8597 38.1479 19.6079 39.2109 20.4678 39.238C21.0331 39.2617 21.7407 38.825 22.2079 38.5609C23.9006 37.5656 22.7732 35.9 22.0555 34.4984C20.8684 32.1986 19.6045 29.9417 18.2639 27.7276C16.7777 25.2665 15.2441 22.812 13.6462 20.4186C11.6556 17.436 9.31628 14.5483 7.55249 11.4202C6.89911 10.2522 6.09 8.634 6.68244 7.27984C7.15978 6.18974 8.44963 5.68193 9.57697 5.78688C11.6082 5.97646 13.3686 7.79103 14.7024 9.17228C15.5454 10.0457 16.4189 11.6876 17.8272 11.4507C19.2355 11.2137 19.7399 9.75795 19.1305 8.55952C18.8428 7.99077 19.6993 7.48635 19.9904 8.05848C20.6167 9.29754 20.6269 10.6551 19.5503 11.6504C18.6871 12.4493 17.2957 12.7642 16.236 12.165C15.3457 11.6572 14.6991 10.6009 14.0017 9.87983C12.9657 8.81004 11.8249 7.659 10.4369 7.06656C8.8965 6.40979 7.17332 7.15458 7.59311 9.00639C7.84363 10.1066 8.51734 11.146 9.12671 12.0803C13.8663 19.342 18.9037 26.2821 22.9087 34.0042C23.5045 35.1552 24.5743 36.8614 23.9784 38.2122C23.5654 39.15 22.2857 39.7255 21.3886 40.0573C18.379 41.1507 16.2293 36.1268 15.0512 34.1836C12.8811 30.5985 10.8702 26.9118 8.56472 23.4113C5.69729 19.0576 2.13248 14.6769 0.984833 9.47019C-0.0544853 4.76111 2.87726 0.410871 7.83348 0.0283214C13.1079 -0.381312 17.6511 3.71841 19.9938 8.06526C20.2985 8.62723 19.4386 9.13165 19.1339 8.56629H19.1407Z" fill="#252A3F"/>
</svg>
