<svg width="77" height="68" viewBox="0 0 77 68" fill="none" xmlns="http://www.w3.org/2000/svg">
<path d="M21.8906 23.0196C21.8362 22.4748 21.7909 21.936 21.7844 21.4291C19.024 19.9387 16.0556 18.8709 12.9784 18.2614C12.7217 20.9343 12.9232 23.6314 13.5741 26.2364C16.3558 25.2475 19.1557 24.2308 21.8906 23.0196Z" fill="#DF1351"/>
<path d="M14.9065 30.3667C15.3046 31.3313 15.7601 32.2713 16.2706 33.1816C18.5494 37.7972 24.6223 34.6638 23.6018 31.0083C23.2676 29.8179 22.9515 28.5996 22.662 27.4318C20.1252 28.4813 17.5089 29.4195 14.9065 30.3667Z" fill="#DF1351"/>
<path d="M22.7746 17.1148L22.8624 16.9803C22.0775 13.5314 21.1454 10.1254 20.2011 6.718C17.2682 8.27994 15.0364 10.8956 13.9556 14.0379C17.0218 14.6567 19.989 15.6919 22.7746 17.1148Z" fill="#DF1351"/>
<path d="M24.3241 5.42717C25.2654 8.83921 26.2097 12.2466 27.01 15.6923C27.6249 16.0071 28.1716 16.4403 28.6186 16.967C30.4302 14.4851 32.2278 11.9942 34.0718 9.53351C31.3724 6.68711 28.1856 4.89165 24.3241 5.42717Z" fill="#DF1351"/>
<path d="M40.4541 19.1817C39.9358 18.1821 39.3897 17.1643 38.8065 16.1223C38.2233 15.0803 37.5324 14.0209 36.856 13.0304C34.9076 15.6611 32.9917 18.313 31.0573 20.9528C32.2498 23.5036 33.2227 26.3807 34.0731 28.3511L34.1029 28.4168C36.4383 25.4945 38.5608 22.4082 40.4541 19.1817Z" fill="#DF1351"/>
<path d="M45.4222 30.4799C44.4896 28.2707 43.6 26.0564 42.624 23.8123C40.6877 27.0154 38.4656 30.0369 35.985 32.8397C36.8485 34.8914 37.7277 36.9798 38.4614 38.6426C40.6738 35.8403 43.0581 33.17 45.4222 30.4799Z" fill="#DF1351"/>
<path d="M49.9123 40.1698C48.8215 37.9698 47.892 36.08 47.3375 34.8319C44.9765 37.5173 42.6432 40.2209 40.5112 43.0823C41.108 44.4176 41.9998 46.3753 43.0788 48.6338C45.2752 45.7549 47.6324 42.9942 49.9123 40.1698Z" fill="#DF1351"/>
<path d="M54.5246 49.4897C53.7141 47.8231 52.8646 46.1046 52.0279 44.4276C49.7111 47.2477 47.3665 50.0498 45.2325 53.0156C46.1064 54.7169 47.0159 56.4548 47.9667 58.1599C50.2047 55.3083 52.4227 52.4368 54.5246 49.4897Z" fill="#DF1351"/>
<path d="M50.2878 62.2344C52.6298 65.9323 53.9447 65.752 56.6239 64.0282C58.8417 62.8697 60.0866 61.8236 57.3552 55.5502C57.1383 55.0515 56.8934 54.5146 56.6453 53.9625C54.5757 56.7587 52.4362 59.4896 50.2878 62.2344Z" fill="#DF1351"/>
<path d="M16.9952 32.8212C13.4234 26.2241 11.7736 16.9659 16.7609 10.5908C19.049 7.67258 22.9782 5.72611 26.7282 6.20254C31.1612 6.76754 34.3347 10.6509 36.6349 14.1495C40.875 20.5941 43.3083 27.9628 46.4951 34.9369C48.7354 39.8449 51.2524 44.6226 53.6119 49.4695C55.0106 52.1501 56.2617 54.9052 57.3596 57.7224C57.7766 58.8875 58.564 60.8631 57.8323 62.0654C57.3592 62.8612 56.1282 63.4402 55.3486 63.8441C52.4714 65.2733 51.1973 62.2394 49.9188 60.0028C47.8293 56.3199 45.8672 52.5701 44.0324 48.7535C41.9893 44.5166 39.9978 40.2207 38.1472 35.8912C35.8408 30.4969 33.976 24.7096 31.2673 19.4959C30.2513 17.5564 28.7576 15.0008 26.3725 14.6017C24.4522 14.2809 22.603 15.5941 21.7388 17.2325C20.1822 20.1851 21.0943 24.2196 21.7941 27.2822C22.237 29.2181 23.7056 31.883 22.1216 33.6007C20.5377 35.3183 18.0921 34.7078 16.995 32.8012C16.4731 31.8984 15.0161 32.6209 15.5396 33.5314C16.6773 35.4974 18.5282 36.7252 20.8545 36.1402C22.7211 35.6718 24.3966 34.047 24.5231 32.0594C24.6235 30.3854 23.7545 28.555 23.3901 26.9547C22.8507 24.5788 22.2938 21.9864 22.7232 19.5549C23.2007 16.8572 25.762 15.1622 27.9238 17.3932C29.2073 18.7203 30.0288 20.5727 30.7642 22.2431C36.4755 35.23 41.4797 48.3376 48.4787 60.7297C49.523 62.5753 50.9042 65.5667 53.2877 65.9582C54.9418 66.2308 56.8746 64.9921 58.1314 64.0596C62.3207 60.9139 57.3596 53.4762 55.7506 50.1245C52.779 43.9456 49.5259 37.8938 46.7913 31.605C43.3904 23.7833 40.5759 14.982 34.4683 8.75386C28.9456 3.11911 20.3638 3.24605 15.4079 9.69456C10.1304 16.5549 11.685 26.4454 15.5459 33.5421C16.0434 34.462 17.5034 33.7349 17.0013 32.8119L16.9952 32.8212Z" fill="#252A3F"/>
</svg>
