<svg width="36" height="36" viewBox="0 0 36 36" fill="none" xmlns="http://www.w3.org/2000/svg">
<path d="M30.6686 23.8737C24.8388 17.5838 18.7337 11.5845 11.9603 6.3108C11.8332 6.21891 11.6823 6.16556 11.5256 6.15712C11.369 6.14868 11.2132 6.18548 11.0769 6.26318C10.9407 6.34087 10.8296 6.45616 10.7571 6.59526C10.6846 6.73435 10.6536 6.8914 10.6679 7.04761C11.3271 15.7629 13.5556 24.2873 17.2461 32.21C17.5161 32.776 18.5073 32.9683 18.7401 32.2215C20.9893 24.5039 24.1281 17.0623 26.0468 9.24402C26.0648 9.10445 26.0463 8.96261 25.993 8.83237C25.9396 8.70214 25.8534 8.588 25.7426 8.50117C25.6319 8.41434 25.5005 8.35779 25.3613 8.33708C25.2221 8.31637 25.0799 8.33222 24.9486 8.38305C18.5355 11.9312 12.3382 15.856 6.38924 20.137C6.27768 20.2234 6.19061 20.3375 6.13659 20.4679C6.08256 20.5982 6.06347 20.7405 6.0812 20.8805C6.09893 21.0205 6.15286 21.1535 6.23768 21.2663C6.32249 21.3791 6.43524 21.4679 6.56483 21.5238C14.1987 23.6713 22.1823 23.6084 29.9422 25.1588C30.963 25.3631 31.1771 23.7641 30.1639 23.5609C22.5665 22.0253 14.6948 22.1272 7.20042 20.0185L7.37604 21.4053C13.2035 17.2018 19.2747 13.3471 25.5579 9.86133L24.4598 9.00032C22.5713 16.6858 19.4704 23.9956 17.259 31.5815L18.7529 31.593C15.1225 23.8034 12.9338 15.4203 12.2926 6.85021L10.9936 7.57825C17.5868 12.8213 23.7426 18.592 29.4001 24.8331C30.0985 25.5838 31.3911 24.6199 30.6861 23.8605L30.6686 23.8737Z" fill="#252A3F"/>
</svg>
