<svg width="82" height="80" viewBox="0 0 82 80" fill="none" xmlns="http://www.w3.org/2000/svg">
<path d="M27.8856 79.5572C32.2458 79.5572 32.2894 72.7204 27.8856 72.7204C23.4818 72.7204 23.4818 79.5572 27.8856 79.5572Z" fill="#252A3F"/>
<path d="M50.5497 9.92503L28.7488 69.9124C28.1819 71.4646 30.6585 72.1361 31.2166 70.5926L53.0175 10.6052C53.5844 9.05299 51.1078 8.38153 50.5497 9.92503Z" fill="#252A3F"/>
<path d="M58.0579 15.1834L48.5963 18.5146C47.0528 19.064 47.7243 21.5406 49.2765 20.9825L58.7381 17.6426C60.2816 17.0932 59.6101 14.6166 58.0579 15.1747V15.1834Z" fill="#252A3F"/>
<path d="M48.9713 18.7413L43.8612 10.0995C43.6876 9.81066 43.4073 9.60181 43.0809 9.51811C42.7545 9.43442 42.4083 9.4826 42.1171 9.65224C41.826 9.82188 41.6133 10.0993 41.5252 10.4246C41.4371 10.7498 41.4805 11.0966 41.6462 11.3901L46.7564 20.0319C46.93 20.3208 47.2102 20.5296 47.5366 20.6133C47.863 20.697 48.2093 20.6488 48.5004 20.4792C48.7916 20.3095 49.0042 20.0321 49.0924 19.7068C49.1805 19.3816 49.137 19.0347 48.9713 18.7413Z" fill="#252A3F"/>
<path d="M40.155 69.0927L35.0449 60.4508C34.8713 60.162 34.591 59.9531 34.2646 59.8694C33.9382 59.7857 33.592 59.8339 33.3008 60.0036C33.0097 60.1732 32.7971 60.4507 32.7089 60.7759C32.6208 61.1011 32.6643 61.448 32.8299 61.7414L37.94 70.3833C38.1136 70.6721 38.394 70.8809 38.7204 70.9646C39.0468 71.0483 39.393 71.0001 39.6841 70.8305C39.9752 70.6608 40.1879 70.3834 40.276 70.0582C40.3641 69.7329 40.3207 69.3861 40.155 69.0927Z" fill="#252A3F"/>
<path d="M32.5248 59.5003L23.0632 62.8576C21.5197 63.407 22.1912 65.8836 23.7434 65.3255L33.205 61.9681C34.7485 61.4188 34.0771 58.9422 32.5248 59.5003Z" fill="#252A3F"/>
<path d="M71.9757 33.4438L9.18908 44.5972C7.56709 44.885 8.25602 47.3528 9.86929 47.065L72.6559 35.9117C74.2778 35.6239 73.5889 33.1561 71.9757 33.4438Z" fill="#252A3F"/>
<path d="M71.1995 42.5828L63.5604 36.0687C62.3134 35.0048 60.4909 36.8099 61.7466 37.8825L69.3857 44.3966C70.6327 45.4605 72.4552 43.6554 71.1995 42.5828Z" fill="#252A3F"/>
<path d="M63.5605 36.5047L68.4875 27.7843C68.6532 27.4909 68.6967 27.144 68.6085 26.8188C68.5204 26.4936 68.3078 26.2161 68.0166 26.0465C67.7255 25.8769 67.3792 25.8287 67.0528 25.9124C66.7264 25.9961 66.4462 26.2049 66.2726 26.4937L61.3455 35.2141C61.1799 35.5075 61.1364 35.8543 61.2246 36.1796C61.3127 36.5048 61.5253 36.7823 61.8164 36.9519C62.1076 37.1215 62.4538 37.1697 62.7802 37.086C63.1066 37.0023 63.3869 36.7935 63.5605 36.5047Z" fill="#252A3F"/>
<path d="M15.5113 54.05L20.4384 45.3297C20.604 45.0362 20.6475 44.6894 20.5593 44.3642C20.4712 44.0389 20.2586 43.7615 19.9674 43.5918C19.6763 43.4222 19.3301 43.374 19.0037 43.4577C18.6773 43.5414 18.3969 43.7502 18.2234 44.039L13.2964 52.7594C13.1307 53.0528 13.0872 53.3997 13.1754 53.7249C13.2635 54.0501 13.4761 54.3276 13.7673 54.4972C14.0584 54.6669 14.4046 54.7151 14.731 54.6314C15.0574 54.5477 15.3378 54.3388 15.5113 54.05Z" fill="#252A3F"/>
<path d="M20.0547 42.6351L12.4157 36.121C11.1687 35.0571 9.3461 36.8622 10.6018 37.9348L18.2409 44.4489C19.4879 45.5128 21.3105 43.7077 20.0547 42.6351Z" fill="#252A3F"/>
<path d="M19.4616 16.7705L60.5345 65.6045C61.5984 66.869 63.4035 65.0464 62.3483 63.7907L21.2754 14.9567C20.2115 13.6922 18.4064 15.5148 19.4616 16.7705Z" fill="#252A3F"/>
<path d="M27.7721 12.8464L25.9757 22.7178C25.6792 24.3311 28.1471 25.02 28.4436 23.398L30.2661 13.5265C30.5626 11.9133 28.0948 11.2244 27.7983 12.8464H27.7721Z" fill="#252A3F"/>
<path d="M26.3072 22.5085L16.27 22.6132C15.93 22.6132 15.604 22.7482 15.3636 22.9886C15.1232 23.229 14.9882 23.5551 14.9882 23.8951C14.9882 24.235 15.1232 24.5611 15.3636 24.8015C15.604 25.0419 15.93 25.177 16.27 25.177L26.3072 25.0723C26.6471 25.0723 26.9732 24.9373 27.2136 24.6969C27.454 24.4565 27.589 24.1304 27.589 23.7904C27.589 23.4504 27.454 23.1244 27.2136 22.884C26.9732 22.6436 26.6471 22.5085 26.3072 22.5085Z" fill="#252A3F"/>
<path d="M65.5313 55.3407L55.4941 55.4453C55.1542 55.4453 54.8281 55.5804 54.5877 55.8208C54.3473 56.0612 54.2123 56.3872 54.2123 56.7272C54.2123 57.0672 54.3473 57.3932 54.5877 57.6336C54.8281 57.874 55.1542 58.0091 55.4941 58.0091L65.5313 57.9045C65.8713 57.9045 66.1974 57.7694 66.4378 57.529C66.6782 57.2886 66.8132 56.9625 66.8132 56.6226C66.8132 56.2826 66.6782 55.9565 66.4378 55.7161C66.1974 55.4757 65.8713 55.3407 65.5313 55.3407Z" fill="#252A3F"/>
<path d="M53.3838 57.1109L51.5613 66.9823C51.2648 68.5956 53.7326 69.2845 54.0291 67.6625L55.8517 57.7562C56.1482 56.1429 53.6803 55.454 53.3838 57.076V57.1109Z" fill="#252A3F"/>
<path d="M53.881 7.78854C58.2411 7.78854 58.2847 0.951782 53.881 0.951782C49.4772 0.951782 49.4772 7.78854 53.881 7.78854Z" fill="#252A3F"/>
<path d="M78.4897 37.0105C82.8499 37.0105 82.8935 30.1737 78.4897 30.1737C74.0859 30.1737 74.0859 37.0105 78.4897 37.0105Z" fill="#252A3F"/>
<path d="M3.30284 50.3439C7.66301 50.3439 7.70662 43.5072 3.30284 43.5072C-1.10095 43.5072 -1.10095 50.3439 3.30284 50.3439Z" fill="#252A3F"/>
<path d="M16.3312 14.4597C20.6913 14.4597 20.7349 7.62289 16.3312 7.62289C11.9274 7.62289 11.9274 14.4597 16.3312 14.4597Z" fill="#252A3F"/>
<path d="M65.4702 72.8947C69.8304 72.8947 69.874 66.058 65.4702 66.058C61.0664 66.058 61.0664 72.8947 65.4702 72.8947Z" fill="#252A3F"/>
</svg>
