<svg width="433" height="225" viewBox="0 0 433 225" fill="none" xmlns="http://www.w3.org/2000/svg">
<path d="M41.2997 152.468C40.7797 152.468 40.3897 152.286 40.1297 151.922C39.8697 151.506 39.7397 151.012 39.7397 150.44V143.498V136.556L39.5837 124.076C39.4277 118.512 39.3497 114.352 39.3497 111.596L39.4277 109.334V104.264C39.4277 98.648 39.3757 95.84 39.2717 95.84H30.4577C30.0417 95.84 29.6517 95.736 29.2877 95.528C28.9757 95.32 28.8197 95.034 28.8197 94.67C28.8197 94.254 28.8977 93.968 29.0537 93.812C29.2097 93.656 29.6257 93.526 30.3017 93.422C31.0297 93.266 32.0697 93.188 33.4217 93.188H41.2217L49.8017 93.11C50.4257 93.11 50.8417 93.214 51.0497 93.422C51.3097 93.63 51.4397 93.968 51.4397 94.436C51.4397 95.216 50.9457 95.606 49.9577 95.606H46.4477H43.0157L42.3137 95.684L42.3917 100.208V106.292V137.96V144.434L42.4697 150.206V150.362C42.4697 150.778 42.4437 151.142 42.3917 151.454C42.3397 151.714 42.2357 151.922 42.0797 152.078C41.9237 152.338 41.6637 152.468 41.2997 152.468ZM72.9939 152.858C72.9939 152.338 72.2139 152.078 70.6539 152.078C70.3939 142.458 70.2639 135.49 70.2639 131.174L70.0299 130.862L70.3419 130.16C70.3419 129.224 70.2379 128.262 70.0299 127.274L68.8599 126.962C68.3919 127.118 67.8719 127.196 67.2999 127.196C66.8839 127.196 66.0259 127.066 64.7259 126.806C63.8419 126.546 63.0359 126.416 62.3079 126.416L61.4499 126.728C61.4499 128.548 61.4239 130.186 61.3719 131.642C61.3199 133.098 61.2939 134.736 61.2939 136.556L61.4499 136.868C61.4499 138.324 61.5279 140.508 61.6839 143.42C61.8399 146.28 61.9179 148.438 61.9179 149.894C61.9179 150.466 61.8139 150.96 61.6059 151.376C61.3979 151.74 61.0859 151.922 60.6699 151.922C59.5259 151.922 58.9539 150.362 58.9539 147.242C58.9539 144.59 58.9799 142.198 59.0319 140.066L59.1099 132.968C59.1099 128.236 59.0319 125.688 58.8759 125.324C59.1359 124.804 59.2659 123.088 59.2659 120.176C59.2659 117.68 59.1619 114.638 58.9539 111.05L58.7979 108.008L58.6419 101.924C58.6419 101.56 58.7719 101.222 59.0319 100.91C59.2919 100.598 59.6039 100.442 59.9679 100.442C61.0079 100.442 61.5279 101.95 61.5279 104.966C61.5279 108.502 61.5019 111.7 61.4499 114.56C61.3459 117.42 61.2939 120.566 61.2939 123.998C61.2939 124.622 63.2699 124.934 67.2219 124.934H67.5339C68.5219 124.934 69.2239 124.752 69.6399 124.388C70.1079 123.972 70.3419 123.296 70.3419 122.36C70.3419 119.604 70.1599 116.016 69.7959 111.596C69.4839 106.812 69.3279 103.224 69.3279 100.832C69.3279 100.52 69.4579 100.26 69.7179 100.052C69.9779 99.792 70.2899 99.662 70.6539 99.662L71.3559 99.896C71.7199 99.948 71.9539 100.026 72.0579 100.13C72.0579 104.186 72.2139 110.244 72.5259 118.304C72.8379 126.416 72.9939 132.5 72.9939 136.556C72.9939 142.692 73.1759 147.84 73.5399 152L72.9939 152.858ZM68.0799 123.842L68.2359 123.998H68.0799V123.842ZM85.9535 153.014C85.0175 153.014 84.4975 152.468 84.3935 151.376V150.362C84.4455 150.102 84.4715 149.79 84.4715 149.426L84.1595 149.114C84.5755 148.022 84.7835 146.956 84.7835 145.916C84.7835 144.72 84.7055 143.004 84.5495 140.768L84.3935 135.62C84.3935 133.02 84.4715 129.12 84.6275 123.92C84.8355 119.292 84.9395 115.366 84.9395 112.142L84.7835 107.462C84.6795 106.058 84.6275 104.498 84.6275 102.782C84.6275 102.002 84.8095 101.456 85.1735 101.144C85.5375 100.78 86.1095 100.598 86.8895 100.598C87.4095 100.598 87.8255 100.754 88.1375 101.066C88.2415 101.118 88.9955 101.222 90.3995 101.378C91.6995 101.534 92.8175 101.768 93.7535 102.08C94.7415 102.392 95.2355 102.782 95.2355 103.25C95.2355 103.77 94.7415 104.29 93.7535 104.81C90.7895 103.822 88.6835 103.328 87.4355 103.328L87.0455 103.796C87.0975 104.264 87.1235 105.382 87.1235 107.15C87.1235 109.386 87.0715 111.388 86.9675 113.156C86.9155 114.976 86.8895 117.004 86.8895 119.24C86.8895 120.696 87.2535 121.424 87.9815 121.424L89.2295 121.346C89.6455 121.294 90.0875 121.268 90.5555 121.268C92.5835 121.268 93.5975 121.736 93.5975 122.672C93.5975 123.244 93.4675 123.738 93.2075 124.154C92.9475 124.518 92.5575 124.7 92.0375 124.7C91.2575 124.7 90.6595 124.492 90.2435 124.076L87.7475 123.686H87.3575L86.9675 124.076V124.31C87.0715 125.194 87.1235 127.248 87.1235 130.472C87.1235 132.5 87.0975 134.346 87.0455 136.01L86.9675 141.548C86.9675 143.576 87.0455 145.656 87.2015 147.788C87.2535 148.984 87.5135 149.79 87.9815 150.206C88.4495 150.57 89.3075 150.752 90.5555 150.752L91.9595 150.674C92.4275 150.622 92.9475 150.596 93.5195 150.596C95.0275 150.596 95.7815 150.934 95.7815 151.61C95.7815 152.546 94.6375 153.014 92.3495 153.014H85.9535ZM121.113 153.716C120.177 153.716 119.449 153.664 118.929 153.56C118.461 153.508 117.941 153.352 117.369 153.092C116.745 152.78 116.277 152.338 115.965 151.766C115.965 151.142 116.251 150.83 116.823 150.83C117.395 150.83 118.123 151.012 119.007 151.376C119.839 151.792 120.541 152 121.113 152C122.257 152 123.297 151.532 124.233 150.596C125.221 149.66 125.975 148.438 126.495 146.93C127.535 143.966 128.055 141.34 128.055 139.052C128.055 136.504 127.691 133.93 126.963 131.33C126.235 128.73 125.273 126.286 124.077 123.998C123.817 123.426 123.375 122.568 122.751 121.424C121.451 118.824 120.463 116.796 119.787 115.34C119.111 113.884 118.513 112.272 117.993 110.504C117.265 108.164 116.901 105.642 116.901 102.938C116.901 101.222 117.161 99.584 117.681 98.024C118.253 96.412 119.137 95.034 120.333 93.89C121.633 92.694 123.089 92.096 124.701 92.096C125.325 92.096 126.079 92.356 126.963 92.876C127.847 93.344 128.289 93.812 128.289 94.28C128.289 94.696 128.133 94.904 127.821 94.904C127.509 94.904 127.093 94.774 126.573 94.514C126.105 94.254 125.663 94.124 125.247 94.124C124.051 94.124 122.985 94.566 122.049 95.45C121.165 96.334 120.515 97.426 120.099 98.726C119.735 99.818 119.553 101.014 119.553 102.314C119.553 104.342 119.813 106.448 120.333 108.632C120.853 110.764 121.555 112.766 122.439 114.638L125.169 120.332L125.949 121.97C127.041 124.206 127.873 126.052 128.445 127.508C129.069 128.964 129.589 130.602 130.005 132.422C130.577 134.866 130.863 137.206 130.863 139.442C130.863 142.458 130.083 145.526 128.523 148.646C127.743 150.154 126.703 151.376 125.403 152.312C124.103 153.248 122.673 153.716 121.113 153.716ZM142.854 153.014C141.918 153.014 141.398 152.468 141.294 151.376V150.362C141.346 150.102 141.372 149.79 141.372 149.426L141.06 149.114C141.476 148.022 141.684 146.956 141.684 145.916C141.684 144.72 141.606 143.004 141.45 140.768L141.294 135.62C141.294 133.02 141.372 129.12 141.528 123.92C141.736 119.292 141.84 115.366 141.84 112.142L141.684 107.462C141.58 106.058 141.528 104.498 141.528 102.782C141.528 102.002 141.71 101.456 142.074 101.144C142.438 100.78 143.01 100.598 143.79 100.598C144.31 100.598 144.726 100.754 145.038 101.066C145.142 101.118 145.896 101.222 147.3 101.378C148.6 101.534 149.718 101.768 150.654 102.08C151.642 102.392 152.136 102.782 152.136 103.25C152.136 103.77 151.642 104.29 150.654 104.81C147.69 103.822 145.584 103.328 144.336 103.328L143.946 103.796C143.998 104.264 144.024 105.382 144.024 107.15C144.024 109.386 143.972 111.388 143.868 113.156C143.816 114.976 143.79 117.004 143.79 119.24C143.79 120.696 144.154 121.424 144.882 121.424L146.13 121.346C146.546 121.294 146.988 121.268 147.456 121.268C149.484 121.268 150.498 121.736 150.498 122.672C150.498 123.244 150.368 123.738 150.108 124.154C149.848 124.518 149.458 124.7 148.938 124.7C148.158 124.7 147.56 124.492 147.144 124.076L144.648 123.686H144.258L143.868 124.076V124.31C143.972 125.194 144.024 127.248 144.024 130.472C144.024 132.5 143.998 134.346 143.946 136.01L143.868 141.548C143.868 143.576 143.946 145.656 144.102 147.788C144.154 148.984 144.414 149.79 144.882 150.206C145.35 150.57 146.208 150.752 147.456 150.752L148.86 150.674C149.328 150.622 149.848 150.596 150.42 150.596C151.928 150.596 152.682 150.934 152.682 151.61C152.682 152.546 151.538 153.014 149.25 153.014H142.854ZM167.101 152.546C166.113 152.234 165.255 151.792 164.527 151.22C163.851 150.648 163.201 149.79 162.577 148.646C161.485 146.566 160.835 143.576 160.627 139.676C160.523 137.908 160.471 136.348 160.471 134.996V126.104C160.471 122.724 160.575 119.448 160.783 116.276C160.939 113.936 161.173 111.96 161.485 110.348C161.797 108.736 162.291 107.124 162.967 105.512C163.695 103.848 164.501 102.678 165.385 102.002C165.749 101.69 166.451 101.326 167.491 100.91C168.167 100.65 168.817 100.364 169.441 100.052H172.561H172.795C172.847 100.104 172.925 100.13 173.029 100.13L173.419 100.208L173.731 100.442C173.887 100.598 173.965 100.702 173.965 100.754C174.017 100.858 174.043 101.014 174.043 101.222L173.029 102.392H169.753C168.765 102.392 167.855 102.886 167.023 103.874C166.243 104.81 165.645 106.006 165.229 107.462C164.813 108.762 164.475 110.296 164.215 112.064C163.955 113.832 163.799 115.366 163.747 116.666C163.643 118.33 163.591 119.474 163.591 120.098L163.435 120.488C163.435 123.4 163.383 126.026 163.279 128.366L163.123 136.244C163.123 138.532 163.279 140.638 163.591 142.562C163.851 144.642 164.605 146.514 165.853 148.178C167.049 149.842 168.895 150.674 171.391 150.674C172.171 150.674 172.821 150.44 173.341 149.972C174.121 149.972 174.511 150.258 174.511 150.83C174.511 151.194 174.173 151.61 173.497 152.078C172.873 152.598 172.223 152.988 171.547 153.248H168.973L167.101 152.546ZM195.505 152.936C194.881 152.26 194.205 150.466 193.477 147.554C192.749 144.642 192.073 141.366 191.449 137.726C191.033 134.762 190.435 131.824 189.655 128.912C189.031 126.312 188.433 125.012 187.861 125.012H187.627C186.483 125.012 185.911 125.376 185.911 126.104C185.911 129.848 186.119 135.542 186.535 143.186C186.743 147.866 186.977 150.596 187.237 151.376L186.613 152.702H185.521L184.897 152.078C184.065 128.054 183.649 111.674 183.649 102.938C183.649 102.366 183.675 101.898 183.727 101.534C183.831 101.17 184.013 100.832 184.273 100.52C184.481 100.156 184.845 99.974 185.365 99.974C188.017 99.974 190.149 100.624 191.761 101.924C193.373 103.224 194.179 105.096 194.179 107.54V113.234C194.179 114.222 193.841 115.548 193.165 117.212C192.541 118.876 191.839 120.41 191.059 121.814L190.045 123.764C190.617 126.416 191.735 131.2 193.399 138.116C195.115 144.98 196.051 148.62 196.207 149.036C196.259 149.088 196.311 149.218 196.363 149.426C196.467 149.634 196.649 149.946 196.909 150.362C197.273 151.09 197.455 151.714 197.455 152.234C197.455 152.962 197.169 153.326 196.597 153.326L195.505 152.936ZM186.301 123.062C187.289 123.062 188.173 122.568 188.953 121.58C189.733 120.592 190.357 119.318 190.825 117.758C191.657 114.586 192.073 112.064 192.073 110.192C192.073 108.996 191.995 108.008 191.839 107.228C191.735 106.448 191.527 105.616 191.215 104.732C190.591 102.912 189.109 102.002 186.769 102.002C186.509 102.002 186.301 102.236 186.145 102.704C185.989 103.12 185.911 103.562 185.911 104.03C185.911 107.514 185.963 110.66 186.067 113.468C186.119 116.276 186.145 119.422 186.145 122.906L186.301 123.062ZM207.676 153.014C206.74 153.014 206.22 152.468 206.116 151.376V150.362C206.168 150.102 206.194 149.79 206.194 149.426L205.882 149.114C206.298 148.022 206.506 146.956 206.506 145.916C206.506 144.72 206.428 143.004 206.272 140.768L206.116 135.62C206.116 133.02 206.194 129.12 206.35 123.92C206.558 119.292 206.662 115.366 206.662 112.142L206.506 107.462C206.402 106.058 206.35 104.498 206.35 102.782C206.35 102.002 206.532 101.456 206.896 101.144C207.26 100.78 207.832 100.598 208.612 100.598C209.132 100.598 209.548 100.754 209.86 101.066C209.964 101.118 210.718 101.222 212.122 101.378C213.422 101.534 214.54 101.768 215.476 102.08C216.464 102.392 216.958 102.782 216.958 103.25C216.958 103.77 216.464 104.29 215.476 104.81C212.512 103.822 210.406 103.328 209.158 103.328L208.768 103.796C208.82 104.264 208.846 105.382 208.846 107.15C208.846 109.386 208.794 111.388 208.69 113.156C208.638 114.976 208.612 117.004 208.612 119.24C208.612 120.696 208.976 121.424 209.704 121.424L210.952 121.346C211.368 121.294 211.81 121.268 212.278 121.268C214.306 121.268 215.32 121.736 215.32 122.672C215.32 123.244 215.19 123.738 214.93 124.154C214.67 124.518 214.28 124.7 213.76 124.7C212.98 124.7 212.382 124.492 211.966 124.076L209.47 123.686H209.08L208.69 124.076V124.31C208.794 125.194 208.846 127.248 208.846 130.472C208.846 132.5 208.82 134.346 208.768 136.01L208.69 141.548C208.69 143.576 208.768 145.656 208.924 147.788C208.976 148.984 209.236 149.79 209.704 150.206C210.172 150.57 211.03 150.752 212.278 150.752L213.682 150.674C214.15 150.622 214.67 150.596 215.242 150.596C216.75 150.596 217.504 150.934 217.504 151.61C217.504 152.546 216.36 153.014 214.072 153.014H207.676ZM231.299 150.908L231.221 148.022C231.169 147.19 231.143 146.254 231.143 145.214C231.143 144.694 231.169 144.252 231.221 143.888L231.299 142.484C231.299 141.964 231.195 141.34 230.987 140.612C230.987 137.128 230.727 130.654 230.207 121.19C229.687 112.038 229.401 105.824 229.349 102.548C226.125 102.548 223.967 102.47 222.875 102.314C221.835 102.054 221.315 101.638 221.315 101.066C221.575 100.494 222.069 100.208 222.797 100.208C224.357 100.208 226.619 100.312 229.583 100.52C232.287 100.78 234.549 100.91 236.369 100.91H238.007L239.645 100.832C240.581 100.832 241.049 101.17 241.049 101.846C241.049 102.158 240.867 102.418 240.503 102.626C240.191 102.782 239.801 102.86 239.333 102.86C238.293 102.86 237.201 102.808 236.057 102.704L232.703 102.548C232.495 102.548 232.391 102.626 232.391 102.782C232.339 102.938 232.313 103.432 232.313 104.264C232.313 109.308 232.625 116.952 233.249 127.196C233.821 137.804 234.107 145.422 234.107 150.05C234.107 150.414 233.873 150.752 233.405 151.064C232.989 151.376 232.573 151.532 232.157 151.532L231.299 150.908ZM265.991 153.716C265.055 153.716 264.327 153.664 263.807 153.56C263.339 153.508 262.819 153.352 262.247 153.092C261.623 152.78 261.155 152.338 260.843 151.766C260.843 151.142 261.129 150.83 261.701 150.83C262.273 150.83 263.001 151.012 263.885 151.376C264.717 151.792 265.419 152 265.991 152C267.135 152 268.175 151.532 269.111 150.596C270.099 149.66 270.853 148.438 271.373 146.93C272.413 143.966 272.933 141.34 272.933 139.052C272.933 136.504 272.569 133.93 271.841 131.33C271.113 128.73 270.151 126.286 268.955 123.998C268.695 123.426 268.253 122.568 267.629 121.424C266.329 118.824 265.341 116.796 264.665 115.34C263.989 113.884 263.391 112.272 262.871 110.504C262.143 108.164 261.779 105.642 261.779 102.938C261.779 101.222 262.039 99.584 262.559 98.024C263.131 96.412 264.015 95.034 265.211 93.89C266.511 92.694 267.967 92.096 269.579 92.096C270.203 92.096 270.957 92.356 271.841 92.876C272.725 93.344 273.167 93.812 273.167 94.28C273.167 94.696 273.011 94.904 272.699 94.904C272.387 94.904 271.971 94.774 271.451 94.514C270.983 94.254 270.541 94.124 270.125 94.124C268.929 94.124 267.863 94.566 266.927 95.45C266.043 96.334 265.393 97.426 264.977 98.726C264.613 99.818 264.431 101.014 264.431 102.314C264.431 104.342 264.691 106.448 265.211 108.632C265.731 110.764 266.433 112.766 267.317 114.638L270.047 120.332L270.827 121.97C271.919 124.206 272.751 126.052 273.323 127.508C273.947 128.964 274.467 130.602 274.883 132.422C275.455 134.866 275.741 137.206 275.741 139.442C275.741 142.458 274.961 145.526 273.401 148.646C272.621 150.154 271.581 151.376 270.281 152.312C268.981 153.248 267.551 153.716 265.991 153.716ZM301.617 152.702C300.837 152.702 300.343 152.598 300.135 152.39C299.927 152.234 299.771 151.766 299.667 150.986C299.199 147.19 298.913 144.824 298.809 143.888L298.419 140.768C297.275 140.508 295.975 140.378 294.519 140.378L291.711 140.222C290.463 140.066 289.553 139.988 288.981 139.988C288.669 139.988 288.487 140.118 288.435 140.378C288.435 140.534 288.409 140.612 288.357 140.612L288.201 142.172C288.149 143.108 287.863 144.98 287.343 147.788C287.083 149.192 286.771 150.284 286.407 151.064C285.991 151.948 285.601 152.39 285.237 152.39C284.925 152.39 284.587 152.26 284.223 152C283.859 151.688 283.677 151.376 283.677 151.064L283.755 150.83L283.833 150.596C284.769 146.904 285.549 143.238 286.173 139.598L287.109 134.762L288.045 128.834C288.045 128.834 288.331 127.118 288.903 123.686C289.163 122.282 289.631 120.02 290.307 116.9C291.035 113.364 291.477 110.946 291.633 109.646C291.685 109.49 291.789 108.528 291.945 106.76C292.153 104.784 292.335 103.328 292.491 102.392C292.647 101.04 292.803 100.26 292.959 100.052H293.505C293.661 100.104 293.843 100.13 294.051 100.13C294.675 100.13 295.143 99.974 295.455 99.662C295.819 99.662 296.131 99.792 296.391 100.052C296.703 100.26 296.859 100.52 296.859 100.832C296.859 103.328 297.041 106.188 297.405 109.412C297.613 111.076 297.769 112.454 297.873 113.546C298.445 120.254 299.901 132.838 302.241 151.298V151.532C302.241 152.052 302.033 152.442 301.617 152.702ZM298.029 138.662C297.509 131.174 296.521 120.124 295.065 105.512L290.853 126.338C289.657 132.318 289.059 136.088 289.059 137.648C289.059 137.908 290.047 138.142 292.023 138.35C293.999 138.558 295.741 138.662 297.249 138.662H298.029ZM330.592 152.312C330.176 152.312 329.864 152.156 329.656 151.844C329.5 151.532 329.344 151.064 329.188 150.44C329.136 150.024 329.032 149.66 328.876 149.348L328.954 149.114C328.538 146.67 327.654 143.68 326.302 140.144L324.898 136.088C324.794 135.984 324.3 134.658 323.416 132.11L322.792 130.238C318.112 115.782 315.174 107.956 313.978 106.76C313.562 108.164 313.354 109.984 313.354 112.22C313.354 113.416 313.38 114.456 313.432 115.34L313.51 118.382L313.432 120.254C313.38 120.826 313.354 121.45 313.354 122.126C313.354 123.27 313.406 124.258 313.51 125.09C313.614 126.754 313.666 127.586 313.666 127.586H313.432C313.432 136.27 313.614 141.054 313.978 141.938V148.958C314.186 149.374 314.29 149.92 314.29 150.596C314.29 151.012 314.134 151.376 313.822 151.688C313.562 152 313.224 152.156 312.808 152.156C311.716 152.156 311.17 150.752 311.17 147.944L311.326 145.448C311.43 144.668 311.482 143.81 311.482 142.874C311.482 140.378 311.404 136.634 311.248 131.642C311.092 126.65 311.014 122.906 311.014 120.41C311.014 118.902 311.092 116.588 311.248 113.468C311.404 110.4 311.482 108.112 311.482 106.604V105.59C311.482 103.042 311.95 101.378 312.886 100.598L313.12 100.832L313.9 100.676C314.108 100.728 314.342 100.884 314.602 101.144C314.81 101.352 314.914 101.586 314.914 101.846L315.07 102.314C315.07 102.418 315.07 102.522 315.07 102.626C315.122 102.678 315.148 102.704 315.148 102.704C315.98 106.396 317.852 111.57 320.764 118.226C323.728 125.246 325.574 129.9 326.302 132.188C326.822 134.008 327.238 135.62 327.55 137.024C328.538 141.444 329.708 144.85 331.06 147.242L331.216 147.008C332.412 135.464 333.01 121.294 333.01 104.498L332.932 103.562C332.88 103.302 332.854 102.964 332.854 102.548C332.854 101.456 333.218 100.91 333.946 100.91C334.414 100.91 334.804 101.144 335.116 101.612C335.48 102.08 335.662 102.6 335.662 103.172V108.398L335.272 109.022C335.272 113.962 334.986 122.074 334.414 133.358C333.842 144.642 333.296 150.778 332.776 151.766L331.45 152.078V152.156L331.372 152.078L330.592 152.312ZM351.727 150.908L351.649 148.022C351.597 147.19 351.571 146.254 351.571 145.214C351.571 144.694 351.597 144.252 351.649 143.888L351.727 142.484C351.727 141.964 351.623 141.34 351.415 140.612C351.415 137.128 351.155 130.654 350.635 121.19C350.115 112.038 349.829 105.824 349.777 102.548C346.553 102.548 344.395 102.47 343.303 102.314C342.263 102.054 341.743 101.638 341.743 101.066C342.003 100.494 342.497 100.208 343.225 100.208C344.785 100.208 347.047 100.312 350.011 100.52C352.715 100.78 354.977 100.91 356.797 100.91H358.435L360.073 100.832C361.009 100.832 361.477 101.17 361.477 101.846C361.477 102.158 361.295 102.418 360.931 102.626C360.619 102.782 360.229 102.86 359.761 102.86C358.721 102.86 357.629 102.808 356.485 102.704L353.131 102.548C352.923 102.548 352.819 102.626 352.819 102.782C352.767 102.938 352.741 103.432 352.741 104.264C352.741 109.308 353.053 116.952 353.677 127.196C354.249 137.804 354.535 145.422 354.535 150.05C354.535 150.414 354.301 150.752 353.833 151.064C353.417 151.376 353.001 151.532 352.585 151.532L351.727 150.908ZM385.101 152.702C384.321 152.702 383.827 152.598 383.619 152.39C383.411 152.234 383.255 151.766 383.151 150.986C382.683 147.19 382.397 144.824 382.293 143.888L381.903 140.768C380.759 140.508 379.459 140.378 378.003 140.378L375.195 140.222C373.947 140.066 373.037 139.988 372.465 139.988C372.153 139.988 371.971 140.118 371.919 140.378C371.919 140.534 371.893 140.612 371.841 140.612L371.685 142.172C371.633 143.108 371.347 144.98 370.827 147.788C370.567 149.192 370.255 150.284 369.891 151.064C369.475 151.948 369.085 152.39 368.721 152.39C368.409 152.39 368.071 152.26 367.707 152C367.343 151.688 367.161 151.376 367.161 151.064L367.239 150.83L367.317 150.596C368.253 146.904 369.033 143.238 369.657 139.598L370.593 134.762L371.529 128.834C371.529 128.834 371.815 127.118 372.387 123.686C372.647 122.282 373.115 120.02 373.791 116.9C374.519 113.364 374.961 110.946 375.117 109.646C375.169 109.49 375.273 108.528 375.429 106.76C375.637 104.784 375.819 103.328 375.975 102.392C376.131 101.04 376.287 100.26 376.443 100.052H376.989C377.145 100.104 377.327 100.13 377.535 100.13C378.159 100.13 378.627 99.974 378.939 99.662C379.303 99.662 379.615 99.792 379.875 100.052C380.187 100.26 380.343 100.52 380.343 100.832C380.343 103.328 380.525 106.188 380.889 109.412C381.097 111.076 381.253 112.454 381.357 113.546C381.929 120.254 383.385 132.838 385.725 151.298V151.532C385.725 152.052 385.517 152.442 385.101 152.702ZM381.513 138.662C380.993 131.174 380.005 120.124 378.549 105.512L374.337 126.338C373.141 132.318 372.543 136.088 372.543 137.648C372.543 137.908 373.531 138.142 375.507 138.35C377.483 138.558 379.225 138.662 380.733 138.662H381.513Z" fill="black"/>
<path d="M239.22 195.872C238.74 195.872 238.5 195.104 238.5 193.568V191.192C238.5 187.736 238.428 185.036 238.284 183.092L238.176 181.76C238.08 181.16 238.032 180.632 238.032 180.176C238.032 179.36 238.056 178.616 238.104 177.944L238.176 175.712C238.176 174.968 238.128 174.404 238.032 174.02C237.552 174.356 236.1 179.408 233.676 189.176L233.64 189.716C233.568 190.316 233.472 190.796 233.352 191.156C233.28 191.42 233.172 191.624 233.028 191.768C232.908 191.912 232.764 191.984 232.596 191.984C232.212 191.984 231.936 191.888 231.768 191.696C231.6 191.504 231.516 191.204 231.516 190.796C231.516 190.148 231.204 188.468 230.58 185.756C229.98 183.044 229.32 180.44 228.6 177.944C227.904 175.448 227.424 174.068 227.16 173.804C227.136 174.644 227.04 176.624 226.872 179.744C226.536 185.264 226.368 189.608 226.368 192.776L226.404 194.216C226.308 194.528 226.056 194.684 225.648 194.684C225.576 194.684 225.456 194.612 225.288 194.468C225.12 194.348 225.036 194.252 225.036 194.18C225.036 192.02 225.228 188.228 225.612 182.804C225.972 177.764 226.152 173.984 226.152 171.464C226.152 171.344 226.128 171.224 226.08 171.104C226.008 170.96 225.972 170.852 225.972 170.78C225.972 170.42 226.284 170.24 226.908 170.24C227.316 170.24 227.556 170.42 227.628 170.78C227.724 171.26 227.772 171.62 227.772 171.86L227.808 172.292C227.928 172.916 228.276 173.876 228.852 175.172C229.308 176.204 229.656 177.104 229.896 177.872C230.04 178.448 230.172 178.916 230.292 179.276C230.676 180.668 230.928 181.7 231.048 182.372L231.516 183.308C231.588 183.668 231.732 184.256 231.948 185.072C232.164 185.984 232.32 186.728 232.416 187.304C232.512 187.88 232.56 188.432 232.56 188.96C232.824 188.552 233.568 186.104 234.792 181.616C236.04 177.104 236.772 174.224 236.988 172.976C237.012 172.928 237.024 172.868 237.024 172.796C237.048 172.7 237.072 172.58 237.096 172.436C237.144 172.124 237.252 171.656 237.42 171.032C237.612 170.552 237.9 170.312 238.284 170.312C238.452 170.312 238.644 170.384 238.86 170.528C239.076 170.672 239.184 170.816 239.184 170.96C239.184 180.968 239.34 186.26 239.652 186.836V188.708C239.628 189.26 239.616 189.896 239.616 190.616C239.616 192.152 239.7 193.304 239.868 194.072C239.892 194.096 239.904 194.132 239.904 194.18C239.928 194.228 239.952 194.288 239.976 194.36C240 194.456 240.012 194.564 240.012 194.684C240.012 194.948 239.928 195.212 239.76 195.476C239.616 195.74 239.436 195.872 239.22 195.872ZM238.032 173.804H237.996L237.924 173.84L238.032 173.876V173.804ZM246.11 194.468C245.678 194.468 245.438 194.216 245.39 193.712V193.244C245.414 193.124 245.426 192.98 245.426 192.812L245.282 192.668C245.474 192.164 245.57 191.672 245.57 191.192C245.57 190.64 245.534 189.848 245.462 188.816L245.39 186.44C245.39 185.24 245.426 183.44 245.498 181.04C245.594 178.904 245.642 177.092 245.642 175.604L245.57 173.444C245.522 172.796 245.498 172.076 245.498 171.284C245.498 170.924 245.582 170.672 245.75 170.528C245.918 170.36 246.182 170.276 246.542 170.276C246.782 170.276 246.974 170.348 247.118 170.492C247.166 170.516 247.514 170.564 248.162 170.636C248.762 170.708 249.278 170.816 249.71 170.96C250.166 171.104 250.394 171.284 250.394 171.5C250.394 171.74 250.166 171.98 249.71 172.22C248.342 171.764 247.37 171.536 246.794 171.536L246.614 171.752C246.638 171.968 246.65 172.484 246.65 173.3C246.65 174.332 246.626 175.256 246.578 176.072C246.554 176.912 246.542 177.848 246.542 178.88C246.542 179.552 246.71 179.888 247.046 179.888L247.622 179.852C247.814 179.828 248.018 179.816 248.234 179.816C249.17 179.816 249.638 180.032 249.638 180.464C249.638 180.728 249.578 180.956 249.458 181.148C249.338 181.316 249.158 181.4 248.918 181.4C248.558 181.4 248.282 181.304 248.09 181.112L246.938 180.932H246.758L246.578 181.112V181.22C246.626 181.628 246.65 182.576 246.65 184.064C246.65 185 246.638 185.852 246.614 186.62L246.578 189.176C246.578 190.112 246.614 191.072 246.686 192.056C246.71 192.608 246.83 192.98 247.046 193.172C247.262 193.34 247.658 193.424 248.234 193.424L248.882 193.388C249.098 193.364 249.338 193.352 249.602 193.352C250.298 193.352 250.646 193.508 250.646 193.82C250.646 194.252 250.118 194.468 249.062 194.468H246.11ZM255.321 194.468C254.889 194.468 254.649 194.216 254.601 193.712V193.244C254.625 193.124 254.637 192.98 254.637 192.812L254.493 192.668C254.685 192.164 254.781 191.672 254.781 191.192C254.781 190.64 254.745 189.848 254.673 188.816L254.601 186.44C254.601 185.24 254.637 183.44 254.709 181.04C254.805 178.904 254.853 177.092 254.853 175.604L254.781 173.444C254.733 172.796 254.709 172.076 254.709 171.284C254.709 170.924 254.793 170.672 254.961 170.528C255.129 170.36 255.393 170.276 255.753 170.276C255.993 170.276 256.185 170.348 256.329 170.492C256.377 170.516 256.725 170.564 257.373 170.636C257.973 170.708 258.489 170.816 258.921 170.96C259.377 171.104 259.605 171.284 259.605 171.5C259.605 171.74 259.377 171.98 258.921 172.22C257.553 171.764 256.581 171.536 256.005 171.536L255.825 171.752C255.849 171.968 255.861 172.484 255.861 173.3C255.861 174.332 255.837 175.256 255.789 176.072C255.765 176.912 255.753 177.848 255.753 178.88C255.753 179.552 255.921 179.888 256.257 179.888L256.833 179.852C257.025 179.828 257.229 179.816 257.445 179.816C258.381 179.816 258.849 180.032 258.849 180.464C258.849 180.728 258.789 180.956 258.669 181.148C258.549 181.316 258.369 181.4 258.129 181.4C257.769 181.4 257.493 181.304 257.301 181.112L256.149 180.932H255.969L255.789 181.112V181.22C255.837 181.628 255.861 182.576 255.861 184.064C255.861 185 255.849 185.852 255.825 186.62L255.789 189.176C255.789 190.112 255.825 191.072 255.897 192.056C255.921 192.608 256.041 192.98 256.257 193.172C256.473 193.34 256.869 193.424 257.445 193.424L258.093 193.388C258.309 193.364 258.549 193.352 258.813 193.352C259.509 193.352 259.857 193.508 259.857 193.82C259.857 194.252 259.329 194.468 258.273 194.468H255.321ZM266.224 193.496L266.188 192.164C266.164 191.78 266.152 191.348 266.152 190.868C266.152 190.628 266.164 190.424 266.188 190.256L266.224 189.608C266.224 189.368 266.176 189.08 266.08 188.744C266.08 187.136 265.96 184.148 265.72 179.78C265.48 175.556 265.348 172.688 265.324 171.176C263.836 171.176 262.84 171.14 262.336 171.068C261.856 170.948 261.616 170.756 261.616 170.492C261.736 170.228 261.964 170.096 262.3 170.096C263.02 170.096 264.064 170.144 265.432 170.24C266.68 170.36 267.724 170.42 268.564 170.42H269.32L270.076 170.384C270.508 170.384 270.724 170.54 270.724 170.852C270.724 170.996 270.64 171.116 270.472 171.212C270.328 171.284 270.148 171.32 269.932 171.32C269.452 171.32 268.948 171.296 268.42 171.248L266.872 171.176C266.776 171.176 266.728 171.212 266.728 171.284C266.704 171.356 266.692 171.584 266.692 171.968C266.692 174.296 266.836 177.824 267.124 182.552C267.388 187.448 267.52 190.964 267.52 193.1C267.52 193.268 267.412 193.424 267.196 193.568C267.004 193.712 266.812 193.784 266.62 193.784L266.224 193.496ZM283.064 194.54C282.992 194.54 282.896 194.492 282.776 194.396C282.656 194.3 282.584 194.216 282.56 194.144C282.776 193.568 282.884 191.468 282.884 187.844C282.884 187.148 282.848 186.152 282.776 184.856L282.596 182.3L282.38 181.832L282.488 181.4C282.344 181.064 282.128 180.5 281.84 179.708C281.552 178.916 281.264 178.112 280.976 177.296C280.112 175.016 279.548 173.372 279.284 172.364C279.14 171.884 279.032 171.44 278.96 171.032L279.464 170.636C279.704 170.684 280.052 171.452 280.508 172.94C280.868 173.996 281.192 175.04 281.48 176.072L281.912 177.44C282.344 178.928 282.656 179.696 282.848 179.744L282.992 179.096L282.92 178.916C283.112 178.676 283.352 177.824 283.64 176.36C283.952 174.68 284.252 173.264 284.54 172.112C284.852 170.768 285.164 170.096 285.476 170.096C285.596 170.096 285.704 170.132 285.8 170.204C285.896 170.276 285.944 170.36 285.944 170.456C285.944 170.816 285.584 172.232 284.864 174.704C284.504 175.88 284.204 176.984 283.964 178.016C283.676 179.24 283.532 180.332 283.532 181.292C283.652 181.532 283.712 181.736 283.712 181.904C283.712 182.024 283.676 182.192 283.604 182.408C283.532 182.624 283.496 182.804 283.496 182.948C283.496 183.068 283.544 183.608 283.64 184.568C283.736 185.216 283.784 185.768 283.784 186.224C283.784 187.28 283.796 188.228 283.82 189.068V191.948V192.092C283.82 193.724 283.568 194.54 283.064 194.54ZM294.029 194.684C291.221 194.684 289.817 190.268 289.817 181.436V180.176C289.817 173.48 290.681 170.132 292.409 170.132C292.529 170.132 292.697 170.168 292.913 170.24C293.681 170.504 294.437 170.672 295.181 170.744C295.637 170.84 296.093 171.308 296.549 172.148C297.053 173.012 297.425 174.152 297.665 175.568C297.929 176.984 298.061 178.436 298.061 179.924L297.989 180.104C297.989 180.896 298.001 181.604 298.025 182.228L298.061 184.388C298.061 185.612 298.013 186.716 297.917 187.7C297.773 189.188 297.533 190.472 297.197 191.552C296.981 192.2 296.729 192.74 296.441 193.172C296.177 193.604 295.841 193.964 295.433 194.252C295.049 194.54 294.581 194.684 294.029 194.684ZM293.885 193.64C294.821 193.64 295.517 192.98 295.973 191.66C296.429 190.316 296.705 188.948 296.801 187.556C296.897 186.116 296.945 184.964 296.945 184.1C296.945 183.14 296.873 181.724 296.729 179.852C296.609 177.764 296.549 176.348 296.549 175.604L296.405 175.316L296.477 175.136C296.477 174.08 296.177 173.168 295.577 172.4C295.001 171.632 294.293 171.248 293.453 171.248C292.349 171.248 291.689 171.776 291.473 172.832C291.425 173.192 291.377 173.708 291.329 174.38C291.329 176.156 291.257 177.368 291.113 178.016C291.113 178.376 291.077 178.94 291.005 179.708L290.933 181.4C290.933 181.928 290.945 182.396 290.969 182.804L291.005 184.244C291.005 185.372 291.101 186.668 291.293 188.132C291.437 189.212 291.605 190.124 291.797 190.868C291.989 191.612 292.265 192.248 292.625 192.776C292.985 193.352 293.405 193.64 293.885 193.64ZM306.511 194.54C306.127 194.54 305.707 194.408 305.251 194.144C304.819 193.904 304.459 193.616 304.171 193.28C303.835 192.848 303.571 191.636 303.379 189.644C303.187 187.652 303.067 185.372 303.019 182.804C303.019 182.228 303.007 181.796 302.983 181.508C302.935 175.484 302.839 171.92 302.695 170.816L302.911 170.312C303.463 170.384 303.739 171.044 303.739 172.292L303.847 181.832C303.847 182.504 303.907 183.776 304.027 185.648C304.171 187.328 304.243 188.6 304.243 189.464C304.243 192.2 305.143 193.568 306.943 193.568C308.047 193.568 308.755 191.048 309.067 186.008L309.103 185.288C309.271 178.688 309.355 173.804 309.355 170.636L309.319 170.312C309.295 170.216 309.283 170.108 309.283 169.988C309.283 169.724 309.487 169.592 309.895 169.592C310.183 169.592 310.363 169.664 310.435 169.808C310.483 170.048 310.507 170.468 310.507 171.068C310.507 172.892 310.435 174.116 310.291 174.74L310.327 174.956C310.327 175.268 310.291 175.748 310.219 176.396L310.147 177.836V178.196C310.171 178.292 310.183 178.412 310.183 178.556C310.135 179.132 310.111 179.684 310.111 180.212C310.087 180.38 310.075 180.644 310.075 181.004C310.027 183.284 309.979 185.264 309.931 186.944C309.859 189.032 309.571 190.796 309.067 192.236C308.539 193.772 307.687 194.54 306.511 194.54ZM321.422 194.432C321.134 194.12 320.822 193.292 320.486 191.948C320.15 190.604 319.838 189.092 319.55 187.412C319.358 186.044 319.082 184.688 318.722 183.344C318.434 182.144 318.158 181.544 317.894 181.544H317.786C317.258 181.544 316.994 181.712 316.994 182.048C316.994 183.776 317.09 186.404 317.282 189.932C317.378 192.092 317.486 193.352 317.606 193.712L317.318 194.324H316.814L316.526 194.036C316.142 182.948 315.95 175.388 315.95 171.356C315.95 171.092 315.962 170.876 315.986 170.708C316.034 170.54 316.118 170.384 316.238 170.24C316.334 170.072 316.502 169.988 316.742 169.988C317.966 169.988 318.95 170.288 319.694 170.888C320.438 171.488 320.81 172.352 320.81 173.48V176.108C320.81 176.564 320.654 177.176 320.342 177.944C320.054 178.712 319.73 179.42 319.37 180.068L318.902 180.968C319.166 182.192 319.682 184.4 320.45 187.592C321.242 190.76 321.674 192.44 321.746 192.632C321.77 192.656 321.794 192.716 321.818 192.812C321.866 192.908 321.95 193.052 322.07 193.244C322.238 193.58 322.322 193.868 322.322 194.108C322.322 194.444 322.19 194.612 321.926 194.612L321.422 194.432ZM317.174 180.644C317.63 180.644 318.038 180.416 318.398 179.96C318.758 179.504 319.046 178.916 319.262 178.196C319.646 176.732 319.838 175.568 319.838 174.704C319.838 174.152 319.802 173.696 319.73 173.336C319.682 172.976 319.586 172.592 319.442 172.184C319.154 171.344 318.47 170.924 317.39 170.924C317.27 170.924 317.174 171.032 317.102 171.248C317.03 171.44 316.994 171.644 316.994 171.86C316.994 173.468 317.018 174.92 317.066 176.216C317.09 177.512 317.102 178.964 317.102 180.572L317.174 180.644ZM332.904 194.432C332.64 194.384 332.388 194.276 332.148 194.108C331.908 193.964 331.776 193.784 331.752 193.568L331.932 193.28C332.028 193.28 332.244 193.316 332.58 193.388C332.844 193.484 333.06 193.532 333.228 193.532C333.756 193.532 334.224 193.328 334.632 192.92C335.04 192.488 335.352 191.936 335.568 191.264C335.904 190.016 336.072 188.84 336.072 187.736C336.072 186.08 335.568 184.304 334.56 182.408C333.936 181.304 333.456 180.428 333.12 179.78C332.784 179.132 332.484 178.388 332.22 177.548C331.908 176.564 331.752 175.616 331.752 174.704C331.752 173.84 331.968 172.82 332.4 171.644C332.616 171.092 332.916 170.648 333.3 170.312C333.708 169.952 334.14 169.772 334.596 169.772C334.908 169.772 335.208 169.88 335.496 170.096C335.808 170.312 335.964 170.54 335.964 170.78C335.964 170.972 335.808 171.068 335.496 171.068C335.4 171.068 335.28 171.032 335.136 170.96C334.992 170.888 334.86 170.852 334.74 170.852C334.38 170.852 334.056 170.996 333.768 171.284C333.48 171.572 333.264 171.944 333.12 172.4C332.832 173.288 332.688 174.104 332.688 174.848C332.688 175.304 332.748 175.772 332.868 176.252C332.892 176.396 332.916 176.516 332.94 176.612C332.964 176.708 332.976 176.78 332.976 176.828L333.192 177.548L333.372 178.196L333.66 178.844C333.732 179.012 333.804 179.168 333.876 179.312C333.972 179.432 334.056 179.552 334.128 179.672L334.56 180.428C334.656 180.572 334.86 180.92 335.172 181.472C335.484 182 335.772 182.564 336.036 183.164C336.276 183.668 336.456 184.148 336.576 184.604C336.696 185.036 336.804 185.564 336.9 186.188C336.972 186.788 337.008 187.448 337.008 188.168C337.008 189.32 336.852 190.4 336.54 191.408C336.108 192.608 335.484 193.448 334.668 193.928C334.212 194.216 333.684 194.36 333.084 194.36L332.904 194.432ZM335.784 170.96C335.784 170.936 335.772 170.924 335.748 170.924V170.96H335.784ZM348.459 194.324C348.099 194.324 347.871 194.276 347.775 194.18C347.679 194.108 347.607 193.892 347.559 193.532C347.343 191.78 347.211 190.688 347.163 190.256L346.983 188.816C346.455 188.696 345.855 188.636 345.183 188.636L343.887 188.564C343.311 188.492 342.891 188.456 342.627 188.456C342.483 188.456 342.399 188.516 342.375 188.636C342.375 188.708 342.363 188.744 342.339 188.744L342.267 189.464C342.243 189.896 342.111 190.76 341.871 192.056C341.751 192.704 341.607 193.208 341.439 193.568C341.247 193.976 341.067 194.18 340.899 194.18C340.755 194.18 340.599 194.12 340.431 194C340.263 193.856 340.179 193.712 340.179 193.568L340.215 193.46L340.251 193.352C340.683 191.648 341.043 189.956 341.331 188.276L341.763 186.044L342.195 183.308C342.195 183.308 342.327 182.516 342.591 180.932C342.711 180.284 342.927 179.24 343.239 177.8C343.575 176.168 343.779 175.052 343.851 174.452C343.875 174.38 343.923 173.936 343.995 173.12C344.091 172.208 344.175 171.536 344.247 171.104C344.319 170.48 344.391 170.12 344.463 170.024H344.715C344.787 170.048 344.871 170.06 344.967 170.06C345.255 170.06 345.471 169.988 345.615 169.844C345.783 169.844 345.927 169.904 346.047 170.024C346.191 170.12 346.263 170.24 346.263 170.384C346.263 171.536 346.347 172.856 346.515 174.344C346.611 175.112 346.683 175.748 346.731 176.252C346.995 179.348 347.667 185.156 348.747 193.676V193.784C348.747 194.024 348.651 194.204 348.459 194.324ZM346.803 187.844C346.563 184.388 346.107 179.288 345.435 172.544L343.491 182.156C342.939 184.916 342.663 186.656 342.663 187.376C342.663 187.496 343.119 187.604 344.031 187.7C344.943 187.796 345.747 187.844 346.443 187.844H346.803ZM361.833 194.144C361.641 194.144 361.497 194.072 361.401 193.928C361.329 193.784 361.257 193.568 361.185 193.28C361.161 193.088 361.113 192.92 361.041 192.776L361.077 192.668C360.885 191.54 360.477 190.16 359.853 188.528L359.205 186.656C359.157 186.608 358.929 185.996 358.521 184.82L358.233 183.956C356.073 177.284 354.717 173.672 354.165 173.12C353.973 173.768 353.877 174.608 353.877 175.64C353.877 176.192 353.889 176.672 353.913 177.08L353.949 178.484L353.913 179.348C353.889 179.612 353.877 179.9 353.877 180.212C353.877 180.74 353.901 181.196 353.949 181.58C353.997 182.348 354.021 182.732 354.021 182.732H353.913C353.913 186.74 353.997 188.948 354.165 189.356V192.596C354.261 192.788 354.309 193.04 354.309 193.352C354.309 193.544 354.237 193.712 354.093 193.856C353.973 194 353.817 194.072 353.625 194.072C353.121 194.072 352.869 193.424 352.869 192.128L352.941 190.976C352.989 190.616 353.013 190.22 353.013 189.788C353.013 188.636 352.977 186.908 352.905 184.604C352.833 182.3 352.797 180.572 352.797 179.42C352.797 178.724 352.833 177.656 352.905 176.216C352.977 174.8 353.013 173.744 353.013 173.048V172.58C353.013 171.404 353.229 170.636 353.661 170.276L353.769 170.384L354.129 170.312C354.225 170.336 354.333 170.408 354.453 170.528C354.549 170.624 354.597 170.732 354.597 170.852L354.669 171.068C354.669 171.116 354.669 171.164 354.669 171.212C354.693 171.236 354.705 171.248 354.705 171.248C355.089 172.952 355.953 175.34 357.297 178.412C358.665 181.652 359.517 183.8 359.853 184.856C360.093 185.696 360.285 186.44 360.429 187.088C360.885 189.128 361.425 190.7 362.049 191.804L362.121 191.696C362.673 186.368 362.949 179.828 362.949 172.076L362.913 171.644C362.889 171.524 362.877 171.368 362.877 171.176C362.877 170.672 363.045 170.42 363.381 170.42C363.597 170.42 363.777 170.528 363.921 170.744C364.089 170.96 364.173 171.2 364.173 171.464V173.876L363.993 174.164C363.993 176.444 363.861 180.188 363.597 185.396C363.333 190.604 363.081 193.436 362.841 193.892L362.229 194.036V194.072L362.193 194.036L361.833 194.144ZM371.587 193.496L371.551 192.164C371.527 191.78 371.515 191.348 371.515 190.868C371.515 190.628 371.527 190.424 371.551 190.256L371.587 189.608C371.587 189.368 371.539 189.08 371.443 188.744C371.443 187.136 371.323 184.148 371.083 179.78C370.843 175.556 370.711 172.688 370.687 171.176C369.199 171.176 368.203 171.14 367.699 171.068C367.219 170.948 366.979 170.756 366.979 170.492C367.099 170.228 367.327 170.096 367.663 170.096C368.383 170.096 369.427 170.144 370.795 170.24C372.043 170.36 373.087 170.42 373.927 170.42H374.683L375.439 170.384C375.871 170.384 376.087 170.54 376.087 170.852C376.087 170.996 376.003 171.116 375.835 171.212C375.691 171.284 375.511 171.32 375.295 171.32C374.815 171.32 374.311 171.296 373.783 171.248L372.235 171.176C372.139 171.176 372.091 171.212 372.091 171.284C372.067 171.356 372.055 171.584 372.055 171.968C372.055 174.296 372.199 177.824 372.487 182.552C372.751 187.448 372.883 190.964 372.883 193.1C372.883 193.268 372.775 193.424 372.559 193.568C372.367 193.712 372.175 193.784 371.983 193.784L371.587 193.496ZM386.991 194.324C386.631 194.324 386.403 194.276 386.307 194.18C386.211 194.108 386.139 193.892 386.091 193.532C385.875 191.78 385.743 190.688 385.695 190.256L385.515 188.816C384.987 188.696 384.387 188.636 383.715 188.636L382.419 188.564C381.843 188.492 381.423 188.456 381.159 188.456C381.015 188.456 380.931 188.516 380.907 188.636C380.907 188.708 380.895 188.744 380.871 188.744L380.799 189.464C380.775 189.896 380.643 190.76 380.403 192.056C380.283 192.704 380.139 193.208 379.971 193.568C379.779 193.976 379.599 194.18 379.431 194.18C379.287 194.18 379.131 194.12 378.963 194C378.795 193.856 378.711 193.712 378.711 193.568L378.747 193.46L378.783 193.352C379.215 191.648 379.575 189.956 379.863 188.276L380.295 186.044L380.727 183.308C380.727 183.308 380.859 182.516 381.123 180.932C381.243 180.284 381.459 179.24 381.771 177.8C382.107 176.168 382.311 175.052 382.383 174.452C382.407 174.38 382.455 173.936 382.527 173.12C382.623 172.208 382.707 171.536 382.779 171.104C382.851 170.48 382.923 170.12 382.995 170.024H383.247C383.319 170.048 383.403 170.06 383.499 170.06C383.787 170.06 384.003 169.988 384.147 169.844C384.315 169.844 384.459 169.904 384.579 170.024C384.723 170.12 384.795 170.24 384.795 170.384C384.795 171.536 384.879 172.856 385.047 174.344C385.143 175.112 385.215 175.748 385.263 176.252C385.527 179.348 386.199 185.156 387.279 193.676V193.784C387.279 194.024 387.183 194.204 386.991 194.324ZM385.335 187.844C385.095 184.388 384.639 179.288 383.967 172.544L382.023 182.156C381.471 184.916 381.195 186.656 381.195 187.376C381.195 187.496 381.651 187.604 382.563 187.7C383.475 187.796 384.279 187.844 384.975 187.844H385.335Z" fill="#FF0000"/>
<path d="M426.544 94.2373C432.364 76.8473 435.594 53.7773 423.074 37.9473C413.674 24.8373 387.734 14.0373 371.954 14.5473C385.074 30.6273 373.874 50.7272 363.584 66.9672" fill="#FF0000"/>
<path d="M393.454 82.3973C400.894 84.9573 408.354 87.4873 415.364 91.1073C419.594 93.2973 424.964 95.6572 427.584 99.7873C429.764 103.237 429.584 107.387 425.854 109.557C420.854 112.417 413.284 107.387 408.564 105.557C401.814 102.907 395.064 100.277 388.354 97.5572C381.224 94.6472 374.124 91.6473 367.184 88.2973C362.764 86.1673 353.264 83.1373 353.184 77.3973C353.134 74.5073 354.754 70.9772 357.394 69.5872C360.864 67.7672 365.914 70.5173 369.244 71.7373C377.402 74.7892 385.375 78.3118 393.124 82.2872C394.804 83.1372 396.294 80.6072 394.604 79.7472C387.124 75.9177 379.447 72.4862 371.604 69.4672C366.504 67.5372 359.924 63.9473 354.884 67.7573C353.102 69.1865 351.755 71.0848 350.993 73.2385C350.232 75.3921 350.087 77.7156 350.574 79.9473C351.884 84.8173 358.274 87.0573 362.314 89.1173C376.224 96.2073 390.914 101.757 405.424 107.457C412.624 110.277 429.294 119.597 431.984 105.947C433.604 97.7573 424.644 92.7872 418.744 89.5872C410.954 85.3672 402.644 82.4772 394.294 79.5872C392.504 78.9672 391.734 81.8073 393.514 82.4173L393.454 82.3973Z" fill="#252A3F"/>
<path d="M368.634 5.78731C372.184 9.42731 372.834 14.4073 368.704 17.9173C367.013 19.4133 364.853 20.2743 362.596 20.3528C360.34 20.4313 358.126 19.7222 356.334 18.3473C355.371 17.6308 354.571 16.7164 353.99 15.6655C353.409 14.6146 353.059 13.4515 352.964 12.2544C352.87 11.0572 353.032 9.85359 353.441 8.72438C353.85 7.59517 354.495 6.56649 355.334 5.70732C359.174 1.76732 364.734 2.19731 368.604 5.78731C369.994 7.06731 372.074 4.99732 370.684 3.70732C365.684 -0.952676 358.234 -1.48269 353.254 3.62731C352.153 4.74871 351.297 6.0864 350.739 7.55577C350.181 9.02515 349.935 10.5942 350.015 12.1638C350.095 13.7334 350.499 15.2694 351.203 16.6745C351.907 18.0797 352.895 19.3235 354.104 20.3273C356.46 22.3055 359.454 23.3605 362.53 23.2962C365.606 23.2318 368.553 22.0524 370.824 19.9773C376.104 15.3173 375.424 8.4773 370.754 3.6873C369.434 2.3273 367.354 4.40732 368.674 5.76732L368.634 5.78731Z" fill="#252A3F"/>
<path d="M13.1818 204.852C26.4524 203.927 43.1095 192.349 53.1901 181.261" stroke="#24C0A8" stroke-width="8.82" stroke-miterlimit="10"/>
<path d="M21.8263 177.496C14.4127 182.72 9.37757 190.917 10.747 200.229C11.3469 204.124 12.942 207.799 15.3779 210.897C17.8139 213.995 21.0082 216.412 24.6519 217.913C33.7168 221.553 43.596 218.27 50.7738 212.187C59.9641 204.393 61.664 192.68 55.1883 182.542C51.6708 177.042 46.2962 172.997 39.6917 172.308C33.3033 171.642 27.0636 173.957 21.8334 177.5C21.0303 178.041 21.8304 179.327 22.6373 178.779C32.0493 172.409 44.5642 171.373 52.2469 181.002C59.2874 189.83 59.6682 201.32 51.4896 209.501C45.1111 215.879 35.5216 219.844 26.5961 217.022C23.2564 215.912 20.2431 213.993 17.8248 211.436C15.4064 208.879 13.658 205.763 12.7354 202.367C10.1912 192.939 14.9998 184.189 22.6444 178.783C23.4355 178.222 22.637 176.941 21.8405 177.504L21.8263 177.496Z" fill="#252A3F"/>
<path d="M18.4268 181.787L14.2671 172.62L23.1733 166.946L29.5805 175.357C29.7048 178.493 21.4083 184.013 18.4307 181.78" fill="white"/>
<path d="M19.1487 181.569L14.989 172.402L14.6536 173.267L23.5598 167.593L22.5167 167.36C24.3946 169.823 27.0113 172.362 28.4401 175.116C28.8679 175.96 28.9873 175.446 28.4953 176.484C28.0034 177.522 26.7428 178.583 25.7649 179.296C24.0397 180.557 20.8907 182.457 18.7759 181.145C17.9466 180.632 17.2347 181.968 18.0623 182.476C21.7343 184.756 29.5791 180.13 30.2484 176.086C30.5145 174.478 28.7288 173.03 27.8298 171.852L23.8057 166.57C23.6957 166.404 23.5256 166.287 23.3311 166.243C23.1367 166.2 22.9329 166.233 22.7625 166.337L13.8563 172.011C13.7127 172.098 13.6019 172.23 13.5413 172.386C13.4806 172.543 13.4735 172.715 13.521 172.876L17.6774 182.032C18.0719 182.903 19.5257 182.481 19.1263 181.594L19.1487 181.569Z" fill="#252A3F"/>
<path d="M17.0943 170.287C16.5615 169.195 14.254 166.968 15.6299 165.854C17.1533 164.636 18.821 166.996 19.4879 168.137C19.9808 168.979 21.266 168.197 20.7665 167.333C19.6204 165.377 17.2457 162.908 14.8576 164.542C12.1177 166.414 14.8474 169.11 15.8157 171.091C16.2409 171.964 17.5227 171.171 17.0943 170.287Z" fill="#252A3F"/>
<path d="M11.5658 199.325C25.8219 196.212 39.8789 189.536 49.0639 177.853C49.6587 177.077 48.5582 176.061 47.9547 176.828C38.8946 188.312 25.15 194.798 11.1247 197.866C10.1738 198.075 10.6154 199.517 11.5625 199.315L11.5658 199.325Z" fill="#252A3F"/>
<path d="M16.1211 210.73C31.8686 208.484 47.5275 199.033 56.4666 185.825C57.0116 185.022 55.6748 184.31 55.1353 185.112C46.5355 197.823 31.2405 207.057 16.0826 209.22C15.1283 209.359 15.1597 210.865 16.1211 210.73Z" fill="#252A3F"/>
<path d="M29.8597 189.986C32.1888 189.282 31.0953 185.663 28.7661 186.366C26.437 187.07 27.5305 190.689 29.8597 189.986Z" fill="#DF1351"/>
<path d="M39.999 207.865C42.3281 207.161 41.2346 203.542 38.9054 204.246C36.5763 204.949 37.6698 208.569 39.999 207.865Z" fill="#DF1351"/>
<path d="M37.3861 185.373C39.7152 184.669 38.6217 181.05 36.2925 181.753C33.9634 182.457 35.0569 186.077 37.3861 185.373Z" fill="#DF1351"/>
<path d="M43.1818 180.364C45.5109 179.661 44.419 176.047 42.0899 176.75C39.7607 177.454 40.8526 181.068 43.1818 180.364Z" fill="#DF1351"/>
<path d="M47.8134 202.586C50.1426 201.883 49.049 198.263 46.7199 198.967C44.3907 199.671 45.4843 203.29 47.8134 202.586Z" fill="#DF1351"/>
<path d="M54.2911 196.596C56.6202 195.892 55.5267 192.273 53.1975 192.976C50.8684 193.68 51.9619 197.3 54.2911 196.596Z" fill="#DF1351"/>
<path d="M22.8945 193.158C25.2236 192.454 24.1301 188.835 21.8009 189.539C19.4718 190.242 20.5653 193.862 22.8945 193.158Z" fill="#DF1351"/>
<path d="M16.271 195.881C18.6001 195.178 17.5083 191.564 15.1791 192.267C12.85 192.971 13.9418 196.585 16.271 195.881Z" fill="#DF1351"/>
<path d="M31.6558 211.907C33.985 211.204 32.8914 207.584 30.5623 208.288C28.2331 208.991 29.3267 212.611 31.6558 211.907Z" fill="#DF1351"/>
<path d="M24.3915 213.714C26.7206 213.01 25.6287 209.396 23.2996 210.1C20.9704 210.804 22.0623 214.418 24.3915 213.714Z" fill="#DF1351"/>
<path d="M18.6035 170.206C20.8447 173.497 22.7384 177 24.9796 180.291C25.2051 180.622 25.7438 180.293 25.5112 179.957C23.27 176.666 21.3763 173.163 19.1351 169.873C18.9096 169.541 18.3709 169.871 18.6035 170.206Z" fill="#252A3F"/>
<path d="M16.5416 171.933C18.9378 174.73 19.8793 178.359 22.0142 181.318C22.2507 181.646 22.7878 181.311 22.5459 180.984C20.3725 177.977 19.4014 174.309 16.9631 171.472C16.6971 171.164 16.2702 171.627 16.5088 171.943L16.5416 171.933Z" fill="#252A3F"/>
<path d="M21.3833 168.901C23.1004 172.195 25.4327 175.076 27.5585 178.103C27.7895 178.433 28.3266 178.098 28.0902 177.77C25.9808 174.738 23.6304 171.856 21.9149 168.568C21.7282 168.206 21.1928 168.547 21.3833 168.901Z" fill="#252A3F"/>
</svg>
