<svg width="25" height="25" viewBox="0 0 25 25" fill="none" xmlns="http://www.w3.org/2000/svg">
<path d="M12.5 0C5.59653 0 0 5.59644 0 12.5C0 19.4036 5.59653 25 12.5 25C19.4035 25 25 19.4036 25 12.5C25 5.59644 19.4035 0 12.5 0ZM16.8203 13.1626L10.5703 17.0688C10.4438 17.1478 10.3 17.1875 10.1562 17.1875C10.026 17.1875 9.89551 17.1551 9.77744 17.0895C9.5291 16.9518 9.375 16.6904 9.375 16.4062V8.59375C9.375 8.30957 9.5291 8.04824 9.77744 7.91055C10.0258 7.77207 10.3294 7.78047 10.5703 7.93115L16.8203 11.8374C17.0486 11.9805 17.1875 12.2307 17.1875 12.5C17.1875 12.7693 17.0486 13.0196 16.8203 13.1626Z" fill="#FF0000"/>
</svg>
